%TF.GenerationSoftware,KiCad,Pcbnew,10.0.5-10.0.5~ubuntu24.04.1*%
%TF.CreationDate,2026-09-03T10:28:54-06:00*%
%TF.ProjectId,can_fd_node,63616e5f-6664-45f6-9e6f-64652e6b6963,rev?*%
%TF.SameCoordinates,Original*%
%TF.FileFunction,Copper,L1,Top*%
%TF.FilePolarity,Positive*%
%FSLAX46Y46*%
G04 Gerber Fmt 4.6, Leading zero omitted, Abs format (unit mm)*
G04 Created by KiCad (PCBNEW 10.0.5-10.0.5~ubuntu24.04.1) date 2026-09-03 10:28:54*
%MOMM*%
%LPD*%
G01*
G04 APERTURE LIST*
G04 Aperture macros list*
%AMRoundRect*
0 Rectangle with rounded corners*
0 $1 Rounding radius*
0 $2 $3 $4 $5 $6 $7 $8 $9 X,Y pos of 4 corners*
0 Add a 4 corners polygon primitive as box body*
4,1,4,$2,$3,$4,$5,$6,$7,$8,$9,$2,$3,0*
0 Add four circle primitives for the rounded corners*
1,1,$1+$1,$2,$3*
1,1,$1+$1,$4,$5*
1,1,$1+$1,$6,$7*
1,1,$1+$1,$8,$9*
0 Add four rect primitives between the rounded corners*
20,1,$1+$1,$2,$3,$4,$5,0*
20,1,$1+$1,$4,$5,$6,$7,0*
20,1,$1+$1,$6,$7,$8,$9,0*
20,1,$1+$1,$8,$9,$2,$3,0*%
%AMFreePoly0*
4,1,9,3.862500,-0.866500,0.737500,-0.866500,0.737500,-0.450000,-0.737500,-0.450000,-0.737500,0.450000,0.737500,0.450000,0.737500,0.866500,3.862500,0.866500,3.862500,-0.866500,3.862500,-0.866500,$1*%
G04 Aperture macros list end*
%TA.AperFunction,SMDPad,CuDef*%
%ADD10RoundRect,0.225000X0.250000X-0.225000X0.250000X0.225000X-0.250000X0.225000X-0.250000X-0.225000X0*%
%TD*%
%TA.AperFunction,SMDPad,CuDef*%
%ADD11RoundRect,0.200000X-0.200000X-0.275000X0.200000X-0.275000X0.200000X0.275000X-0.200000X0.275000X0*%
%TD*%
%TA.AperFunction,SMDPad,CuDef*%
%ADD12RoundRect,0.200000X0.275000X-0.200000X0.275000X0.200000X-0.275000X0.200000X-0.275000X-0.200000X0*%
%TD*%
%TA.AperFunction,SMDPad,CuDef*%
%ADD13C,1.000000*%
%TD*%
%TA.AperFunction,SMDPad,CuDef*%
%ADD14RoundRect,0.225000X-0.225000X-0.250000X0.225000X-0.250000X0.225000X0.250000X-0.225000X0.250000X0*%
%TD*%
%TA.AperFunction,SMDPad,CuDef*%
%ADD15RoundRect,0.225000X-0.225000X-0.375000X0.225000X-0.375000X0.225000X0.375000X-0.225000X0.375000X0*%
%TD*%
%TA.AperFunction,SMDPad,CuDef*%
%ADD16RoundRect,0.200000X0.200000X0.275000X-0.200000X0.275000X-0.200000X-0.275000X0.200000X-0.275000X0*%
%TD*%
%TA.AperFunction,ComponentPad*%
%ADD17R,2.600000X2.600000*%
%TD*%
%TA.AperFunction,ComponentPad*%
%ADD18C,2.600000*%
%TD*%
%TA.AperFunction,SMDPad,CuDef*%
%ADD19RoundRect,0.250000X-0.250000X-0.475000X0.250000X-0.475000X0.250000X0.475000X-0.250000X0.475000X0*%
%TD*%
%TA.AperFunction,SMDPad,CuDef*%
%ADD20RoundRect,0.125000X-0.625000X-0.125000X0.625000X-0.125000X0.625000X0.125000X-0.625000X0.125000X0*%
%TD*%
%TA.AperFunction,SMDPad,CuDef*%
%ADD21RoundRect,0.125000X-0.125000X-0.625000X0.125000X-0.625000X0.125000X0.625000X-0.125000X0.625000X0*%
%TD*%
%TA.AperFunction,SMDPad,CuDef*%
%ADD22RoundRect,0.150000X-0.150000X0.825000X-0.150000X-0.825000X0.150000X-0.825000X0.150000X0.825000X0*%
%TD*%
%TA.AperFunction,SMDPad,CuDef*%
%ADD23RoundRect,0.300000X-0.300000X-0.300000X0.300000X-0.300000X0.300000X0.300000X-0.300000X0.300000X0*%
%TD*%
%TA.AperFunction,SMDPad,CuDef*%
%ADD24RoundRect,0.450000X1.250000X-0.450000X1.250000X0.450000X-1.250000X0.450000X-1.250000X-0.450000X0*%
%TD*%
%TA.AperFunction,SMDPad,CuDef*%
%ADD25RoundRect,0.150000X0.150000X-0.587500X0.150000X0.587500X-0.150000X0.587500X-0.150000X-0.587500X0*%
%TD*%
%TA.AperFunction,SMDPad,CuDef*%
%ADD26RoundRect,0.250000X-0.362500X-1.425000X0.362500X-1.425000X0.362500X1.425000X-0.362500X1.425000X0*%
%TD*%
%TA.AperFunction,SMDPad,CuDef*%
%ADD27RoundRect,0.250000X-1.500000X-0.550000X1.500000X-0.550000X1.500000X0.550000X-1.500000X0.550000X0*%
%TD*%
%TA.AperFunction,SMDPad,CuDef*%
%ADD28RoundRect,0.250000X-1.000000X-0.650000X1.000000X-0.650000X1.000000X0.650000X-1.000000X0.650000X0*%
%TD*%
%TA.AperFunction,SMDPad,CuDef*%
%ADD29RoundRect,0.225000X-0.425000X-0.225000X0.425000X-0.225000X0.425000X0.225000X-0.425000X0.225000X0*%
%TD*%
%TA.AperFunction,SMDPad,CuDef*%
%ADD30FreePoly0,0.000000*%
%TD*%
%TA.AperFunction,SMDPad,CuDef*%
%ADD31RoundRect,0.112500X-0.112500X0.350000X-0.112500X-0.350000X0.112500X-0.350000X0.112500X0.350000X0*%
%TD*%
%TA.AperFunction,SMDPad,CuDef*%
%ADD32RoundRect,0.250000X-0.325000X-0.650000X0.325000X-0.650000X0.325000X0.650000X-0.325000X0.650000X0*%
%TD*%
%TA.AperFunction,SMDPad,CuDef*%
%ADD33RoundRect,0.218750X-0.218750X-0.256250X0.218750X-0.256250X0.218750X0.256250X-0.218750X0.256250X0*%
%TD*%
%TA.AperFunction,SMDPad,CuDef*%
%ADD34RoundRect,0.450000X-0.450000X-1.650000X0.450000X-1.650000X0.450000X1.650000X-0.450000X1.650000X0*%
%TD*%
%TA.AperFunction,ComponentPad*%
%ADD35R,1.700000X1.700000*%
%TD*%
%TA.AperFunction,ComponentPad*%
%ADD36C,1.700000*%
%TD*%
%TA.AperFunction,SMDPad,CuDef*%
%ADD37RoundRect,0.250000X0.362500X1.425000X-0.362500X1.425000X-0.362500X-1.425000X0.362500X-1.425000X0*%
%TD*%
%TA.AperFunction,SMDPad,CuDef*%
%ADD38RoundRect,0.150000X-0.587500X-0.150000X0.587500X-0.150000X0.587500X0.150000X-0.587500X0.150000X0*%
%TD*%
%TA.AperFunction,SMDPad,CuDef*%
%ADD39RoundRect,0.300000X-0.700000X-0.300000X0.700000X-0.300000X0.700000X0.300000X-0.700000X0.300000X0*%
%TD*%
%TA.AperFunction,SMDPad,CuDef*%
%ADD40RoundRect,0.150000X-0.512500X-0.150000X0.512500X-0.150000X0.512500X0.150000X-0.512500X0.150000X0*%
%TD*%
%TA.AperFunction,ViaPad*%
%ADD41C,0.600000*%
%TD*%
%TA.AperFunction,Conductor*%
%ADD42C,0.250000*%
%TD*%
%TA.AperFunction,Conductor*%
%ADD43C,0.400000*%
%TD*%
%TA.AperFunction,Conductor*%
%ADD44C,1.000000*%
%TD*%
%TA.AperFunction,Conductor*%
%ADD45C,0.600000*%
%TD*%
%TA.AperFunction,Conductor*%
%ADD46C,0.300000*%
%TD*%
G04 APERTURE END LIST*
D10*
%TO.P,C24,1*%
%TO.N,DI4_DIV*%
X75840000Y-70475000D03*
%TO.P,C24,2*%
%TO.N,GND*%
X75840000Y-68925000D03*
%TD*%
D11*
%TO.P,R13,1*%
%TO.N,SWCLK*%
X81175000Y-80000000D03*
%TO.P,R13,2*%
%TO.N,SWD_CLK*%
X82825000Y-80000000D03*
%TD*%
D12*
%TO.P,R32,1*%
%TO.N,DO3_GATE*%
X44920000Y-68825000D03*
%TO.P,R32,2*%
%TO.N,GND*%
X44920000Y-67175000D03*
%TD*%
D13*
%TO.P,TP2,1*%
%TO.N,VFIELD*%
X62400000Y-83000000D03*
%TD*%
D14*
%TO.P,C8,1*%
%TO.N,+5V*%
X72725000Y-93000000D03*
%TO.P,C8,2*%
%TO.N,GND*%
X74275000Y-93000000D03*
%TD*%
D15*
%TO.P,D2,1*%
%TO.N,BLOCK_G*%
X50350000Y-93500000D03*
%TO.P,D2,2*%
%TO.N,GND*%
X53650000Y-93500000D03*
%TD*%
D14*
%TO.P,C2,1*%
%TO.N,V24*%
X48225000Y-89000000D03*
%TO.P,C2,2*%
%TO.N,GND*%
X49775000Y-89000000D03*
%TD*%
D16*
%TO.P,R2,1*%
%TO.N,+5V*%
X57825000Y-101400000D03*
%TO.P,R2,2*%
%TO.N,FB*%
X56175000Y-101400000D03*
%TD*%
D12*
%TO.P,R23,1*%
%TO.N,DI2_DIV*%
X86000000Y-73925000D03*
%TO.P,R23,2*%
%TO.N,DI2_IN*%
X86000000Y-72275000D03*
%TD*%
D10*
%TO.P,C20,1*%
%TO.N,TERM_SPLIT*%
X106580000Y-87275000D03*
%TO.P,C20,2*%
%TO.N,GND*%
X106580000Y-85725000D03*
%TD*%
D14*
%TO.P,C3,1*%
%TO.N,BOOT*%
X62225000Y-95000000D03*
%TO.P,C3,2*%
%TO.N,SW_NODE*%
X63775000Y-95000000D03*
%TD*%
D17*
%TO.P,J2,1*%
%TO.N,GND*%
X84920000Y-104500000D03*
D18*
%TO.P,J2,2*%
%TO.N,CANL*%
X90000000Y-104500000D03*
%TO.P,J2,3*%
%TO.N,CANH*%
X95080000Y-104500000D03*
%TD*%
D12*
%TO.P,R20,1*%
%TO.N,DI3_DIV*%
X80920000Y-63725000D03*
%TO.P,R20,2*%
%TO.N,GND*%
X80920000Y-62075000D03*
%TD*%
D11*
%TO.P,R5,1*%
%TO.N,EN*%
X54175000Y-96000000D03*
%TO.P,R5,2*%
%TO.N,GND*%
X55825000Y-96000000D03*
%TD*%
D14*
%TO.P,C12,1*%
%TO.N,+3V3*%
X74725000Y-79000000D03*
%TO.P,C12,2*%
%TO.N,GND*%
X76275000Y-79000000D03*
%TD*%
D17*
%TO.P,J4,1*%
%TO.N,GND*%
X96160000Y-49500000D03*
D18*
%TO.P,J4,2*%
%TO.N,DI1*%
X91080000Y-49500000D03*
%TO.P,J4,3*%
%TO.N,DI2*%
X86000000Y-49500000D03*
%TO.P,J4,4*%
%TO.N,DI3*%
X80920000Y-49500000D03*
%TO.P,J4,5*%
%TO.N,DI4*%
X75840000Y-49500000D03*
%TD*%
D19*
%TO.P,C6,1*%
%TO.N,+5V*%
X72050000Y-104800000D03*
%TO.P,C6,2*%
%TO.N,GND*%
X73950000Y-104800000D03*
%TD*%
D20*
%TO.P,U1,1*%
%TO.N,+3V3*%
X64325000Y-73200000D03*
%TO.P,U1,2*%
%TO.N,XIN*%
X64325000Y-74000000D03*
%TO.P,U1,3*%
%TO.N,XOUT*%
X64325000Y-74800000D03*
%TO.P,U1,4*%
%TO.N,NRST*%
X64325000Y-75600000D03*
%TO.P,U1,5*%
%TO.N,DO1_DRV*%
X64325000Y-76400000D03*
%TO.P,U1,6*%
%TO.N,DO2_DRV*%
X64325000Y-77200000D03*
%TO.P,U1,7*%
%TO.N,DO3_DRV*%
X64325000Y-78000000D03*
%TO.P,U1,8*%
%TO.N,DO4_DRV*%
X64325000Y-78800000D03*
D21*
%TO.P,U1,9*%
%TO.N,CAN_STB*%
X65700000Y-80175000D03*
%TO.P,U1,10*%
%TO.N,STATUS*%
X66500000Y-80175000D03*
%TO.P,U1,11*%
%TO.N,unconnected-(U1-PA6-Pad11)*%
X67300000Y-80175000D03*
%TO.P,U1,12*%
%TO.N,unconnected-(U1-PA7-Pad12)*%
X68100000Y-80175000D03*
%TO.P,U1,13*%
%TO.N,unconnected-(U1-PB0-Pad13)*%
X68900000Y-80175000D03*
%TO.P,U1,14*%
%TO.N,GND*%
X69700000Y-80175000D03*
%TO.P,U1,15*%
%TO.N,+3V3*%
X70500000Y-80175000D03*
%TO.P,U1,16*%
%TO.N,GND*%
X71300000Y-80175000D03*
D20*
%TO.P,U1,17*%
%TO.N,+3V3*%
X72675000Y-78800000D03*
%TO.P,U1,18*%
%TO.N,DI1_IN*%
X72675000Y-78000000D03*
%TO.P,U1,19*%
%TO.N,unconnected-(U1-PA9-Pad19)*%
X72675000Y-77200000D03*
%TO.P,U1,20*%
%TO.N,unconnected-(U1-PA10-Pad20)*%
X72675000Y-76400000D03*
%TO.P,U1,21*%
%TO.N,CAN_RXD*%
X72675000Y-75600000D03*
%TO.P,U1,22*%
%TO.N,CAN_TXD*%
X72675000Y-74800000D03*
%TO.P,U1,23*%
%TO.N,SWDIO*%
X72675000Y-74000000D03*
%TO.P,U1,24*%
%TO.N,SWCLK*%
X72675000Y-73200000D03*
D21*
%TO.P,U1,25*%
%TO.N,unconnected-(U1-PA15-Pad25)*%
X71300000Y-71825000D03*
%TO.P,U1,26*%
%TO.N,DI2_IN*%
X70500000Y-71825000D03*
%TO.P,U1,27*%
%TO.N,unconnected-(U1-PB4-Pad27)*%
X69700000Y-71825000D03*
%TO.P,U1,28*%
%TO.N,DI3_IN*%
X68900000Y-71825000D03*
%TO.P,U1,29*%
%TO.N,unconnected-(U1-PB6-Pad29)*%
X68100000Y-71825000D03*
%TO.P,U1,30*%
%TO.N,DI4_IN*%
X67300000Y-71825000D03*
%TO.P,U1,31*%
%TO.N,BOOT0*%
X66500000Y-71825000D03*
%TO.P,U1,32*%
%TO.N,GND*%
X65700000Y-71825000D03*
%TD*%
D14*
%TO.P,C10,1*%
%TO.N,+3V3*%
X77725000Y-84500000D03*
%TO.P,C10,2*%
%TO.N,GND*%
X79275000Y-84500000D03*
%TD*%
D22*
%TO.P,U2,1*%
%TO.N,CAN_TXD*%
X94444999Y-78525000D03*
%TO.P,U2,2*%
%TO.N,GND*%
X93174999Y-78525000D03*
%TO.P,U2,3*%
%TO.N,+5V*%
X91904999Y-78525000D03*
%TO.P,U2,4*%
%TO.N,CAN_RXD*%
X90634999Y-78525000D03*
%TO.P,U2,5*%
%TO.N,+3V3*%
X90634999Y-83475000D03*
%TO.P,U2,6*%
%TO.N,CANL*%
X91904999Y-83475000D03*
%TO.P,U2,7*%
%TO.N,CANH*%
X93174999Y-83475000D03*
%TO.P,U2,8*%
%TO.N,CAN_STB*%
X94444999Y-83475000D03*
%TD*%
D23*
%TO.P,D9,1*%
%TO.N,DO1*%
X55080000Y-59500000D03*
%TO.P,D9,2*%
%TO.N,GND*%
X58280000Y-59500000D03*
%TD*%
D24*
%TO.P,F1,1*%
%TO.N,V24*%
X66500000Y-93000000D03*
%TO.P,F1,2*%
%TO.N,VFIELD*%
X66500000Y-88000000D03*
%TD*%
D12*
%TO.P,R30,1*%
%TO.N,DO1_GATE*%
X55080000Y-68825000D03*
%TO.P,R30,2*%
%TO.N,GND*%
X55080000Y-67175000D03*
%TD*%
%TO.P,R31,1*%
%TO.N,DO2_GATE*%
X50000000Y-68825000D03*
%TO.P,R31,2*%
%TO.N,GND*%
X50000000Y-67175000D03*
%TD*%
D14*
%TO.P,C16,1*%
%TO.N,XIN*%
X57725000Y-73000000D03*
%TO.P,C16,2*%
%TO.N,GND*%
X59275000Y-73000000D03*
%TD*%
D13*
%TO.P,TP3,1*%
%TO.N,+5V*%
X69800000Y-92400000D03*
%TD*%
D23*
%TO.P,D10,1*%
%TO.N,DO2*%
X50000000Y-59500000D03*
%TO.P,D10,2*%
%TO.N,GND*%
X53200000Y-59500000D03*
%TD*%
D25*
%TO.P,Q5,1*%
%TO.N,DO4_GATE*%
X38890000Y-64937500D03*
%TO.P,Q5,2*%
%TO.N,GND*%
X40790000Y-64937500D03*
%TO.P,Q5,3*%
%TO.N,DO4*%
X39840000Y-63062500D03*
%TD*%
D23*
%TO.P,D12,1*%
%TO.N,DO4*%
X39840000Y-59500000D03*
%TO.P,D12,2*%
%TO.N,GND*%
X43040000Y-59500000D03*
%TD*%
D12*
%TO.P,R22,1*%
%TO.N,DI1_DIV*%
X91080000Y-73925000D03*
%TO.P,R22,2*%
%TO.N,DI1_IN*%
X91080000Y-72275000D03*
%TD*%
D15*
%TO.P,D8,1*%
%TO.N,+3V3*%
X72540000Y-66300000D03*
%TO.P,D8,2*%
%TO.N,DI4_DIV*%
X75840000Y-66300000D03*
%TD*%
D26*
%TO.P,R9,1*%
%TO.N,CANH*%
X94977500Y-91000000D03*
%TO.P,R9,2*%
%TO.N,TERM_H*%
X100902500Y-91000000D03*
%TD*%
D12*
%TO.P,R21,1*%
%TO.N,DI4_DIV*%
X75840000Y-63725000D03*
%TO.P,R21,2*%
%TO.N,GND*%
X75840000Y-62075000D03*
%TD*%
D13*
%TO.P,TP1,1*%
%TO.N,V24*%
X34500000Y-100000000D03*
%TD*%
D12*
%TO.P,R15,1*%
%TO.N,DI2*%
X86000000Y-60325000D03*
%TO.P,R15,2*%
%TO.N,DI2_DIV*%
X86000000Y-58675000D03*
%TD*%
D14*
%TO.P,C15,1*%
%TO.N,NRST*%
X64225000Y-70000000D03*
%TO.P,C15,2*%
%TO.N,GND*%
X65775000Y-70000000D03*
%TD*%
%TO.P,C14,1*%
%TO.N,+3V3*%
X70225000Y-82500000D03*
%TO.P,C14,2*%
%TO.N,GND*%
X71775000Y-82500000D03*
%TD*%
%TO.P,C19,1*%
%TO.N,+3V3*%
X95264999Y-76000000D03*
%TO.P,C19,2*%
%TO.N,GND*%
X96814999Y-76000000D03*
%TD*%
D12*
%TO.P,R16,1*%
%TO.N,DI3*%
X80920000Y-60325000D03*
%TO.P,R16,2*%
%TO.N,DI3_DIV*%
X80920000Y-58675000D03*
%TD*%
%TO.P,R14,1*%
%TO.N,DI1*%
X91080000Y-60325000D03*
%TO.P,R14,2*%
%TO.N,DI1_DIV*%
X91080000Y-58675000D03*
%TD*%
D25*
%TO.P,Q4,1*%
%TO.N,DO3_GATE*%
X43970000Y-64937500D03*
%TO.P,Q4,2*%
%TO.N,GND*%
X45870000Y-64937500D03*
%TO.P,Q4,3*%
%TO.N,DO3*%
X44920000Y-63062500D03*
%TD*%
D11*
%TO.P,R12,1*%
%TO.N,SWDIO*%
X81175000Y-77000000D03*
%TO.P,R12,2*%
%TO.N,SWD_DIO*%
X82825000Y-77000000D03*
%TD*%
D27*
%TO.P,C1,1*%
%TO.N,V24*%
X38800000Y-91500000D03*
%TO.P,C1,2*%
%TO.N,GND*%
X44200000Y-91500000D03*
%TD*%
D12*
%TO.P,R7,1*%
%TO.N,BOOT0*%
X70000000Y-68325000D03*
%TO.P,R7,2*%
%TO.N,GND*%
X70000000Y-66675000D03*
%TD*%
D10*
%TO.P,C22,1*%
%TO.N,DI2_DIV*%
X86000000Y-70475000D03*
%TO.P,C22,2*%
%TO.N,GND*%
X86000000Y-68925000D03*
%TD*%
D23*
%TO.P,D11,1*%
%TO.N,DO3*%
X44919999Y-59500000D03*
%TO.P,D11,2*%
%TO.N,GND*%
X48119999Y-59500000D03*
%TD*%
D13*
%TO.P,TP5,1*%
%TO.N,GND*%
X54000000Y-83500000D03*
%TD*%
D28*
%TO.P,D1,1*%
%TO.N,RTN*%
X51000000Y-104500000D03*
%TO.P,D1,2*%
%TO.N,V24*%
X55000000Y-104500000D03*
%TD*%
D19*
%TO.P,C7,1*%
%TO.N,+5V*%
X72050000Y-101800000D03*
%TO.P,C7,2*%
%TO.N,GND*%
X73950000Y-101800000D03*
%TD*%
D29*
%TO.P,U4,1*%
%TO.N,GND*%
X72050000Y-86000000D03*
D30*
%TO.P,U4,2*%
%TO.N,+5V*%
X72137500Y-87500000D03*
D29*
%TO.P,U4,3*%
%TO.N,+3V3*%
X72050000Y-89000000D03*
%TD*%
D12*
%TO.P,R29,1*%
%TO.N,DO4_DRV*%
X39840000Y-72325000D03*
%TO.P,R29,2*%
%TO.N,DO4_GATE*%
X39840000Y-70675000D03*
%TD*%
D15*
%TO.P,D7,1*%
%TO.N,+3V3*%
X77620000Y-66300000D03*
%TO.P,D7,2*%
%TO.N,DI3_DIV*%
X80920000Y-66300000D03*
%TD*%
D11*
%TO.P,R6,1*%
%TO.N,+3V3*%
X73175000Y-84000000D03*
%TO.P,R6,2*%
%TO.N,GND*%
X74825000Y-84000000D03*
%TD*%
D13*
%TO.P,TP8,1*%
%TO.N,CAN_TXD*%
X85000000Y-77000000D03*
%TD*%
D31*
%TO.P,D4,1*%
%TO.N,CANH*%
X93189999Y-95112500D03*
%TO.P,D4,2*%
%TO.N,CANL*%
X91889999Y-95112500D03*
%TO.P,D4,3*%
%TO.N,GND*%
X92539999Y-96887500D03*
%TD*%
D14*
%TO.P,C17,1*%
%TO.N,XOUT*%
X57725000Y-81000000D03*
%TO.P,C17,2*%
%TO.N,GND*%
X59275000Y-81000000D03*
%TD*%
D32*
%TO.P,C5,1*%
%TO.N,V24*%
X64025000Y-105200000D03*
%TO.P,C5,2*%
%TO.N,GND*%
X66975000Y-105200000D03*
%TD*%
D33*
%TO.P,D13,1*%
%TO.N,GND*%
X53712500Y-85500000D03*
%TO.P,D13,2*%
%TO.N,LED_A*%
X55287500Y-85500000D03*
%TD*%
D12*
%TO.P,R18,1*%
%TO.N,DI1_DIV*%
X91080000Y-63725000D03*
%TO.P,R18,2*%
%TO.N,GND*%
X91080000Y-62075000D03*
%TD*%
D14*
%TO.P,C11,1*%
%TO.N,+3V3*%
X65225000Y-67500000D03*
%TO.P,C11,2*%
%TO.N,GND*%
X66775000Y-67500000D03*
%TD*%
D12*
%TO.P,R25,1*%
%TO.N,DI4_DIV*%
X75840000Y-73925000D03*
%TO.P,R25,2*%
%TO.N,DI4_IN*%
X75840000Y-72275000D03*
%TD*%
%TO.P,R24,1*%
%TO.N,DI3_DIV*%
X80920000Y-73925000D03*
%TO.P,R24,2*%
%TO.N,DI3_IN*%
X80920000Y-72275000D03*
%TD*%
D14*
%TO.P,C18,1*%
%TO.N,+5V*%
X88264999Y-76000000D03*
%TO.P,C18,2*%
%TO.N,GND*%
X89814999Y-76000000D03*
%TD*%
D12*
%TO.P,R17,1*%
%TO.N,DI4*%
X75840000Y-60325000D03*
%TO.P,R17,2*%
%TO.N,DI4_DIV*%
X75840000Y-58675000D03*
%TD*%
D15*
%TO.P,D5,1*%
%TO.N,+3V3*%
X87780000Y-66300000D03*
%TO.P,D5,2*%
%TO.N,DI1_DIV*%
X91080000Y-66300000D03*
%TD*%
D17*
%TO.P,J1,1*%
%TO.N,V24*%
X40460000Y-104500000D03*
D18*
%TO.P,J1,2*%
%TO.N,RTN*%
X45540000Y-104500000D03*
%TD*%
D10*
%TO.P,C23,1*%
%TO.N,DI3_DIV*%
X80920000Y-70475000D03*
%TO.P,C23,2*%
%TO.N,GND*%
X80920000Y-68925000D03*
%TD*%
D34*
%TO.P,L1,1*%
%TO.N,SW_NODE*%
X71300000Y-97650000D03*
%TO.P,L1,2*%
%TO.N,+5V*%
X75700000Y-97650000D03*
%TD*%
D19*
%TO.P,C9,1*%
%TO.N,+3V3*%
X77550000Y-87500000D03*
%TO.P,C9,2*%
%TO.N,GND*%
X79450000Y-87500000D03*
%TD*%
D12*
%TO.P,R26,1*%
%TO.N,DO1_DRV*%
X55080000Y-72325000D03*
%TO.P,R26,2*%
%TO.N,DO1_GATE*%
X55080000Y-70675000D03*
%TD*%
%TO.P,R19,1*%
%TO.N,DI2_DIV*%
X86000000Y-63725000D03*
%TO.P,R19,2*%
%TO.N,GND*%
X86000000Y-62075000D03*
%TD*%
D35*
%TO.P,J5,1*%
%TO.N,+3V3*%
X108000000Y-70000000D03*
D36*
%TO.P,J5,2*%
%TO.N,SWD_DIO*%
X108000000Y-72540000D03*
%TO.P,J5,3*%
%TO.N,SWD_CLK*%
X108000000Y-75080000D03*
%TO.P,J5,4*%
%TO.N,NRST*%
X108000000Y-77620000D03*
%TO.P,J5,5*%
%TO.N,GND*%
X108000000Y-80160000D03*
%TD*%
D32*
%TO.P,C4,1*%
%TO.N,V24*%
X58525000Y-105200000D03*
%TO.P,C4,2*%
%TO.N,GND*%
X61475000Y-105200000D03*
%TD*%
D13*
%TO.P,TP7,1*%
%TO.N,CANL*%
X86039999Y-86500000D03*
%TD*%
D11*
%TO.P,R1,1*%
%TO.N,V24*%
X46175000Y-93500000D03*
%TO.P,R1,2*%
%TO.N,BLOCK_G*%
X47825000Y-93500000D03*
%TD*%
D13*
%TO.P,TP4,1*%
%TO.N,+3V3*%
X54000000Y-79500000D03*
%TD*%
D11*
%TO.P,R3,1*%
%TO.N,FB*%
X52675000Y-101400000D03*
%TO.P,R3,2*%
%TO.N,GND*%
X54325000Y-101400000D03*
%TD*%
D28*
%TO.P,D3,1*%
%TO.N,SW_NODE*%
X64000000Y-101000000D03*
%TO.P,D3,2*%
%TO.N,GND*%
X68000000Y-101000000D03*
%TD*%
D13*
%TO.P,TP9,1*%
%TO.N,CAN_RXD*%
X85000000Y-80500000D03*
%TD*%
D15*
%TO.P,D6,1*%
%TO.N,+3V3*%
X82700000Y-66300000D03*
%TO.P,D6,2*%
%TO.N,DI2_DIV*%
X86000000Y-66300000D03*
%TD*%
D13*
%TO.P,TP6,1*%
%TO.N,CANH*%
X99039999Y-86500000D03*
%TD*%
D37*
%TO.P,R10,1*%
%TO.N,CANL*%
X90102500Y-91000000D03*
%TO.P,R10,2*%
%TO.N,TERM_L*%
X84177500Y-91000000D03*
%TD*%
D11*
%TO.P,R11,1*%
%TO.N,STATUS*%
X49175000Y-85500000D03*
%TO.P,R11,2*%
%TO.N,LED_A*%
X50825000Y-85500000D03*
%TD*%
D17*
%TO.P,J3,1*%
%TO.N,VFIELD*%
X60160000Y-49500000D03*
D18*
%TO.P,J3,2*%
%TO.N,DO1*%
X55080000Y-49500000D03*
%TO.P,J3,3*%
%TO.N,DO2*%
X50000000Y-49500000D03*
%TO.P,J3,4*%
%TO.N,DO3*%
X44920000Y-49500000D03*
%TO.P,J3,5*%
%TO.N,DO4*%
X39840000Y-49500000D03*
%TD*%
D25*
%TO.P,Q2,1*%
%TO.N,DO1_GATE*%
X54130000Y-64937500D03*
%TO.P,Q2,2*%
%TO.N,GND*%
X56030000Y-64937500D03*
%TO.P,Q2,3*%
%TO.N,DO1*%
X55080000Y-63062500D03*
%TD*%
D12*
%TO.P,R33,1*%
%TO.N,DO4_GATE*%
X39840000Y-68825000D03*
%TO.P,R33,2*%
%TO.N,GND*%
X39840000Y-67175000D03*
%TD*%
%TO.P,R28,1*%
%TO.N,DO3_DRV*%
X44920000Y-72325000D03*
%TO.P,R28,2*%
%TO.N,DO3_GATE*%
X44920000Y-70675000D03*
%TD*%
D35*
%TO.P,J7,1*%
%TO.N,TERM_L*%
X81039999Y-91000000D03*
D36*
%TO.P,J7,2*%
%TO.N,TERM_SPLIT*%
X78499999Y-91000000D03*
%TD*%
D38*
%TO.P,Q1,1*%
%TO.N,BLOCK_G*%
X49562500Y-96050000D03*
%TO.P,Q1,2*%
%TO.N,GND*%
X49562500Y-97950000D03*
%TO.P,Q1,3*%
%TO.N,RTN*%
X51437500Y-97000000D03*
%TD*%
D12*
%TO.P,R27,1*%
%TO.N,DO2_DRV*%
X50000000Y-72325000D03*
%TO.P,R27,2*%
%TO.N,DO2_GATE*%
X50000000Y-70675000D03*
%TD*%
D39*
%TO.P,Y1,1*%
%TO.N,XIN*%
X56650000Y-78100000D03*
%TO.P,Y1,2*%
%TO.N,GND*%
X60350000Y-78100000D03*
%TO.P,Y1,3*%
%TO.N,XOUT*%
X60350000Y-75900000D03*
%TO.P,Y1,4*%
%TO.N,GND*%
X56650000Y-75900000D03*
%TD*%
D11*
%TO.P,R4,1*%
%TO.N,V24*%
X54175000Y-99000000D03*
%TO.P,R4,2*%
%TO.N,EN*%
X55825000Y-99000000D03*
%TD*%
D35*
%TO.P,J6,1*%
%TO.N,TERM_H*%
X104039999Y-91000000D03*
D36*
%TO.P,J6,2*%
%TO.N,TERM_SPLIT*%
X106579999Y-91000000D03*
%TD*%
D25*
%TO.P,Q3,1*%
%TO.N,DO2_GATE*%
X49050000Y-64937500D03*
%TO.P,Q3,2*%
%TO.N,GND*%
X50950000Y-64937500D03*
%TO.P,Q3,3*%
%TO.N,DO2*%
X50000000Y-63062500D03*
%TD*%
D14*
%TO.P,C13,1*%
%TO.N,+3V3*%
X66225000Y-82500000D03*
%TO.P,C13,2*%
%TO.N,GND*%
X67775000Y-82500000D03*
%TD*%
D11*
%TO.P,R8,1*%
%TO.N,CAN_STB*%
X97714999Y-81000000D03*
%TO.P,R8,2*%
%TO.N,GND*%
X99364999Y-81000000D03*
%TD*%
D40*
%TO.P,U3,1*%
%TO.N,BOOT*%
X58862500Y-97650000D03*
%TO.P,U3,2*%
%TO.N,GND*%
X58862500Y-98600000D03*
%TO.P,U3,3*%
%TO.N,FB*%
X58862500Y-99550000D03*
%TO.P,U3,4*%
%TO.N,EN*%
X61137500Y-99550000D03*
%TO.P,U3,5*%
%TO.N,V24*%
X61137500Y-98600000D03*
%TO.P,U3,6*%
%TO.N,SW_NODE*%
X61137500Y-97650000D03*
%TD*%
D10*
%TO.P,C21,1*%
%TO.N,DI1_DIV*%
X91080000Y-70475000D03*
%TO.P,C21,2*%
%TO.N,GND*%
X91080000Y-68925000D03*
%TD*%
D41*
%TO.N,DI4_DIV*%
X74700000Y-66400000D03*
X73800000Y-69500000D03*
X74800000Y-64500000D03*
X74700000Y-72800000D03*
%TO.N,GND*%
X74275000Y-94224999D03*
X67775000Y-83724999D03*
X65775000Y-68775001D03*
X66975000Y-106850000D03*
X73950000Y-103274999D03*
X74615001Y-62075000D03*
X74825000Y-85224999D03*
X96814999Y-77224999D03*
X84775001Y-62075000D03*
X47357500Y-64937500D03*
X58280000Y-60849999D03*
X89814999Y-77224999D03*
X79275000Y-85724999D03*
X57517500Y-64937500D03*
X66775000Y-68724999D03*
X61475000Y-103550000D03*
X49562500Y-99437500D03*
X76275000Y-80224999D03*
X59275000Y-82224999D03*
X79450000Y-88974999D03*
X38615001Y-67175000D03*
X71775000Y-83724999D03*
X43695001Y-67175000D03*
X53712500Y-86724999D03*
X79695001Y-62075000D03*
X79695001Y-68925000D03*
X68775001Y-66675000D03*
X55825000Y-97224999D03*
X54325000Y-102624999D03*
X42277500Y-64937500D03*
X89855001Y-68925000D03*
X92539999Y-98100000D03*
X72050000Y-84600000D03*
X65700000Y-73325000D03*
X48775001Y-67175000D03*
X89855001Y-62075000D03*
X99364999Y-82224999D03*
X74615001Y-68925000D03*
X57450001Y-98600000D03*
X48119999Y-60849999D03*
X93174999Y-76800001D03*
X73950000Y-106274999D03*
X43040000Y-60849999D03*
X68000000Y-103000000D03*
X105355001Y-85725000D03*
X54000000Y-82250000D03*
X52437500Y-64937500D03*
X60350000Y-79850000D03*
X84775001Y-68925000D03*
X59275000Y-74224999D03*
X56650000Y-74150000D03*
X53650000Y-94849999D03*
X53855001Y-67175000D03*
X49775000Y-90224999D03*
X69700000Y-78675000D03*
X71300000Y-78675000D03*
X44200000Y-94000000D03*
X53200000Y-60849999D03*
%TO.N,SWCLK*%
X77700000Y-78800000D03*
X74100000Y-74000000D03*
%TO.N,SWD_CLK*%
X89700000Y-79700000D03*
X84800000Y-78200000D03*
%TO.N,VFIELD*%
X62400000Y-80000000D03*
X62400000Y-68500000D03*
%TO.N,+5V*%
X89200000Y-78000000D03*
X92000000Y-76900000D03*
X76100000Y-85800000D03*
%TO.N,DI2_DIV*%
X84900000Y-66600000D03*
X84100000Y-68200000D03*
X87200000Y-72200000D03*
X87200000Y-70600000D03*
%TO.N,DI2_IN*%
X83500000Y-71500000D03*
X84900000Y-73000000D03*
%TO.N,DI3_DIV*%
X79900000Y-64500000D03*
X82100000Y-69100000D03*
X79800000Y-66400000D03*
X77000000Y-72200000D03*
%TO.N,EN*%
X56700000Y-99900000D03*
X60000000Y-100300000D03*
%TO.N,+3V3*%
X64800000Y-72300000D03*
X68700000Y-81600000D03*
X64800000Y-68800000D03*
X86800000Y-65200000D03*
X92600000Y-81900000D03*
X95500000Y-79200000D03*
X56200000Y-82300000D03*
X64100000Y-86900000D03*
X63600000Y-66700000D03*
X85200000Y-65200000D03*
%TO.N,XIN*%
X61300000Y-66400000D03*
X68800000Y-73900000D03*
%TO.N,XOUT*%
X58600000Y-76200000D03*
X58600000Y-77900000D03*
X65800000Y-75900000D03*
%TO.N,DO4_DRV*%
X61200000Y-82800000D03*
X63500000Y-82100000D03*
%TO.N,CAN_STB*%
X98400000Y-82100000D03*
X65800000Y-77800000D03*
X67900000Y-77800000D03*
X95400000Y-83700000D03*
X64800000Y-80100000D03*
X73700000Y-81800000D03*
X89300000Y-83700000D03*
%TO.N,STATUS*%
X61300000Y-85200000D03*
X65900000Y-78700000D03*
%TO.N,DI1_IN*%
X82100000Y-73700000D03*
X80100000Y-76400000D03*
%TO.N,CAN_TXD*%
X89900000Y-74200000D03*
X83900000Y-76400000D03*
X83900000Y-74800000D03*
X91600000Y-75700000D03*
%TO.N,SWDIO*%
X71300000Y-76500000D03*
X80900000Y-78500000D03*
%TO.N,DI3_IN*%
X79700000Y-72200000D03*
X79200000Y-70600000D03*
%TO.N,DI4_IN*%
X72200000Y-72200000D03*
X71200000Y-73200000D03*
%TO.N,DO1_GATE*%
X56300000Y-69300000D03*
X56300000Y-71000000D03*
%TO.N,DO2_GATE*%
X51200000Y-71300000D03*
X51200000Y-69300000D03*
%TO.N,DI1_DIV*%
X92200000Y-68200000D03*
X92200000Y-66600000D03*
%TO.N,SWD_DIO*%
X104800000Y-79400000D03*
X84100000Y-81300000D03*
X104800000Y-77200000D03*
X83000000Y-78800000D03*
%TD*%
%TO.N,DI4_DIV*%
D42*
X75600000Y-73200000D02*
X75800000Y-73400000D01*
X75800000Y-73900000D02*
X75840000Y-73925000D01*
X75800000Y-58700000D02*
X75800000Y-58800000D01*
X74700000Y-66400000D02*
X75840000Y-66300000D01*
X75600000Y-63700000D02*
X74800000Y-64500000D01*
X75800000Y-63700000D02*
X75840000Y-63725000D01*
X75800000Y-73400000D02*
X75800000Y-73900000D01*
X75800000Y-63600000D02*
X75800000Y-63700000D01*
X75800000Y-63700000D02*
X75600000Y-63700000D01*
X74800000Y-70500000D02*
X75800000Y-70500000D01*
X75840000Y-58675000D02*
X75800000Y-58700000D01*
X75300000Y-73200000D02*
X75600000Y-73200000D01*
X76800000Y-59800000D02*
X76800000Y-62600000D01*
X73800000Y-69500000D02*
X74800000Y-70500000D01*
X76800000Y-62600000D02*
X75800000Y-63600000D01*
X75800000Y-70500000D02*
X75840000Y-70475000D01*
X75800000Y-58800000D02*
X76800000Y-59800000D01*
X74700000Y-72800000D02*
X75300000Y-73200000D01*
%TO.N,GND*%
D43*
X49775000Y-89000000D02*
X49775000Y-90224999D01*
X92539999Y-96887500D02*
X92539999Y-98100000D01*
X56650000Y-75900000D02*
X56650000Y-74150000D01*
X55825000Y-96000000D02*
X55825000Y-97224999D01*
X73950000Y-101800000D02*
X73950000Y-103274999D01*
X73950000Y-104800000D02*
X73950000Y-106274999D01*
X96814999Y-76000000D02*
X96814999Y-77224999D01*
X74825000Y-84000000D02*
X74825000Y-85224999D01*
X49562500Y-97950000D02*
X49562500Y-99437500D01*
X99364999Y-81000000D02*
X99364999Y-82224999D01*
X58862500Y-98600000D02*
X57450001Y-98600000D01*
X50950000Y-64937500D02*
X52437500Y-64937500D01*
X54000000Y-83500000D02*
X54000000Y-82250000D01*
X86000000Y-62075000D02*
X84775001Y-62075000D01*
X75840000Y-68925000D02*
X74615001Y-68925000D01*
X79275000Y-84500000D02*
X79275000Y-85724999D01*
X44200000Y-91500000D02*
X44200000Y-94000000D01*
X39840000Y-67175000D02*
X38615001Y-67175000D01*
X91080000Y-68925000D02*
X89855001Y-68925000D01*
X55080000Y-67175000D02*
X53855001Y-67175000D01*
X45870000Y-64937500D02*
X47357500Y-64937500D01*
X66775000Y-67500000D02*
X66775000Y-68724999D01*
X89814999Y-76000000D02*
X89814999Y-77224999D01*
X91080000Y-62075000D02*
X89855001Y-62075000D01*
X53712500Y-85500000D02*
X53712500Y-86724999D01*
X48119999Y-59500000D02*
X48119999Y-60849999D01*
X72050000Y-86000000D02*
X72050000Y-84600000D01*
X80920000Y-68925000D02*
X79695001Y-68925000D01*
X67775000Y-82500000D02*
X67775000Y-83724999D01*
X60350000Y-78100000D02*
X60350000Y-79850000D01*
X80920000Y-62075000D02*
X79695001Y-62075000D01*
X70000000Y-66675000D02*
X68775001Y-66675000D01*
X71775000Y-82500000D02*
X71775000Y-83724999D01*
X54325000Y-101400000D02*
X54325000Y-102624999D01*
X59275000Y-81000000D02*
X59275000Y-82224999D01*
X56030000Y-64937500D02*
X57517500Y-64937500D01*
X43040000Y-59500000D02*
X43040000Y-60849999D01*
X76275000Y-79000000D02*
X76275000Y-80224999D01*
X75840000Y-62075000D02*
X74615001Y-62075000D01*
X74275000Y-93000000D02*
X74275000Y-94224999D01*
X44920000Y-67175000D02*
X43695001Y-67175000D01*
X65700000Y-71825000D02*
X65700000Y-73325000D01*
X86000000Y-68925000D02*
X84775001Y-68925000D01*
X58280000Y-59500000D02*
X58280000Y-60849999D01*
X50000000Y-67175000D02*
X48775001Y-67175000D01*
X53200000Y-59500000D02*
X53200000Y-60849999D01*
X71300000Y-80175000D02*
X71300000Y-78675000D01*
X61475000Y-105200000D02*
X61475000Y-103550000D01*
X93174999Y-78525000D02*
X93174999Y-76800001D01*
X106580000Y-85725000D02*
X105355001Y-85725000D01*
X53650000Y-93500000D02*
X53650000Y-94849999D01*
X79450000Y-87500000D02*
X79450000Y-88974999D01*
X66975000Y-105200000D02*
X66975000Y-106850000D01*
X68000000Y-101000000D02*
X68000000Y-103000000D01*
X65775000Y-70000000D02*
X65775000Y-68775001D01*
X40790000Y-64937500D02*
X42277500Y-64937500D01*
X59275000Y-73000000D02*
X59275000Y-74224999D01*
X69700000Y-80175000D02*
X69700000Y-78675000D01*
%TO.N,SWCLK*%
D42*
X81200000Y-80000000D02*
X80000000Y-78800000D01*
X74100000Y-74000000D02*
X73900000Y-73600000D01*
X81175000Y-80000000D02*
X81200000Y-80000000D01*
X73900000Y-73600000D02*
X73500000Y-73200000D01*
X80000000Y-78800000D02*
X77700000Y-78800000D01*
X73500000Y-73200000D02*
X72675000Y-73200000D01*
%TO.N,SWD_CLK*%
X82825000Y-80000000D02*
X82800000Y-80000000D01*
X83000000Y-80000000D02*
X84800000Y-78200000D01*
X103100000Y-80000000D02*
X108000000Y-75100000D01*
X89700000Y-79700000D02*
X90200000Y-80000000D01*
X90200000Y-80000000D02*
X103100000Y-80000000D01*
X82825000Y-80000000D02*
X83000000Y-80000000D01*
%TO.N,DO3_GATE*%
X45900000Y-67600000D02*
X45800000Y-67700000D01*
X44000000Y-64900000D02*
X45400000Y-66300000D01*
X44900000Y-70700000D02*
X44920000Y-70675000D01*
X45800000Y-67800000D02*
X44900000Y-68700000D01*
X44900000Y-68800000D02*
X44900000Y-70700000D01*
X44900000Y-68700000D02*
X44900000Y-68800000D01*
X43970000Y-64937500D02*
X44000000Y-64900000D01*
X45500000Y-66300000D02*
X45900000Y-66700000D01*
X45400000Y-66300000D02*
X45500000Y-66300000D01*
X45800000Y-67700000D02*
X45800000Y-67800000D01*
X44900000Y-68800000D02*
X44920000Y-68825000D01*
X45900000Y-66700000D02*
X45900000Y-67600000D01*
%TO.N,VFIELD*%
D44*
X62400000Y-49500000D02*
X60160000Y-49500000D01*
X62400000Y-68500000D02*
X62400000Y-49500000D01*
X62400000Y-88000000D02*
X62400000Y-83000000D01*
X62400000Y-83000000D02*
X62400000Y-80000000D01*
X66500000Y-88000000D02*
X62400000Y-88000000D01*
%TO.N,+5V*%
D42*
X75700000Y-97600000D02*
X75700000Y-97650000D01*
X57200000Y-107100000D02*
X57200000Y-102300000D01*
X71800000Y-90400000D02*
X72700000Y-91300000D01*
X73000000Y-93300000D02*
X73000000Y-94900000D01*
X72700000Y-93000000D02*
X73000000Y-93300000D01*
X72700000Y-93000000D02*
X72725000Y-93000000D01*
X71200000Y-104000000D02*
X67400000Y-107800000D01*
X67400000Y-107800000D02*
X57900000Y-107800000D01*
X70900000Y-89500000D02*
X71800000Y-90400000D01*
X88300000Y-76000000D02*
X88264999Y-76000000D01*
X71200000Y-104000000D02*
X72000000Y-104800000D01*
X71400000Y-88000000D02*
X70900000Y-88500000D01*
X57200000Y-102300000D02*
X57800000Y-101700000D01*
X72000000Y-101300000D02*
X72000000Y-101800000D01*
X89200000Y-78000000D02*
X88300000Y-77100000D01*
X72137500Y-87500000D02*
X72100000Y-87500000D01*
X88300000Y-77100000D02*
X88300000Y-76000000D01*
X71600000Y-88000000D02*
X71400000Y-88000000D01*
X70900000Y-88500000D02*
X70900000Y-89500000D01*
X72700000Y-91300000D02*
X72700000Y-93000000D01*
X72000000Y-103200000D02*
X71200000Y-104000000D01*
X72000000Y-101800000D02*
X72050000Y-101800000D01*
X76100000Y-86800000D02*
X76100000Y-85800000D01*
X92000000Y-76900000D02*
X91900000Y-78500000D01*
X72000000Y-104800000D02*
X72050000Y-104800000D01*
X57800000Y-101400000D02*
X57825000Y-101400000D01*
X72000000Y-101800000D02*
X72000000Y-103200000D01*
X91900000Y-78500000D02*
X91904999Y-78525000D01*
X57900000Y-107800000D02*
X57200000Y-107100000D01*
X57800000Y-101700000D02*
X57800000Y-101400000D01*
X72137500Y-87500000D02*
X76100000Y-86800000D01*
X73000000Y-94900000D02*
X75700000Y-97600000D01*
X75700000Y-97600000D02*
X72000000Y-101300000D01*
X72100000Y-87500000D02*
X71600000Y-88000000D01*
X71800000Y-90400000D02*
X69800000Y-92400000D01*
%TO.N,BLOCK_G*%
X50400000Y-93500000D02*
X50100000Y-93800000D01*
X49600000Y-96000000D02*
X49562500Y-96050000D01*
X50100000Y-93900000D02*
X49800000Y-94200000D01*
X49800000Y-94200000D02*
X49800000Y-96000000D01*
X50350000Y-93500000D02*
X50400000Y-93500000D01*
X49600000Y-93500000D02*
X47825000Y-93500000D01*
X49800000Y-93700000D02*
X49600000Y-93500000D01*
X47825000Y-93500000D02*
X47800000Y-93500000D01*
X50100000Y-93800000D02*
X50000000Y-93700000D01*
X50000000Y-93700000D02*
X49800000Y-93700000D01*
X49800000Y-96000000D02*
X49600000Y-96000000D01*
X50100000Y-93800000D02*
X50100000Y-93900000D01*
%TO.N,V24*%
D45*
X58525000Y-106600000D02*
X64025000Y-106600000D01*
X58525000Y-105200000D02*
X58525000Y-106600000D01*
X64025000Y-106600000D02*
X64025000Y-105200000D01*
%TO.N,FB*%
D42*
X56200000Y-101400000D02*
X54800000Y-100000000D01*
X56200000Y-101400000D02*
X56700000Y-100900000D01*
X57000000Y-100700000D02*
X57100000Y-100700000D01*
X56700000Y-100900000D02*
X56800000Y-100900000D01*
X54200000Y-100000000D02*
X52800000Y-101400000D01*
X52800000Y-101400000D02*
X52675000Y-101400000D01*
X56800000Y-100900000D02*
X57000000Y-100700000D01*
X57800000Y-100100000D02*
X58300000Y-99600000D01*
X58900000Y-99600000D02*
X58862500Y-99550000D01*
X57100000Y-100700000D02*
X57700000Y-100100000D01*
X54800000Y-100000000D02*
X54200000Y-100000000D01*
X57700000Y-100100000D02*
X57800000Y-100100000D01*
X56175000Y-101400000D02*
X56200000Y-101400000D01*
X58300000Y-99600000D02*
X58900000Y-99600000D01*
%TO.N,DI2_DIV*%
X86000000Y-63700000D02*
X86000000Y-63725000D01*
X83900000Y-69300000D02*
X85100000Y-70500000D01*
X86000000Y-70500000D02*
X86100000Y-70600000D01*
X86000000Y-70500000D02*
X86000000Y-70475000D01*
X84100000Y-68200000D02*
X83900000Y-69300000D01*
X87000000Y-62500000D02*
X86000000Y-63500000D01*
X87000000Y-59900000D02*
X87000000Y-62500000D01*
X85100000Y-70500000D02*
X86000000Y-70500000D01*
X86000000Y-66300000D02*
X85700000Y-66600000D01*
X86000000Y-58675000D02*
X86000000Y-58900000D01*
X86100000Y-70600000D02*
X87200000Y-70600000D01*
X87200000Y-72200000D02*
X87000000Y-72700000D01*
X86000000Y-63725000D02*
X86000000Y-66300000D01*
X87000000Y-72700000D02*
X86000000Y-73700000D01*
X86000000Y-73700000D02*
X86000000Y-73925000D01*
X85700000Y-66600000D02*
X84900000Y-66600000D01*
X86000000Y-63500000D02*
X86000000Y-63700000D01*
X86000000Y-58900000D02*
X87000000Y-59900000D01*
%TO.N,DI2_IN*%
X70900000Y-70600000D02*
X71700000Y-70600000D01*
X70500000Y-71825000D02*
X70500000Y-71000000D01*
X72500000Y-71400000D02*
X83500000Y-71500000D01*
X70500000Y-71000000D02*
X70900000Y-70600000D01*
X85900000Y-72200000D02*
X85700000Y-72200000D01*
X71700000Y-70600000D02*
X72500000Y-71400000D01*
X86000000Y-72300000D02*
X85900000Y-72200000D01*
X86000000Y-72275000D02*
X86000000Y-72300000D01*
X85700000Y-72200000D02*
X84900000Y-73000000D01*
%TO.N,TERM_SPLIT*%
X106579999Y-91000000D02*
X106579999Y-87275000D01*
X106579999Y-107800000D02*
X106579999Y-91000000D01*
X78499999Y-91000000D02*
X78499999Y-107800000D01*
X78499999Y-107800000D02*
X106579999Y-107800000D01*
X106579999Y-87275000D02*
X106580000Y-87275000D01*
%TO.N,BOOT*%
X58862500Y-97650000D02*
X58900000Y-97600000D01*
X61500000Y-95000000D02*
X62225000Y-95000000D01*
X58900000Y-97600000D02*
X61500000Y-95000000D01*
%TO.N,SW_NODE*%
D45*
X64000000Y-97650000D02*
X64000000Y-101000000D01*
X64000000Y-97650000D02*
X71300000Y-97650000D01*
X61137500Y-97650000D02*
X63775000Y-97650000D01*
X63775000Y-97650000D02*
X63775000Y-95000000D01*
X63775000Y-97650000D02*
X64000000Y-97650000D01*
%TO.N,CANL*%
D46*
X91889999Y-91000000D02*
X90102500Y-91000000D01*
X91889999Y-95112500D02*
X91889999Y-91000000D01*
X91889999Y-86500000D02*
X91904999Y-83475000D01*
X90000000Y-104500000D02*
X91889999Y-95112500D01*
X91889999Y-91000000D02*
X91889999Y-86500000D01*
X91889999Y-86500000D02*
X86039999Y-86500000D01*
%TO.N,CANH*%
X95080000Y-104500000D02*
X93189999Y-95112500D01*
X93189999Y-91000000D02*
X94977500Y-91000000D01*
X93189999Y-86500000D02*
X99039999Y-86500000D01*
X93189999Y-91000000D02*
X93189999Y-86500000D01*
X93189999Y-95112500D02*
X93189999Y-91000000D01*
X93189999Y-86500000D02*
X93174999Y-83475000D01*
%TO.N,DI3_DIV*%
D42*
X80900000Y-70500000D02*
X80920000Y-70475000D01*
X80900000Y-58800000D02*
X81900000Y-59800000D01*
X82100000Y-69100000D02*
X81900000Y-69500000D01*
X78700000Y-73900000D02*
X80900000Y-73900000D01*
X81800000Y-62600000D02*
X81800000Y-62700000D01*
X79800000Y-66400000D02*
X80900000Y-66300000D01*
X80900000Y-63600000D02*
X80900000Y-63700000D01*
X80900000Y-63700000D02*
X80700000Y-63700000D01*
X80700000Y-63700000D02*
X79900000Y-64500000D01*
X80900000Y-58700000D02*
X80900000Y-58800000D01*
X80900000Y-63700000D02*
X80920000Y-63725000D01*
X81800000Y-62700000D02*
X80900000Y-63600000D01*
X77000000Y-72200000D02*
X78700000Y-73900000D01*
X81900000Y-62500000D02*
X81800000Y-62600000D01*
X81900000Y-69500000D02*
X81500000Y-69900000D01*
X80920000Y-58675000D02*
X80900000Y-58700000D01*
X80900000Y-70200000D02*
X80900000Y-70500000D01*
X80900000Y-73900000D02*
X80920000Y-73925000D01*
X81500000Y-69900000D02*
X81200000Y-69900000D01*
X81900000Y-59800000D02*
X81900000Y-62500000D01*
X81200000Y-69900000D02*
X80900000Y-70200000D01*
%TO.N,EN*%
X54200000Y-97400000D02*
X54200000Y-96000000D01*
X61100000Y-99600000D02*
X61137500Y-99550000D01*
X60000000Y-100300000D02*
X60700000Y-99600000D01*
X55825000Y-99000000D02*
X55800000Y-99000000D01*
X55800000Y-99000000D02*
X54200000Y-97400000D01*
X54200000Y-96000000D02*
X54175000Y-96000000D01*
X55800000Y-99000000D02*
X56700000Y-99900000D01*
X60700000Y-99600000D02*
X61100000Y-99600000D01*
%TO.N,+3V3*%
X66900000Y-65900000D02*
X67600000Y-65200000D01*
X66300000Y-82500000D02*
X66225000Y-82500000D01*
X95500000Y-76200000D02*
X95500000Y-79200000D01*
X81600000Y-65200000D02*
X82700000Y-66300000D01*
X76900000Y-84600000D02*
X76900000Y-87500000D01*
X77200000Y-84000000D02*
X77000000Y-84000000D01*
X68300000Y-81500000D02*
X67300000Y-81500000D01*
X64100000Y-66300000D02*
X64400000Y-66000000D01*
X64300000Y-73200000D02*
X64325000Y-73200000D01*
X72700000Y-79000000D02*
X74725000Y-79000000D01*
X71300000Y-81500000D02*
X71100000Y-81700000D01*
X95300000Y-76000000D02*
X95500000Y-76200000D01*
X73200000Y-82600000D02*
X73200000Y-82400000D01*
X76000000Y-89000000D02*
X72050000Y-89000000D01*
X92600000Y-81900000D02*
X91600000Y-81900000D01*
X79800000Y-83500000D02*
X78700000Y-83500000D01*
X71100000Y-81700000D02*
X70500000Y-81100000D01*
X75200000Y-65300000D02*
X75300000Y-65200000D01*
X79800000Y-65300000D02*
X80300000Y-65300000D01*
X64300000Y-72800000D02*
X64300000Y-73200000D01*
X77550000Y-87500000D02*
X77600000Y-87500000D01*
X76900000Y-87500000D02*
X77550000Y-87500000D01*
X63600000Y-66700000D02*
X64000000Y-66300000D01*
X73200000Y-82400000D02*
X72300000Y-81500000D01*
X73600000Y-83100000D02*
X73500000Y-83000000D01*
X76900000Y-87500000D02*
X76900000Y-88000000D01*
X72050000Y-89000000D02*
X72000000Y-89000000D01*
X71700000Y-65200000D02*
X72500000Y-66000000D01*
X91600000Y-81900000D02*
X90600000Y-82900000D01*
X54000000Y-80100000D02*
X54000000Y-79500000D01*
X72700000Y-81100000D02*
X72700000Y-79000000D01*
X78700000Y-83500000D02*
X77700000Y-84500000D01*
X64000000Y-66300000D02*
X64100000Y-66300000D01*
X76300000Y-84000000D02*
X75400000Y-83100000D01*
X95300000Y-76000000D02*
X101300000Y-70000000D01*
X77600000Y-66300000D02*
X78800000Y-66300000D01*
X77700000Y-84500000D02*
X77725000Y-84500000D01*
X77000000Y-84000000D02*
X76300000Y-84000000D01*
X64500000Y-66000000D02*
X64600000Y-65900000D01*
X70200000Y-82500000D02*
X69300000Y-82500000D01*
X67300000Y-81500000D02*
X66300000Y-82500000D01*
X80300000Y-65300000D02*
X80400000Y-65200000D01*
X77000000Y-84000000D02*
X77000000Y-84500000D01*
X75300000Y-65200000D02*
X76500000Y-65200000D01*
X72300000Y-81500000D02*
X71300000Y-81500000D01*
X56200000Y-82300000D02*
X54000000Y-80100000D01*
X66200000Y-82500000D02*
X64100000Y-84600000D01*
X72540000Y-66300000D02*
X73700000Y-66300000D01*
X90600000Y-82900000D02*
X90600000Y-83500000D01*
X69300000Y-82500000D02*
X68300000Y-81500000D01*
X76600000Y-88400000D02*
X76000000Y-89000000D01*
X76500000Y-65200000D02*
X77600000Y-66300000D01*
X64600000Y-65900000D02*
X66900000Y-65900000D01*
X71100000Y-81700000D02*
X70300000Y-82500000D01*
X72500000Y-66000000D02*
X72500000Y-66300000D01*
X77000000Y-84500000D02*
X76900000Y-84600000D01*
X82700000Y-66300000D02*
X83900000Y-66300000D01*
X80400000Y-65200000D02*
X81600000Y-65200000D01*
X70500000Y-81100000D02*
X70500000Y-80175000D01*
X74200000Y-83000000D02*
X73600000Y-83600000D01*
X75200000Y-83000000D02*
X74200000Y-83000000D01*
X72700000Y-78800000D02*
X72675000Y-78800000D01*
X95264999Y-76000000D02*
X95300000Y-76000000D01*
X73500000Y-83000000D02*
X73500000Y-82900000D01*
X72500000Y-66300000D02*
X72540000Y-66300000D01*
X87800000Y-66200000D02*
X87800000Y-66300000D01*
X101300000Y-70000000D02*
X108000000Y-70000000D01*
X66225000Y-82500000D02*
X66200000Y-82500000D01*
X89600000Y-84500000D02*
X80800000Y-84500000D01*
X77700000Y-84500000D02*
X77200000Y-84000000D01*
X73600000Y-83600000D02*
X73600000Y-83100000D01*
X80800000Y-84500000D02*
X79800000Y-83500000D01*
X64800000Y-68800000D02*
X65200000Y-68100000D01*
X76600000Y-88300000D02*
X76600000Y-88400000D01*
X64100000Y-84600000D02*
X64100000Y-86900000D01*
X74700000Y-65300000D02*
X75200000Y-65300000D01*
X70225000Y-82500000D02*
X70200000Y-82500000D01*
X90600000Y-83500000D02*
X90634999Y-83475000D01*
X83900000Y-66300000D02*
X85200000Y-65200000D01*
X76900000Y-88000000D02*
X76600000Y-88300000D01*
X72300000Y-81500000D02*
X72700000Y-81100000D01*
X87800000Y-66300000D02*
X87780000Y-66300000D01*
X67600000Y-65200000D02*
X71700000Y-65200000D01*
X86800000Y-65200000D02*
X87800000Y-66200000D01*
X75400000Y-83100000D02*
X75300000Y-83100000D01*
X73500000Y-82900000D02*
X73200000Y-82600000D01*
X73600000Y-83600000D02*
X73200000Y-84000000D01*
X75300000Y-83100000D02*
X75200000Y-83000000D01*
X65200000Y-67500000D02*
X65225000Y-67500000D01*
X64400000Y-66000000D02*
X64500000Y-66000000D01*
X90600000Y-83500000D02*
X89600000Y-84500000D01*
X73200000Y-84000000D02*
X73175000Y-84000000D01*
X70300000Y-82500000D02*
X70225000Y-82500000D01*
X64800000Y-72300000D02*
X64300000Y-72800000D01*
X73700000Y-66300000D02*
X74700000Y-65300000D01*
X78800000Y-66300000D02*
X79800000Y-65300000D01*
X65200000Y-68100000D02*
X65200000Y-67500000D01*
X72700000Y-79000000D02*
X72700000Y-78800000D01*
%TO.N,DI1*%
X91100000Y-60100000D02*
X91100000Y-60300000D01*
X91100000Y-49500000D02*
X92000000Y-50400000D01*
X91100000Y-60300000D02*
X91080000Y-60325000D01*
X92000000Y-59200000D02*
X91100000Y-60100000D01*
X92000000Y-50400000D02*
X92000000Y-59200000D01*
%TO.N,DI2*%
X86000000Y-60325000D02*
X86000000Y-60100000D01*
X85000000Y-50500000D02*
X86000000Y-49500000D01*
X86000000Y-60100000D02*
X85000000Y-59100000D01*
X85000000Y-59100000D02*
X85000000Y-50500000D01*
%TO.N,DI3*%
X80900000Y-49500000D02*
X80000000Y-50400000D01*
X80900000Y-60300000D02*
X80920000Y-60325000D01*
X80900000Y-60100000D02*
X80900000Y-60300000D01*
X80000000Y-59200000D02*
X80900000Y-60100000D01*
X80000000Y-50400000D02*
X80000000Y-59200000D01*
%TO.N,DI4*%
X74900000Y-50400000D02*
X74900000Y-59200000D01*
X75800000Y-60100000D02*
X75800000Y-60300000D01*
X75800000Y-49500000D02*
X74900000Y-50400000D01*
X75800000Y-60300000D02*
X75840000Y-60325000D01*
X74900000Y-59200000D02*
X75800000Y-60100000D01*
%TO.N,XIN*%
X53700000Y-72300000D02*
X54000000Y-72600000D01*
X53700000Y-70600000D02*
X51400000Y-70600000D01*
X57000000Y-73200000D02*
X57200000Y-73000000D01*
X54400000Y-78100000D02*
X56650000Y-78100000D01*
X56100000Y-70200000D02*
X55700000Y-69800000D01*
X68500000Y-74200000D02*
X68800000Y-73900000D01*
X54500000Y-69800000D02*
X53700000Y-70600000D01*
X53700000Y-70600000D02*
X53700000Y-72300000D01*
X65200000Y-74000000D02*
X65400000Y-74200000D01*
X54000000Y-72600000D02*
X54000000Y-72700000D01*
X49000000Y-72700000D02*
X54400000Y-78100000D01*
X64325000Y-74000000D02*
X64300000Y-74000000D01*
X57500000Y-70200000D02*
X56100000Y-70200000D01*
X54500000Y-73200000D02*
X57000000Y-73200000D01*
X54000000Y-72700000D02*
X54500000Y-73200000D01*
X49000000Y-70300000D02*
X49000000Y-72700000D01*
X55700000Y-69800000D02*
X54500000Y-69800000D01*
X57200000Y-73000000D02*
X57725000Y-73000000D01*
X49500000Y-69800000D02*
X49000000Y-70300000D01*
X65400000Y-74200000D02*
X68500000Y-74200000D01*
X64325000Y-74000000D02*
X65200000Y-74000000D01*
X61300000Y-66400000D02*
X57500000Y-70200000D01*
X51400000Y-70600000D02*
X50600000Y-69800000D01*
X50600000Y-69800000D02*
X49500000Y-69800000D01*
%TO.N,XOUT*%
X57700000Y-81000000D02*
X58600000Y-80100000D01*
X58600000Y-76200000D02*
X58900000Y-75900000D01*
X58900000Y-75900000D02*
X60350000Y-75900000D01*
X58600000Y-80100000D02*
X58600000Y-77900000D01*
X65200000Y-74800000D02*
X64325000Y-74800000D01*
X65800000Y-75900000D02*
X65800000Y-75400000D01*
X60350000Y-75900000D02*
X60400000Y-75900000D01*
X64325000Y-74800000D02*
X64300000Y-74800000D01*
X57725000Y-81000000D02*
X57700000Y-81000000D01*
X65800000Y-75400000D02*
X65200000Y-74800000D01*
%TO.N,NRST*%
X109200000Y-75800000D02*
X108000000Y-77000000D01*
X67700000Y-66500000D02*
X68400000Y-65800000D01*
X64325000Y-75600000D02*
X63500000Y-75600000D01*
X109200000Y-75700000D02*
X109200000Y-75800000D01*
X64800000Y-66500000D02*
X67700000Y-66500000D01*
X63200000Y-69100000D02*
X64300000Y-68000000D01*
X71600000Y-65900000D02*
X71600000Y-67000000D01*
X109000000Y-68600000D02*
X109300000Y-68900000D01*
X109300000Y-75600000D02*
X109200000Y-75700000D01*
X71500000Y-65800000D02*
X71600000Y-65900000D01*
X108000000Y-77000000D02*
X108000000Y-77600000D01*
X64100000Y-70000000D02*
X64225000Y-70000000D01*
X109300000Y-68900000D02*
X109300000Y-75600000D01*
X72000000Y-67400000D02*
X97800000Y-67400000D01*
X97800000Y-67400000D02*
X99000000Y-68600000D01*
X64300000Y-68000000D02*
X64300000Y-67000000D01*
X68400000Y-65800000D02*
X71500000Y-65800000D01*
X63500000Y-75600000D02*
X62500000Y-74600000D01*
X71600000Y-67000000D02*
X72000000Y-67400000D01*
X64300000Y-67000000D02*
X64800000Y-66500000D01*
X63200000Y-69100000D02*
X64100000Y-70000000D01*
X62500000Y-74600000D02*
X62500000Y-69800000D01*
X99000000Y-68600000D02*
X109000000Y-68600000D01*
X62500000Y-69800000D02*
X63200000Y-69100000D01*
%TO.N,DO1_DRV*%
X63000000Y-76400000D02*
X60200000Y-73600000D01*
X64200000Y-76300000D02*
X63900000Y-76300000D01*
X55400000Y-72000000D02*
X55100000Y-72300000D01*
X64300000Y-76400000D02*
X64200000Y-76300000D01*
X60200000Y-72500000D02*
X59700000Y-72000000D01*
X63900000Y-76300000D02*
X63800000Y-76400000D01*
X55100000Y-72300000D02*
X55080000Y-72325000D01*
X63800000Y-76400000D02*
X63000000Y-76400000D01*
X59700000Y-72000000D02*
X55400000Y-72000000D01*
X60200000Y-73600000D02*
X60200000Y-72500000D01*
X64325000Y-76400000D02*
X64300000Y-76400000D01*
%TO.N,DO2_DRV*%
X61600000Y-77200000D02*
X61400000Y-77000000D01*
X64325000Y-77200000D02*
X64300000Y-77200000D01*
X63800000Y-77200000D02*
X61600000Y-77200000D01*
X64200000Y-77100000D02*
X63900000Y-77100000D01*
X54700000Y-77000000D02*
X50000000Y-72300000D01*
X63900000Y-77100000D02*
X63800000Y-77200000D01*
X64300000Y-77200000D02*
X64200000Y-77100000D01*
X50000000Y-72300000D02*
X50000000Y-72325000D01*
X61400000Y-77000000D02*
X54700000Y-77000000D01*
%TO.N,DO3_DRV*%
X54900000Y-82300000D02*
X54900000Y-81800000D01*
X61400000Y-79600000D02*
X61400000Y-81400000D01*
X63000000Y-78000000D02*
X61400000Y-79600000D01*
X64200000Y-77900000D02*
X63900000Y-77900000D01*
X63900000Y-77900000D02*
X63800000Y-78000000D01*
X63800000Y-78000000D02*
X63000000Y-78000000D01*
X54900000Y-81800000D02*
X44920000Y-72325000D01*
X64325000Y-78000000D02*
X64300000Y-78000000D01*
X44900000Y-72300000D02*
X44920000Y-72325000D01*
X61400000Y-81400000D02*
X59700000Y-83100000D01*
X59700000Y-83100000D02*
X55700000Y-83100000D01*
X64300000Y-78000000D02*
X64200000Y-77900000D01*
X55700000Y-83100000D02*
X54900000Y-82300000D01*
%TO.N,DO4_DRV*%
X55200000Y-83700000D02*
X54500000Y-84400000D01*
X64325000Y-78800000D02*
X64300000Y-78800000D01*
X63500000Y-79600000D02*
X63500000Y-82100000D01*
X64300000Y-78800000D02*
X63500000Y-79600000D01*
X54400000Y-84400000D02*
X54300000Y-84500000D01*
X52000000Y-84500000D02*
X39800000Y-72300000D01*
X60000000Y-83700000D02*
X55200000Y-83700000D01*
X61200000Y-82800000D02*
X60000000Y-83700000D01*
X54500000Y-84400000D02*
X54400000Y-84400000D01*
X54300000Y-84500000D02*
X52000000Y-84500000D01*
X39800000Y-72300000D02*
X39840000Y-72325000D01*
%TO.N,CAN_STB*%
X65400000Y-80100000D02*
X64800000Y-80100000D01*
X65700000Y-80175000D02*
X65700000Y-80200000D01*
X73700000Y-81800000D02*
X77400000Y-81800000D01*
X87400000Y-82900000D02*
X88300000Y-83800000D01*
X65500000Y-80200000D02*
X65400000Y-80100000D01*
X78500000Y-82900000D02*
X87400000Y-82900000D01*
X88300000Y-83800000D02*
X89300000Y-83700000D01*
X97700000Y-81400000D02*
X97700000Y-81000000D01*
X94400000Y-83500000D02*
X94444999Y-83475000D01*
X77400000Y-81800000D02*
X78500000Y-82900000D01*
X98400000Y-82100000D02*
X97700000Y-81400000D01*
X95400000Y-83700000D02*
X94400000Y-83500000D01*
X65800000Y-77800000D02*
X67900000Y-77800000D01*
X65700000Y-80200000D02*
X65500000Y-80200000D01*
%TO.N,STATUS*%
X61300000Y-85200000D02*
X57700000Y-88800000D01*
X49200000Y-85900000D02*
X49200000Y-85500000D01*
X52100000Y-88800000D02*
X49200000Y-85900000D01*
X66500000Y-79300000D02*
X65900000Y-78700000D01*
X49200000Y-85500000D02*
X49175000Y-85500000D01*
X57700000Y-88800000D02*
X52100000Y-88800000D01*
X66500000Y-80175000D02*
X66500000Y-79300000D01*
X66500000Y-80175000D02*
X66500000Y-80200000D01*
%TO.N,DI1_IN*%
X78500000Y-78000000D02*
X80100000Y-76400000D01*
X72700000Y-78000000D02*
X72800000Y-77900000D01*
X72800000Y-77900000D02*
X73200000Y-77900000D01*
X73300000Y-78000000D02*
X78500000Y-78000000D01*
X82100000Y-73700000D02*
X83500000Y-72300000D01*
X72675000Y-78000000D02*
X72700000Y-78000000D01*
X85400000Y-71400000D02*
X90200000Y-71400000D01*
X84500000Y-72300000D02*
X85400000Y-71400000D01*
X83500000Y-72300000D02*
X84500000Y-72300000D01*
X73200000Y-77900000D02*
X73300000Y-78000000D01*
X90200000Y-71400000D02*
X91080000Y-72275000D01*
X91080000Y-72275000D02*
X91100000Y-72300000D01*
%TO.N,CAN_RXD*%
X90800000Y-77300000D02*
X90600000Y-77500000D01*
X90600000Y-77700000D02*
X87800000Y-80500000D01*
X72700000Y-75600000D02*
X72800000Y-75700000D01*
X90600000Y-77500000D02*
X90600000Y-77700000D01*
X73300000Y-75600000D02*
X87200000Y-75600000D01*
X73200000Y-75700000D02*
X73300000Y-75600000D01*
X90800000Y-75500000D02*
X90800000Y-77300000D01*
X87800000Y-75000000D02*
X90300000Y-75000000D01*
X87200000Y-75600000D02*
X87800000Y-75000000D01*
X90300000Y-75000000D02*
X90800000Y-75500000D01*
X87800000Y-80500000D02*
X85000000Y-80500000D01*
X72800000Y-75700000D02*
X73200000Y-75700000D01*
X72675000Y-75600000D02*
X72700000Y-75600000D01*
%TO.N,CAN_TXD*%
X94400000Y-76900000D02*
X94400000Y-78500000D01*
X73300000Y-74800000D02*
X83900000Y-74800000D01*
X72800000Y-74900000D02*
X73200000Y-74900000D01*
X83900000Y-76400000D02*
X84500000Y-77000000D01*
X93200000Y-75700000D02*
X94400000Y-76900000D01*
X87200000Y-74800000D02*
X87600000Y-74400000D01*
X72675000Y-74800000D02*
X72700000Y-74800000D01*
X72700000Y-74800000D02*
X72800000Y-74900000D01*
X87600000Y-74400000D02*
X89900000Y-74200000D01*
X83900000Y-74800000D02*
X87200000Y-74800000D01*
X84500000Y-77000000D02*
X85000000Y-77000000D01*
X73200000Y-74900000D02*
X73300000Y-74800000D01*
X91600000Y-75700000D02*
X93200000Y-75700000D01*
X94400000Y-78500000D02*
X94444999Y-78525000D01*
%TO.N,SWDIO*%
X71300000Y-74500000D02*
X71300000Y-76500000D01*
X81200000Y-78200000D02*
X81200000Y-77000000D01*
X71800000Y-74000000D02*
X71300000Y-74500000D01*
X81200000Y-77000000D02*
X81175000Y-77000000D01*
X80900000Y-78500000D02*
X81200000Y-78200000D01*
X72675000Y-74000000D02*
X71800000Y-74000000D01*
X72675000Y-74000000D02*
X72700000Y-74000000D01*
%TO.N,DI3_IN*%
X70100000Y-70600000D02*
X70700000Y-70000000D01*
X70700000Y-70000000D02*
X72200000Y-70000000D01*
X72200000Y-70000000D02*
X74200000Y-68000000D01*
X68900000Y-71825000D02*
X68900000Y-71000000D01*
X80900000Y-72300000D02*
X80920000Y-72275000D01*
X74200000Y-68000000D02*
X76600000Y-68000000D01*
X79700000Y-72200000D02*
X80900000Y-72300000D01*
X68900000Y-71000000D02*
X69300000Y-70600000D01*
X69300000Y-70600000D02*
X70100000Y-70600000D01*
X76600000Y-68000000D02*
X79200000Y-70600000D01*
%TO.N,DI4_IN*%
X75500000Y-72000000D02*
X72200000Y-72200000D01*
X67300000Y-72700000D02*
X67300000Y-71825000D01*
X67300000Y-71825000D02*
X67300000Y-71800000D01*
X75800000Y-72300000D02*
X75500000Y-72000000D01*
X67700000Y-73000000D02*
X67600000Y-73000000D01*
X71200000Y-73200000D02*
X67800000Y-73100000D01*
X67600000Y-73000000D02*
X67300000Y-72700000D01*
X75840000Y-72275000D02*
X75800000Y-72300000D01*
X67800000Y-73100000D02*
X67700000Y-73000000D01*
%TO.N,BOOT0*%
X66500000Y-71825000D02*
X66500000Y-71000000D01*
X69200000Y-68300000D02*
X70000000Y-68300000D01*
X70000000Y-68300000D02*
X70000000Y-68325000D01*
X66500000Y-71000000D02*
X69200000Y-68300000D01*
%TO.N,DO1*%
D45*
X55080000Y-63062500D02*
X55080000Y-59500000D01*
X55080000Y-59500000D02*
X55080000Y-49500000D01*
%TO.N,DO1_GATE*%
D42*
X55800000Y-68800000D02*
X56300000Y-69300000D01*
X54100000Y-64900000D02*
X54200000Y-64900000D01*
X56300000Y-71000000D02*
X55800000Y-70700000D01*
X55100000Y-68800000D02*
X55800000Y-68800000D01*
X55100000Y-68600000D02*
X55100000Y-68800000D01*
X54200000Y-64900000D02*
X56100000Y-66800000D01*
X56100000Y-66800000D02*
X56100000Y-67600000D01*
X54130000Y-64937500D02*
X54100000Y-64900000D01*
X55800000Y-70700000D02*
X55100000Y-70700000D01*
X56100000Y-67600000D02*
X55100000Y-68600000D01*
X55100000Y-68800000D02*
X55080000Y-68825000D01*
X55100000Y-70700000D02*
X55080000Y-70675000D01*
%TO.N,DO2_GATE*%
X50700000Y-68800000D02*
X51200000Y-69300000D01*
X51000000Y-67600000D02*
X50000000Y-68600000D01*
X51000000Y-66800000D02*
X51000000Y-67600000D01*
X49000000Y-64900000D02*
X49100000Y-64900000D01*
X50000000Y-68600000D02*
X50000000Y-68800000D01*
X49050000Y-64937500D02*
X49000000Y-64900000D01*
X49100000Y-64900000D02*
X51000000Y-66800000D01*
X51200000Y-71300000D02*
X50600000Y-70700000D01*
X50600000Y-70700000D02*
X50000000Y-70700000D01*
X50000000Y-68800000D02*
X50000000Y-68825000D01*
X50000000Y-70700000D02*
X50000000Y-70675000D01*
X50000000Y-68800000D02*
X50700000Y-68800000D01*
%TO.N,DO2*%
D45*
X50000000Y-63062500D02*
X50000000Y-59500000D01*
X50000000Y-59500000D02*
X50000000Y-49500000D01*
%TO.N,DO4_GATE*%
D42*
X39800000Y-70700000D02*
X39840000Y-70675000D01*
X38890000Y-64937500D02*
X38900000Y-64900000D01*
X39800000Y-68800000D02*
X39800000Y-70700000D01*
X40800000Y-66700000D02*
X40800000Y-67700000D01*
X40800000Y-67700000D02*
X39800000Y-68700000D01*
X38900000Y-64900000D02*
X40300000Y-66300000D01*
X39800000Y-68800000D02*
X39840000Y-68825000D01*
X40300000Y-66300000D02*
X40400000Y-66300000D01*
X40400000Y-66300000D02*
X40800000Y-66700000D01*
X39800000Y-68700000D02*
X39800000Y-68800000D01*
%TO.N,DO4*%
D45*
X39840000Y-59500000D02*
X39840000Y-49500000D01*
X39840000Y-63062500D02*
X39840000Y-59500000D01*
%TO.N,DI1_DIV*%
D42*
X92000000Y-71700000D02*
X92000000Y-72800000D01*
X91100000Y-70400000D02*
X91100000Y-70500000D01*
X90500000Y-61200000D02*
X91600000Y-61200000D01*
X91100000Y-58800000D02*
X90200000Y-59700000D01*
X92000000Y-72800000D02*
X91100000Y-73700000D01*
X90200000Y-59800000D02*
X90100000Y-59900000D01*
X91100000Y-66300000D02*
X91400000Y-66600000D01*
X90100000Y-60800000D02*
X90500000Y-61200000D01*
X91100000Y-63700000D02*
X91100000Y-66300000D01*
X91100000Y-58700000D02*
X91100000Y-58800000D01*
X91100000Y-70800000D02*
X92000000Y-71700000D01*
X90100000Y-59900000D02*
X90100000Y-60800000D01*
X92100000Y-69400000D02*
X91100000Y-70400000D01*
X91100000Y-70500000D02*
X91100000Y-70800000D01*
X91100000Y-73900000D02*
X91080000Y-73925000D01*
X91100000Y-70500000D02*
X91080000Y-70475000D01*
X92200000Y-68200000D02*
X92100000Y-69400000D01*
X91400000Y-66600000D02*
X92200000Y-66600000D01*
X91080000Y-58675000D02*
X91100000Y-58700000D01*
X92100000Y-62500000D02*
X91100000Y-63500000D01*
X90200000Y-59700000D02*
X90200000Y-59800000D01*
X91100000Y-63700000D02*
X91080000Y-63725000D01*
X91100000Y-66300000D02*
X91080000Y-66300000D01*
X92100000Y-61700000D02*
X92100000Y-62500000D01*
X91100000Y-73700000D02*
X91100000Y-73900000D01*
X91600000Y-61200000D02*
X92100000Y-61700000D01*
X91100000Y-63500000D02*
X91100000Y-63700000D01*
%TO.N,TERM_H*%
X100900000Y-91000000D02*
X104039999Y-91000000D01*
%TO.N,DO3*%
D45*
X44920000Y-63062500D02*
X44919999Y-63062500D01*
X44919999Y-49500000D02*
X44920000Y-49500000D01*
X44919999Y-63062500D02*
X44919999Y-59500000D01*
X44919999Y-59500000D02*
X44919999Y-49500000D01*
%TO.N,SWD_DIO*%
D42*
X86300000Y-81500000D02*
X86700000Y-81100000D01*
X104800000Y-77200000D02*
X106600000Y-75400000D01*
X106600000Y-75400000D02*
X106600000Y-74900000D01*
X84100000Y-81300000D02*
X84400000Y-81400000D01*
X106600000Y-74900000D02*
X106700000Y-74800000D01*
X82800000Y-77000000D02*
X83000000Y-77200000D01*
X106800000Y-74400000D02*
X108000000Y-73200000D01*
X102300000Y-80600000D02*
X103300000Y-80600000D01*
X106800000Y-74500000D02*
X106800000Y-74400000D01*
X84600000Y-81400000D02*
X84700000Y-81500000D01*
X108000000Y-73200000D02*
X108000000Y-72500000D01*
X84700000Y-81500000D02*
X86300000Y-81500000D01*
X106700000Y-74800000D02*
X106700000Y-74600000D01*
X83000000Y-77200000D02*
X83000000Y-78800000D01*
X86700000Y-81100000D02*
X96300000Y-81100000D01*
X99800000Y-83100000D02*
X102300000Y-80600000D01*
X103300000Y-80600000D02*
X104800000Y-79400000D01*
X98300000Y-83100000D02*
X99800000Y-83100000D01*
X84400000Y-81400000D02*
X84600000Y-81400000D01*
X82825000Y-77000000D02*
X82800000Y-77000000D01*
X106700000Y-74600000D02*
X106800000Y-74500000D01*
X96300000Y-81100000D02*
X98300000Y-83100000D01*
%TO.N,RTN*%
D44*
X51437500Y-104500000D02*
X51437500Y-97000000D01*
X45540000Y-104500000D02*
X51000000Y-104500000D01*
X51000000Y-104500000D02*
X51437500Y-104500000D01*
%TO.N,LED_A*%
D42*
X52700000Y-87400000D02*
X50800000Y-85500000D01*
X50800000Y-85500000D02*
X50825000Y-85500000D01*
X55300000Y-85500000D02*
X55300000Y-86300000D01*
X54000000Y-87600000D02*
X53400000Y-87600000D01*
X55300000Y-86300000D02*
X54000000Y-87600000D01*
X53200000Y-87400000D02*
X52700000Y-87400000D01*
X53400000Y-87600000D02*
X53200000Y-87400000D01*
%TO.N,TERM_L*%
X84177500Y-91000000D02*
X81000000Y-91000000D01*
X84177500Y-91000000D02*
X84200000Y-91000000D01*
%TD*%
%TA.AperFunction,Conductor*%
%TO.N,V24*%
G36*
X50427568Y-87518907D02*
G01*
X50439377Y-87528993D01*
X51943941Y-89033557D01*
X51973595Y-89045839D01*
X51973597Y-89045841D01*
X51973598Y-89045841D01*
X51984846Y-89050500D01*
X52045200Y-89075500D01*
X52045201Y-89075500D01*
X57754799Y-89075500D01*
X57754800Y-89075500D01*
X57856058Y-89033557D01*
X57860620Y-89028994D01*
X57915135Y-89001219D01*
X57930622Y-89000000D01*
X64988942Y-89000000D01*
X65026827Y-89007535D01*
X65093238Y-89035044D01*
X65210639Y-89050500D01*
X67789360Y-89050499D01*
X67906762Y-89035044D01*
X67954851Y-89015124D01*
X67973173Y-89007536D01*
X68011058Y-89000000D01*
X68401000Y-89000000D01*
X68459191Y-89018907D01*
X68495155Y-89068407D01*
X68500000Y-89099000D01*
X68500000Y-97100500D01*
X68481093Y-97158691D01*
X68431593Y-97194655D01*
X68401000Y-97199500D01*
X64324500Y-97199500D01*
X64266309Y-97180593D01*
X64230345Y-97131093D01*
X64225500Y-97100500D01*
X64225500Y-95596544D01*
X64244407Y-95538353D01*
X64254490Y-95526546D01*
X64309826Y-95471211D01*
X64364866Y-95358625D01*
X64375500Y-95285636D01*
X64375500Y-94714364D01*
X64364866Y-94641375D01*
X64309826Y-94528789D01*
X64221211Y-94440174D01*
X64108625Y-94385134D01*
X64108626Y-94385134D01*
X64090377Y-94382475D01*
X64035636Y-94374500D01*
X63514364Y-94374500D01*
X63470570Y-94380880D01*
X63441373Y-94385134D01*
X63328790Y-94440173D01*
X63240173Y-94528790D01*
X63185134Y-94641373D01*
X63185134Y-94641374D01*
X63185134Y-94641375D01*
X63174500Y-94714364D01*
X63174500Y-95285636D01*
X63179420Y-95319406D01*
X63185134Y-95358626D01*
X63239339Y-95469503D01*
X63240174Y-95471211D01*
X63295505Y-95526542D01*
X63323281Y-95581057D01*
X63324500Y-95596544D01*
X63324500Y-97100500D01*
X63305593Y-97158691D01*
X63256093Y-97194655D01*
X63225500Y-97199500D01*
X60580139Y-97199500D01*
X60580136Y-97199501D01*
X60555009Y-97202414D01*
X60452235Y-97247794D01*
X60372794Y-97327235D01*
X60327414Y-97430011D01*
X60324500Y-97455130D01*
X60324500Y-97844860D01*
X60324501Y-97844863D01*
X60327414Y-97869990D01*
X60352416Y-97926613D01*
X60372794Y-97972765D01*
X60452235Y-98052206D01*
X60555009Y-98097585D01*
X60580135Y-98100500D01*
X61066659Y-98100499D01*
X61066669Y-98100500D01*
X61078191Y-98100500D01*
X63450500Y-98100500D01*
X63508691Y-98119407D01*
X63544655Y-98168907D01*
X63549500Y-98199500D01*
X63549500Y-99850500D01*
X63530593Y-99908691D01*
X63481093Y-99944655D01*
X63450500Y-99949500D01*
X62968479Y-99949500D01*
X62968476Y-99949501D01*
X62874700Y-99964352D01*
X62874695Y-99964354D01*
X62761659Y-100021949D01*
X62671949Y-100111659D01*
X62614354Y-100224695D01*
X62599500Y-100318478D01*
X62599500Y-101681521D01*
X62599501Y-101681523D01*
X62614352Y-101775299D01*
X62614354Y-101775304D01*
X62671950Y-101888342D01*
X62761658Y-101978050D01*
X62874696Y-102035646D01*
X62968481Y-102050500D01*
X65031518Y-102050499D01*
X65031521Y-102050499D01*
X65031522Y-102050498D01*
X65078411Y-102043072D01*
X65125299Y-102035647D01*
X65125299Y-102035646D01*
X65125304Y-102035646D01*
X65238342Y-101978050D01*
X65328050Y-101888342D01*
X65385646Y-101775304D01*
X65400500Y-101681519D01*
X65400499Y-100318482D01*
X65400499Y-100318481D01*
X65400499Y-100318478D01*
X65400498Y-100318476D01*
X65385647Y-100224700D01*
X65385646Y-100224698D01*
X65385646Y-100224696D01*
X65328050Y-100111658D01*
X65238342Y-100021950D01*
X65125304Y-99964354D01*
X65125305Y-99964354D01*
X65031522Y-99949500D01*
X65031519Y-99949500D01*
X64549500Y-99949500D01*
X64491309Y-99930593D01*
X64455345Y-99881093D01*
X64450500Y-99850500D01*
X64450500Y-98199500D01*
X64469407Y-98141309D01*
X64518907Y-98105345D01*
X64549500Y-98100500D01*
X68401000Y-98100500D01*
X68459191Y-98119407D01*
X68495155Y-98168907D01*
X68500000Y-98199500D01*
X68500000Y-99850500D01*
X68481093Y-99908691D01*
X68431593Y-99944655D01*
X68401000Y-99949500D01*
X66968478Y-99949500D01*
X66968476Y-99949501D01*
X66874700Y-99964352D01*
X66874695Y-99964354D01*
X66761659Y-100021949D01*
X66671949Y-100111659D01*
X66614354Y-100224695D01*
X66599500Y-100318478D01*
X66599500Y-101681521D01*
X66599501Y-101681523D01*
X66614352Y-101775299D01*
X66614354Y-101775304D01*
X66671950Y-101888342D01*
X66761658Y-101978050D01*
X66874696Y-102035646D01*
X66968481Y-102050500D01*
X67550500Y-102050499D01*
X67608691Y-102069406D01*
X67644655Y-102118906D01*
X67649500Y-102149499D01*
X67649500Y-102679558D01*
X67636236Y-102729058D01*
X67580202Y-102826109D01*
X67580201Y-102826114D01*
X67549500Y-102940691D01*
X67549500Y-103059309D01*
X67568496Y-103130201D01*
X67580202Y-103173890D01*
X67639507Y-103276608D01*
X67639509Y-103276610D01*
X67639511Y-103276613D01*
X67723387Y-103360489D01*
X67723389Y-103360490D01*
X67723391Y-103360492D01*
X67826110Y-103419797D01*
X67826111Y-103419797D01*
X67826114Y-103419799D01*
X67940691Y-103450500D01*
X67940693Y-103450500D01*
X68059307Y-103450500D01*
X68059309Y-103450500D01*
X68173886Y-103419799D01*
X68173888Y-103419797D01*
X68173890Y-103419797D01*
X68276608Y-103360492D01*
X68276608Y-103360491D01*
X68276613Y-103360489D01*
X68330998Y-103306103D01*
X68385513Y-103278328D01*
X68445945Y-103287899D01*
X68489210Y-103331164D01*
X68500000Y-103376109D01*
X68500000Y-106269376D01*
X68481093Y-106327567D01*
X68471004Y-106339380D01*
X67839381Y-106971004D01*
X67784864Y-106998781D01*
X67769377Y-107000000D01*
X67524500Y-107000000D01*
X67466309Y-106981093D01*
X67430345Y-106931593D01*
X67425500Y-106901000D01*
X67425500Y-106790692D01*
X67425500Y-106790691D01*
X67394799Y-106676114D01*
X67394797Y-106676111D01*
X67394797Y-106676109D01*
X67338764Y-106579058D01*
X67325500Y-106529558D01*
X67325500Y-106336007D01*
X67344407Y-106277816D01*
X67393907Y-106241852D01*
X67409012Y-106238226D01*
X67425304Y-106235646D01*
X67538342Y-106178050D01*
X67628050Y-106088342D01*
X67685646Y-105975304D01*
X67700500Y-105881519D01*
X67700499Y-104518482D01*
X67700499Y-104518481D01*
X67700499Y-104518478D01*
X67700498Y-104518476D01*
X67685647Y-104424700D01*
X67685646Y-104424698D01*
X67685646Y-104424696D01*
X67628050Y-104311658D01*
X67538342Y-104221950D01*
X67425304Y-104164354D01*
X67425305Y-104164354D01*
X67331521Y-104149500D01*
X66618479Y-104149500D01*
X66618476Y-104149501D01*
X66524700Y-104164352D01*
X66524695Y-104164354D01*
X66411659Y-104221949D01*
X66321949Y-104311659D01*
X66264354Y-104424695D01*
X66249500Y-104518478D01*
X66249500Y-105881521D01*
X66249501Y-105881523D01*
X66264352Y-105975299D01*
X66264354Y-105975304D01*
X66321950Y-106088342D01*
X66411658Y-106178050D01*
X66524696Y-106235646D01*
X66540986Y-106238226D01*
X66595503Y-106266003D01*
X66623281Y-106320519D01*
X66624500Y-106336007D01*
X66624500Y-106529558D01*
X66611236Y-106579058D01*
X66555202Y-106676109D01*
X66524500Y-106790692D01*
X66524500Y-106901000D01*
X66505593Y-106959191D01*
X66456093Y-106995155D01*
X66425500Y-107000000D01*
X57574500Y-107000000D01*
X57516309Y-106981093D01*
X57480345Y-106931593D01*
X57475500Y-106901000D01*
X57475500Y-104518478D01*
X60749500Y-104518478D01*
X60749500Y-105881521D01*
X60749501Y-105881523D01*
X60764352Y-105975299D01*
X60764354Y-105975304D01*
X60821950Y-106088342D01*
X60911658Y-106178050D01*
X61024696Y-106235646D01*
X61118481Y-106250500D01*
X61831518Y-106250499D01*
X61831520Y-106250499D01*
X61831521Y-106250498D01*
X61886118Y-106241852D01*
X61925299Y-106235647D01*
X61925299Y-106235646D01*
X61925304Y-106235646D01*
X62038342Y-106178050D01*
X62128050Y-106088342D01*
X62185646Y-105975304D01*
X62200500Y-105881519D01*
X62200499Y-104518482D01*
X62200499Y-104518481D01*
X62200499Y-104518478D01*
X62200498Y-104518476D01*
X62185647Y-104424700D01*
X62185646Y-104424698D01*
X62185646Y-104424696D01*
X62128050Y-104311658D01*
X62038342Y-104221950D01*
X61925304Y-104164354D01*
X61925306Y-104164354D01*
X61909010Y-104161773D01*
X61854494Y-104133993D01*
X61826718Y-104079476D01*
X61825500Y-104063992D01*
X61825500Y-103870441D01*
X61838764Y-103820940D01*
X61840184Y-103818481D01*
X61894799Y-103723886D01*
X61925500Y-103609309D01*
X61925500Y-103490691D01*
X61894799Y-103376114D01*
X61894797Y-103376111D01*
X61894797Y-103376109D01*
X61835492Y-103273391D01*
X61835490Y-103273389D01*
X61835489Y-103273387D01*
X61751613Y-103189511D01*
X61751610Y-103189509D01*
X61751608Y-103189507D01*
X61648889Y-103130202D01*
X61648890Y-103130202D01*
X61635351Y-103126574D01*
X61534309Y-103099500D01*
X61415691Y-103099500D01*
X61345567Y-103118289D01*
X61301109Y-103130202D01*
X61198391Y-103189507D01*
X61114507Y-103273391D01*
X61055203Y-103376109D01*
X61055202Y-103376109D01*
X61040863Y-103429623D01*
X61024500Y-103490691D01*
X61024500Y-103609309D01*
X61055201Y-103723886D01*
X61109814Y-103818478D01*
X61111236Y-103820940D01*
X61124500Y-103870441D01*
X61124500Y-104063992D01*
X61105593Y-104122183D01*
X61056093Y-104158147D01*
X61040987Y-104161773D01*
X61024699Y-104164352D01*
X61024695Y-104164354D01*
X60911659Y-104221949D01*
X60821949Y-104311659D01*
X60764354Y-104424695D01*
X60749500Y-104518478D01*
X57475500Y-104518478D01*
X57475500Y-102455122D01*
X57494407Y-102396931D01*
X57504497Y-102385118D01*
X57835120Y-102054496D01*
X57889636Y-102026719D01*
X57905123Y-102025500D01*
X58058257Y-102025500D01*
X58058260Y-102025500D01*
X58126393Y-102015573D01*
X58231483Y-101964198D01*
X58314198Y-101881483D01*
X58365573Y-101776393D01*
X58375500Y-101708260D01*
X58375500Y-101091740D01*
X58365573Y-101023607D01*
X58356230Y-101004496D01*
X58330151Y-100951149D01*
X58314198Y-100918517D01*
X58231483Y-100835802D01*
X58231481Y-100835801D01*
X58126395Y-100784427D01*
X58099139Y-100780456D01*
X58058260Y-100774500D01*
X57654122Y-100774500D01*
X57595931Y-100755593D01*
X57559967Y-100706093D01*
X57559967Y-100644907D01*
X57584119Y-100605496D01*
X57785120Y-100404496D01*
X57839636Y-100376719D01*
X57854590Y-100375541D01*
X57854797Y-100375500D01*
X57854800Y-100375500D01*
X57956058Y-100333557D01*
X58033557Y-100256058D01*
X58033556Y-100256058D01*
X58260118Y-100029496D01*
X58314635Y-100001718D01*
X58330109Y-100000499D01*
X59419864Y-100000499D01*
X59444991Y-99997585D01*
X59449625Y-99995538D01*
X59510492Y-99989327D01*
X59563388Y-100020079D01*
X59588105Y-100076050D01*
X59581697Y-100119796D01*
X59581881Y-100119846D01*
X59581461Y-100121412D01*
X59581086Y-100123975D01*
X59580203Y-100126106D01*
X59580201Y-100126114D01*
X59549500Y-100240691D01*
X59549500Y-100359309D01*
X59566968Y-100424500D01*
X59580202Y-100473890D01*
X59639507Y-100576608D01*
X59639509Y-100576610D01*
X59639511Y-100576613D01*
X59723387Y-100660489D01*
X59723389Y-100660490D01*
X59723391Y-100660492D01*
X59826110Y-100719797D01*
X59826111Y-100719797D01*
X59826114Y-100719799D01*
X59940691Y-100750500D01*
X59940693Y-100750500D01*
X60059307Y-100750500D01*
X60059309Y-100750500D01*
X60173886Y-100719799D01*
X60173888Y-100719797D01*
X60173890Y-100719797D01*
X60276608Y-100660492D01*
X60276608Y-100660491D01*
X60276613Y-100660489D01*
X60360489Y-100576613D01*
X60393462Y-100519503D01*
X60419797Y-100473890D01*
X60419797Y-100473888D01*
X60419799Y-100473886D01*
X60450500Y-100359309D01*
X60450500Y-100280121D01*
X60469407Y-100221930D01*
X60479485Y-100210129D01*
X60660120Y-100029493D01*
X60714635Y-100001718D01*
X60730122Y-100000499D01*
X61694861Y-100000499D01*
X61694864Y-100000499D01*
X61719991Y-99997585D01*
X61822765Y-99952206D01*
X61902206Y-99872765D01*
X61947585Y-99769991D01*
X61950500Y-99744865D01*
X61950499Y-99355136D01*
X61947585Y-99330009D01*
X61902206Y-99227235D01*
X61822765Y-99147794D01*
X61719991Y-99102415D01*
X61719990Y-99102414D01*
X61719988Y-99102414D01*
X61694868Y-99099500D01*
X60580139Y-99099500D01*
X60580136Y-99099501D01*
X60555009Y-99102414D01*
X60452235Y-99147794D01*
X60372794Y-99227235D01*
X60327414Y-99330011D01*
X60324500Y-99355130D01*
X60324500Y-99544875D01*
X60305593Y-99603066D01*
X60295504Y-99614879D01*
X60089879Y-99820504D01*
X60035362Y-99848281D01*
X60019875Y-99849500D01*
X59940691Y-99849500D01*
X59850854Y-99873572D01*
X59826110Y-99880202D01*
X59816513Y-99885743D01*
X59756664Y-99898461D01*
X59700770Y-99873572D01*
X59670179Y-99820583D01*
X59671491Y-99774007D01*
X59672579Y-99770003D01*
X59672585Y-99769991D01*
X59675500Y-99744865D01*
X59675499Y-99355136D01*
X59672585Y-99330009D01*
X59627206Y-99227235D01*
X59547765Y-99147794D01*
X59547763Y-99147793D01*
X59544974Y-99145004D01*
X59517197Y-99090487D01*
X59526768Y-99030055D01*
X59544974Y-99004996D01*
X59547763Y-99002206D01*
X59547765Y-99002206D01*
X59627206Y-98922765D01*
X59672585Y-98819991D01*
X59675500Y-98794865D01*
X59675499Y-98405136D01*
X59672585Y-98380009D01*
X59627206Y-98277235D01*
X59547765Y-98197794D01*
X59547763Y-98197793D01*
X59544974Y-98195004D01*
X59517197Y-98140487D01*
X59526768Y-98080055D01*
X59544974Y-98054996D01*
X59547763Y-98052206D01*
X59547765Y-98052206D01*
X59627206Y-97972765D01*
X59672585Y-97869991D01*
X59675500Y-97844865D01*
X59675499Y-97455136D01*
X59672585Y-97430009D01*
X59634741Y-97344302D01*
X59628534Y-97283433D01*
X59655301Y-97234313D01*
X61502893Y-95386722D01*
X61557409Y-95358946D01*
X61617841Y-95368517D01*
X61661106Y-95411782D01*
X61661818Y-95413208D01*
X61690174Y-95471211D01*
X61778789Y-95559826D01*
X61891375Y-95614866D01*
X61964364Y-95625500D01*
X61964367Y-95625500D01*
X62485632Y-95625500D01*
X62485636Y-95625500D01*
X62558625Y-95614866D01*
X62671211Y-95559826D01*
X62759826Y-95471211D01*
X62814866Y-95358625D01*
X62825500Y-95285636D01*
X62825500Y-94714364D01*
X62814866Y-94641375D01*
X62759826Y-94528789D01*
X62671211Y-94440174D01*
X62558625Y-94385134D01*
X62558626Y-94385134D01*
X62540377Y-94382475D01*
X62485636Y-94374500D01*
X61964364Y-94374500D01*
X61920570Y-94380880D01*
X61891373Y-94385134D01*
X61778790Y-94440173D01*
X61690173Y-94528790D01*
X61635134Y-94641374D01*
X61632866Y-94648717D01*
X61631203Y-94648203D01*
X61608269Y-94694629D01*
X61554101Y-94723081D01*
X61537402Y-94724500D01*
X61445199Y-94724500D01*
X61373599Y-94754157D01*
X61373599Y-94754158D01*
X61343941Y-94766443D01*
X58939879Y-97170504D01*
X58885362Y-97198281D01*
X58869875Y-97199500D01*
X58305139Y-97199500D01*
X58305136Y-97199501D01*
X58280009Y-97202414D01*
X58177235Y-97247794D01*
X58097794Y-97327235D01*
X58052414Y-97430011D01*
X58049500Y-97455130D01*
X58049500Y-97844860D01*
X58049501Y-97844863D01*
X58052414Y-97869990D01*
X58077416Y-97926613D01*
X58097794Y-97972765D01*
X58177235Y-98052206D01*
X58177236Y-98052206D01*
X58180025Y-98054995D01*
X58207802Y-98109512D01*
X58198231Y-98169944D01*
X58180026Y-98195001D01*
X58154526Y-98220502D01*
X58100010Y-98248281D01*
X58084521Y-98249500D01*
X57770443Y-98249500D01*
X57720943Y-98236236D01*
X57623890Y-98180202D01*
X57623891Y-98180202D01*
X57585779Y-98169990D01*
X57509310Y-98149500D01*
X57390692Y-98149500D01*
X57320568Y-98168289D01*
X57276110Y-98180202D01*
X57173392Y-98239507D01*
X57089508Y-98323391D01*
X57030203Y-98426109D01*
X57018736Y-98468906D01*
X56999501Y-98540691D01*
X56999501Y-98659309D01*
X57008191Y-98691740D01*
X57030203Y-98773890D01*
X57089508Y-98876608D01*
X57089510Y-98876610D01*
X57089512Y-98876613D01*
X57173388Y-98960489D01*
X57173390Y-98960490D01*
X57173392Y-98960492D01*
X57276111Y-99019797D01*
X57276112Y-99019797D01*
X57276115Y-99019799D01*
X57390692Y-99050500D01*
X57390694Y-99050500D01*
X57509308Y-99050500D01*
X57509310Y-99050500D01*
X57623887Y-99019799D01*
X57623889Y-99019797D01*
X57623891Y-99019797D01*
X57720943Y-98963764D01*
X57770443Y-98950500D01*
X58084521Y-98950500D01*
X58142712Y-98969407D01*
X58154525Y-98979496D01*
X58180025Y-99004996D01*
X58207802Y-99059513D01*
X58198231Y-99119945D01*
X58180025Y-99145003D01*
X58097795Y-99227233D01*
X58052414Y-99330011D01*
X58049500Y-99355130D01*
X58049500Y-99419876D01*
X58030593Y-99478067D01*
X58020504Y-99489879D01*
X57924501Y-99585883D01*
X57784271Y-99726114D01*
X57714882Y-99795503D01*
X57660365Y-99823281D01*
X57645409Y-99824458D01*
X57645202Y-99824499D01*
X57575720Y-99853280D01*
X57575719Y-99853280D01*
X57543941Y-99866442D01*
X57301737Y-100108646D01*
X57247221Y-100136423D01*
X57186789Y-100126852D01*
X57143524Y-100083587D01*
X57133953Y-100023155D01*
X57136105Y-100013029D01*
X57150500Y-99959309D01*
X57150500Y-99840691D01*
X57119799Y-99726114D01*
X57119797Y-99726111D01*
X57119797Y-99726109D01*
X57060492Y-99623391D01*
X57060490Y-99623389D01*
X57060489Y-99623387D01*
X56976613Y-99539511D01*
X56976610Y-99539509D01*
X56976608Y-99539507D01*
X56873889Y-99480202D01*
X56873890Y-99480202D01*
X56860351Y-99476574D01*
X56759309Y-99449500D01*
X56680124Y-99449500D01*
X56621933Y-99430593D01*
X56610120Y-99420504D01*
X56404496Y-99214880D01*
X56376719Y-99160363D01*
X56375500Y-99144876D01*
X56375500Y-98691743D01*
X56375500Y-98691740D01*
X56365573Y-98623607D01*
X56314198Y-98518517D01*
X56231483Y-98435802D01*
X56211656Y-98426109D01*
X56126395Y-98384427D01*
X56096070Y-98380009D01*
X56058260Y-98374500D01*
X55605123Y-98374500D01*
X55546932Y-98355593D01*
X55535119Y-98345504D01*
X54504496Y-97314880D01*
X54476719Y-97260363D01*
X54475500Y-97244876D01*
X54475500Y-96677808D01*
X54494407Y-96619617D01*
X54531021Y-96588867D01*
X54581483Y-96564198D01*
X54664198Y-96481483D01*
X54715573Y-96376393D01*
X54725500Y-96308260D01*
X54725500Y-95691740D01*
X55274500Y-95691740D01*
X55274500Y-96308260D01*
X55280509Y-96349500D01*
X55284427Y-96376395D01*
X55321489Y-96452205D01*
X55335802Y-96481483D01*
X55418517Y-96564198D01*
X55418978Y-96564423D01*
X55419387Y-96564819D01*
X55425194Y-96568965D01*
X55424572Y-96569835D01*
X55462953Y-96606965D01*
X55474500Y-96653365D01*
X55474500Y-96904557D01*
X55461236Y-96954057D01*
X55405202Y-97051108D01*
X55405201Y-97051113D01*
X55374500Y-97165690D01*
X55374500Y-97284308D01*
X55390576Y-97344303D01*
X55405202Y-97398889D01*
X55464507Y-97501607D01*
X55464509Y-97501609D01*
X55464511Y-97501612D01*
X55548387Y-97585488D01*
X55548389Y-97585489D01*
X55548391Y-97585491D01*
X55651110Y-97644796D01*
X55651111Y-97644796D01*
X55651114Y-97644798D01*
X55765691Y-97675499D01*
X55765693Y-97675499D01*
X55884307Y-97675499D01*
X55884309Y-97675499D01*
X55998886Y-97644798D01*
X55998888Y-97644796D01*
X55998890Y-97644796D01*
X56101608Y-97585491D01*
X56101608Y-97585490D01*
X56101613Y-97585488D01*
X56185489Y-97501612D01*
X56186708Y-97499500D01*
X56244797Y-97398889D01*
X56244797Y-97398887D01*
X56244799Y-97398885D01*
X56275500Y-97284308D01*
X56275500Y-97165690D01*
X56244799Y-97051113D01*
X56244797Y-97051110D01*
X56244797Y-97051108D01*
X56188764Y-96954057D01*
X56175500Y-96904557D01*
X56175500Y-96653365D01*
X56194407Y-96595174D01*
X56225108Y-96569389D01*
X56224806Y-96568965D01*
X56230197Y-96565115D01*
X56231020Y-96564423D01*
X56231483Y-96564198D01*
X56314198Y-96481483D01*
X56365573Y-96376393D01*
X56375500Y-96308260D01*
X56375500Y-95691740D01*
X56365573Y-95623607D01*
X56361299Y-95614865D01*
X56340483Y-95572285D01*
X56314198Y-95518517D01*
X56231483Y-95435802D01*
X56219803Y-95430092D01*
X56126395Y-95384427D01*
X56099139Y-95380456D01*
X56058260Y-95374500D01*
X55591740Y-95374500D01*
X55557673Y-95379463D01*
X55523604Y-95384427D01*
X55418518Y-95435801D01*
X55335801Y-95518518D01*
X55284427Y-95623604D01*
X55284427Y-95623607D01*
X55274500Y-95691740D01*
X54725500Y-95691740D01*
X54715573Y-95623607D01*
X54711299Y-95614865D01*
X54690483Y-95572285D01*
X54664198Y-95518517D01*
X54581483Y-95435802D01*
X54569803Y-95430092D01*
X54476395Y-95384427D01*
X54449139Y-95380456D01*
X54408260Y-95374500D01*
X54001608Y-95374500D01*
X53943417Y-95355593D01*
X53907453Y-95306093D01*
X53907453Y-95244907D01*
X53931602Y-95205498D01*
X54010489Y-95126612D01*
X54069799Y-95023885D01*
X54100500Y-94909308D01*
X54100500Y-94790690D01*
X54069799Y-94676113D01*
X54069797Y-94676110D01*
X54069797Y-94676108D01*
X54013764Y-94579057D01*
X54000500Y-94529557D01*
X54000500Y-94293415D01*
X54019407Y-94235224D01*
X54056020Y-94204474D01*
X54096211Y-94184826D01*
X54184826Y-94096211D01*
X54239866Y-93983625D01*
X54250500Y-93910636D01*
X54250500Y-93089364D01*
X54239866Y-93016375D01*
X54184826Y-92903789D01*
X54096211Y-92815174D01*
X53983625Y-92760134D01*
X53983626Y-92760134D01*
X53965377Y-92757475D01*
X53910636Y-92749500D01*
X53389364Y-92749500D01*
X53345570Y-92755880D01*
X53316373Y-92760134D01*
X53203790Y-92815173D01*
X53115173Y-92903790D01*
X53060134Y-93016373D01*
X53060134Y-93016375D01*
X53049500Y-93089364D01*
X53049500Y-93910636D01*
X53052840Y-93933558D01*
X53060134Y-93983626D01*
X53097133Y-94059307D01*
X53115174Y-94096211D01*
X53203789Y-94184826D01*
X53243980Y-94204474D01*
X53287954Y-94247017D01*
X53299500Y-94293415D01*
X53299500Y-94529557D01*
X53286236Y-94579057D01*
X53230202Y-94676108D01*
X53219951Y-94714367D01*
X53199500Y-94790690D01*
X53199500Y-94909308D01*
X53226574Y-95010350D01*
X53230202Y-95023889D01*
X53289507Y-95126607D01*
X53289509Y-95126609D01*
X53289511Y-95126612D01*
X53373387Y-95210488D01*
X53373389Y-95210489D01*
X53373391Y-95210491D01*
X53476110Y-95269796D01*
X53476111Y-95269796D01*
X53476114Y-95269798D01*
X53590691Y-95300499D01*
X53590693Y-95300499D01*
X53664813Y-95300499D01*
X53723004Y-95319406D01*
X53758968Y-95368906D01*
X53758968Y-95430092D01*
X53734818Y-95469500D01*
X53703819Y-95500500D01*
X53685801Y-95518518D01*
X53634427Y-95623604D01*
X53634427Y-95623607D01*
X53624500Y-95691740D01*
X53624500Y-96308260D01*
X53630509Y-96349500D01*
X53634427Y-96376395D01*
X53671489Y-96452205D01*
X53685802Y-96481483D01*
X53768517Y-96564198D01*
X53855999Y-96606965D01*
X53868980Y-96613311D01*
X53912954Y-96655854D01*
X53924500Y-96702252D01*
X53924500Y-97454800D01*
X53944223Y-97502414D01*
X53962061Y-97545479D01*
X53962061Y-97545480D01*
X53966441Y-97556055D01*
X53966442Y-97556056D01*
X53966443Y-97556058D01*
X55245505Y-98835120D01*
X55273281Y-98889635D01*
X55274500Y-98905122D01*
X55274500Y-99308260D01*
X55277669Y-99330009D01*
X55284427Y-99376395D01*
X55320329Y-99449832D01*
X55335802Y-99481483D01*
X55418517Y-99564198D01*
X55462875Y-99585883D01*
X55523604Y-99615572D01*
X55523605Y-99615572D01*
X55523607Y-99615573D01*
X55591740Y-99625500D01*
X55994878Y-99625500D01*
X56053069Y-99644407D01*
X56064874Y-99654489D01*
X56220505Y-99810121D01*
X56248281Y-99864635D01*
X56249500Y-99880122D01*
X56249500Y-99959309D01*
X56268307Y-100029496D01*
X56280202Y-100073890D01*
X56339507Y-100176608D01*
X56339509Y-100176610D01*
X56339511Y-100176613D01*
X56423387Y-100260489D01*
X56423389Y-100260490D01*
X56423391Y-100260492D01*
X56526110Y-100319797D01*
X56526111Y-100319797D01*
X56526114Y-100319799D01*
X56640691Y-100350500D01*
X56640693Y-100350500D01*
X56720877Y-100350500D01*
X56779068Y-100369407D01*
X56815032Y-100418907D01*
X56815032Y-100480093D01*
X56790881Y-100519503D01*
X56714882Y-100595503D01*
X56660366Y-100623281D01*
X56645407Y-100624458D01*
X56645198Y-100624499D01*
X56543942Y-100666440D01*
X56464879Y-100745504D01*
X56410362Y-100773281D01*
X56394876Y-100774500D01*
X56005123Y-100774500D01*
X55946932Y-100755593D01*
X55935119Y-100745504D01*
X55445673Y-100256058D01*
X54956058Y-99766443D01*
X54950435Y-99764114D01*
X54950432Y-99764112D01*
X54858684Y-99726109D01*
X54854800Y-99724500D01*
X54145200Y-99724500D01*
X54141316Y-99726109D01*
X54049567Y-99764112D01*
X54049565Y-99764114D01*
X54043942Y-99766443D01*
X54043939Y-99766445D01*
X53054776Y-100755606D01*
X53000260Y-100783383D01*
X52970500Y-100783568D01*
X52932371Y-100778013D01*
X52908260Y-100774500D01*
X52441740Y-100774500D01*
X52413202Y-100778658D01*
X52373604Y-100784427D01*
X52268518Y-100835801D01*
X52268517Y-100835801D01*
X52268517Y-100835802D01*
X52257001Y-100847317D01*
X52202487Y-100875093D01*
X52142055Y-100865522D01*
X52098790Y-100822257D01*
X52088000Y-100777312D01*
X52088000Y-97515180D01*
X52106907Y-97456989D01*
X52147010Y-97424616D01*
X52197765Y-97402206D01*
X52277206Y-97322765D01*
X52322585Y-97219991D01*
X52325500Y-97194865D01*
X52325499Y-96805136D01*
X52322585Y-96780009D01*
X52277206Y-96677235D01*
X52197765Y-96597794D01*
X52094991Y-96552415D01*
X52094990Y-96552414D01*
X52094988Y-96552414D01*
X52069869Y-96549500D01*
X52069865Y-96549500D01*
X51947953Y-96549500D01*
X51889762Y-96530593D01*
X51877949Y-96520504D01*
X51852172Y-96494727D01*
X51852169Y-96494724D01*
X51809726Y-96466365D01*
X51745633Y-96423538D01*
X51745625Y-96423534D01*
X51627247Y-96374500D01*
X51627245Y-96374499D01*
X51627244Y-96374499D01*
X51501569Y-96349500D01*
X51373431Y-96349500D01*
X51373430Y-96349500D01*
X51310593Y-96361999D01*
X51247756Y-96374499D01*
X51247755Y-96374499D01*
X51247752Y-96374500D01*
X51129374Y-96423534D01*
X51129365Y-96423538D01*
X51022832Y-96494722D01*
X50997049Y-96520505D01*
X50942532Y-96548281D01*
X50927048Y-96549500D01*
X50805138Y-96549500D01*
X50805135Y-96549501D01*
X50780009Y-96552414D01*
X50677235Y-96597794D01*
X50597794Y-96677235D01*
X50552414Y-96780011D01*
X50549500Y-96805130D01*
X50549500Y-97194860D01*
X50549501Y-97194863D01*
X50552414Y-97219990D01*
X50564691Y-97247794D01*
X50597794Y-97322765D01*
X50677235Y-97402206D01*
X50727989Y-97424616D01*
X50773583Y-97465414D01*
X50787000Y-97515179D01*
X50787000Y-103350500D01*
X50768093Y-103408691D01*
X50718593Y-103444655D01*
X50688000Y-103449500D01*
X49968478Y-103449500D01*
X49968476Y-103449501D01*
X49874700Y-103464352D01*
X49874695Y-103464354D01*
X49761659Y-103521949D01*
X49671949Y-103611659D01*
X49614354Y-103724695D01*
X49607814Y-103765987D01*
X49580036Y-103820504D01*
X49525520Y-103848281D01*
X49510033Y-103849500D01*
X46897156Y-103849500D01*
X46838965Y-103830593D01*
X46808946Y-103795445D01*
X46780579Y-103739772D01*
X46780575Y-103739766D01*
X46646383Y-103555068D01*
X46646381Y-103555066D01*
X46646379Y-103555063D01*
X46484937Y-103393621D01*
X46484933Y-103393618D01*
X46484931Y-103393616D01*
X46300233Y-103259424D01*
X46300227Y-103259420D01*
X46096799Y-103155769D01*
X45879655Y-103085214D01*
X45654160Y-103049500D01*
X45654157Y-103049500D01*
X45425843Y-103049500D01*
X45425840Y-103049500D01*
X45200344Y-103085214D01*
X44983200Y-103155769D01*
X44779772Y-103259420D01*
X44779766Y-103259424D01*
X44595068Y-103393616D01*
X44433616Y-103555068D01*
X44299424Y-103739766D01*
X44299420Y-103739772D01*
X44195769Y-103943200D01*
X44125214Y-104160344D01*
X44089500Y-104385839D01*
X44089500Y-104614160D01*
X44125214Y-104839655D01*
X44195769Y-105056799D01*
X44299420Y-105260227D01*
X44299424Y-105260233D01*
X44433616Y-105444931D01*
X44433618Y-105444933D01*
X44433621Y-105444937D01*
X44595063Y-105606379D01*
X44595066Y-105606381D01*
X44595068Y-105606383D01*
X44779766Y-105740575D01*
X44779772Y-105740579D01*
X44983201Y-105844231D01*
X45200340Y-105914784D01*
X45200341Y-105914784D01*
X45200344Y-105914785D01*
X45425840Y-105950500D01*
X45425843Y-105950500D01*
X45654160Y-105950500D01*
X45879655Y-105914785D01*
X45879656Y-105914784D01*
X45879660Y-105914784D01*
X46096799Y-105844231D01*
X46300228Y-105740579D01*
X46484937Y-105606379D01*
X46646379Y-105444937D01*
X46780579Y-105260228D01*
X46808946Y-105204555D01*
X46852211Y-105161290D01*
X46897156Y-105150500D01*
X49510033Y-105150500D01*
X49568224Y-105169407D01*
X49604188Y-105218907D01*
X49607814Y-105234014D01*
X49614352Y-105275300D01*
X49614354Y-105275304D01*
X49671950Y-105388342D01*
X49761658Y-105478050D01*
X49874696Y-105535646D01*
X49968481Y-105550500D01*
X52031518Y-105550499D01*
X52031521Y-105550499D01*
X52031522Y-105550498D01*
X52078411Y-105543072D01*
X52125299Y-105535647D01*
X52125299Y-105535646D01*
X52125304Y-105535646D01*
X52238342Y-105478050D01*
X52328050Y-105388342D01*
X52385646Y-105275304D01*
X52400500Y-105181519D01*
X52400499Y-103818482D01*
X52400499Y-103818481D01*
X52400499Y-103818478D01*
X52400498Y-103818476D01*
X52385647Y-103724700D01*
X52385646Y-103724698D01*
X52385646Y-103724696D01*
X52328050Y-103611658D01*
X52238342Y-103521950D01*
X52235328Y-103520414D01*
X52142054Y-103472888D01*
X52098790Y-103429623D01*
X52088000Y-103384679D01*
X52088000Y-102022688D01*
X52106907Y-101964497D01*
X52156407Y-101928533D01*
X52217593Y-101928533D01*
X52257001Y-101952682D01*
X52268517Y-101964198D01*
X52296852Y-101978050D01*
X52373604Y-102015572D01*
X52373605Y-102015572D01*
X52373607Y-102015573D01*
X52441740Y-102025500D01*
X52441743Y-102025500D01*
X52908257Y-102025500D01*
X52908260Y-102025500D01*
X52976393Y-102015573D01*
X53081483Y-101964198D01*
X53164198Y-101881483D01*
X53215573Y-101776393D01*
X53225500Y-101708260D01*
X53225500Y-101405123D01*
X53244407Y-101346932D01*
X53254496Y-101335120D01*
X53610688Y-100978927D01*
X53665205Y-100951149D01*
X53725637Y-100960720D01*
X53768902Y-101003985D01*
X53778657Y-101063202D01*
X53774500Y-101091740D01*
X53774500Y-101708260D01*
X53781118Y-101753682D01*
X53784427Y-101776395D01*
X53800701Y-101809683D01*
X53835802Y-101881483D01*
X53918517Y-101964198D01*
X53918978Y-101964423D01*
X53919387Y-101964819D01*
X53925194Y-101968965D01*
X53924572Y-101969835D01*
X53962953Y-102006965D01*
X53974500Y-102053365D01*
X53974500Y-102304557D01*
X53961236Y-102354057D01*
X53905202Y-102451108D01*
X53888037Y-102515168D01*
X53874500Y-102565690D01*
X53874500Y-102684308D01*
X53886491Y-102729058D01*
X53905202Y-102798889D01*
X53964507Y-102901607D01*
X53964509Y-102901609D01*
X53964511Y-102901612D01*
X54048387Y-102985488D01*
X54048389Y-102985489D01*
X54048391Y-102985491D01*
X54151110Y-103044796D01*
X54151111Y-103044796D01*
X54151114Y-103044798D01*
X54265691Y-103075499D01*
X54265693Y-103075499D01*
X54384307Y-103075499D01*
X54384309Y-103075499D01*
X54498886Y-103044798D01*
X54498888Y-103044796D01*
X54498890Y-103044796D01*
X54601608Y-102985491D01*
X54601608Y-102985490D01*
X54601613Y-102985488D01*
X54685489Y-102901612D01*
X54744799Y-102798885D01*
X54775500Y-102684308D01*
X54775500Y-102565690D01*
X54744799Y-102451113D01*
X54744797Y-102451110D01*
X54744797Y-102451108D01*
X54688764Y-102354057D01*
X54675500Y-102304557D01*
X54675500Y-102053365D01*
X54694407Y-101995174D01*
X54725108Y-101969389D01*
X54724806Y-101968965D01*
X54730197Y-101965115D01*
X54731020Y-101964423D01*
X54731483Y-101964198D01*
X54814198Y-101881483D01*
X54865573Y-101776393D01*
X54875500Y-101708260D01*
X54875500Y-101091740D01*
X54865573Y-101023607D01*
X54856230Y-101004496D01*
X54830151Y-100951149D01*
X54814198Y-100918517D01*
X54731483Y-100835802D01*
X54731481Y-100835801D01*
X54626395Y-100784427D01*
X54599139Y-100780456D01*
X54558260Y-100774500D01*
X54091740Y-100774500D01*
X54063202Y-100778657D01*
X54002894Y-100768337D01*
X53960170Y-100724539D01*
X53951348Y-100663993D01*
X53978927Y-100610688D01*
X54285120Y-100304496D01*
X54339636Y-100276719D01*
X54355123Y-100275500D01*
X54644877Y-100275500D01*
X54703068Y-100294407D01*
X54714881Y-100304496D01*
X55595504Y-101185119D01*
X55623281Y-101239636D01*
X55624500Y-101255123D01*
X55624500Y-101708260D01*
X55631118Y-101753682D01*
X55634427Y-101776395D01*
X55650701Y-101809683D01*
X55685802Y-101881483D01*
X55768517Y-101964198D01*
X55796852Y-101978050D01*
X55873604Y-102015572D01*
X55873605Y-102015572D01*
X55873607Y-102015573D01*
X55941740Y-102025500D01*
X55941743Y-102025500D01*
X56408257Y-102025500D01*
X56408260Y-102025500D01*
X56476393Y-102015573D01*
X56581483Y-101964198D01*
X56664198Y-101881483D01*
X56715573Y-101776393D01*
X56725500Y-101708260D01*
X56725500Y-101305122D01*
X56744407Y-101246931D01*
X56754498Y-101235117D01*
X56785121Y-101204495D01*
X56839638Y-101176719D01*
X56854590Y-101175541D01*
X56854797Y-101175500D01*
X56854800Y-101175500D01*
X56956058Y-101133557D01*
X57033557Y-101056058D01*
X57033556Y-101056058D01*
X57085120Y-101004494D01*
X57139635Y-100976719D01*
X57154583Y-100975542D01*
X57154794Y-100975500D01*
X57154800Y-100975500D01*
X57154805Y-100975497D01*
X57158018Y-100974859D01*
X57163436Y-100975500D01*
X57164551Y-100975500D01*
X57164551Y-100975631D01*
X57218780Y-100982048D01*
X57263712Y-101023578D01*
X57275651Y-101083587D01*
X57275303Y-101086226D01*
X57274500Y-101091735D01*
X57274500Y-101091740D01*
X57274500Y-101708260D01*
X57283568Y-101770501D01*
X57273249Y-101830809D01*
X57255609Y-101854774D01*
X57043942Y-102066443D01*
X57043941Y-102066442D01*
X56966446Y-102143938D01*
X56966444Y-102143940D01*
X56966443Y-102143942D01*
X56924500Y-102245200D01*
X56924500Y-106901000D01*
X56905593Y-106959191D01*
X56856093Y-106995155D01*
X56825500Y-107000000D01*
X35410823Y-107000000D01*
X35352632Y-106981093D01*
X35316668Y-106931593D01*
X35315197Y-106875377D01*
X35318838Y-106861789D01*
X35350500Y-106621288D01*
X35350500Y-106378712D01*
X35318838Y-106138211D01*
X35256054Y-105903900D01*
X35163224Y-105679788D01*
X35041936Y-105469711D01*
X34894265Y-105277262D01*
X34722738Y-105105735D01*
X34722733Y-105105731D01*
X34722731Y-105105729D01*
X34530292Y-104958066D01*
X34530289Y-104958064D01*
X34320212Y-104836776D01*
X34320208Y-104836774D01*
X34320204Y-104836772D01*
X34096105Y-104743948D01*
X34096104Y-104743947D01*
X34096100Y-104743946D01*
X33861789Y-104681162D01*
X33861786Y-104681161D01*
X33861784Y-104681161D01*
X33621289Y-104649500D01*
X33621288Y-104649500D01*
X33378712Y-104649500D01*
X33378710Y-104649500D01*
X33138208Y-104681162D01*
X33124619Y-104684803D01*
X33063517Y-104681598D01*
X33015969Y-104643090D01*
X33000000Y-104589175D01*
X33000000Y-97755130D01*
X48674500Y-97755130D01*
X48674500Y-98144860D01*
X48674501Y-98144863D01*
X48677414Y-98169990D01*
X48688458Y-98195001D01*
X48722794Y-98272765D01*
X48802235Y-98352206D01*
X48905009Y-98397585D01*
X48930135Y-98400500D01*
X49113000Y-98400499D01*
X49171190Y-98419406D01*
X49207154Y-98468906D01*
X49212000Y-98499499D01*
X49212000Y-99117058D01*
X49198736Y-99166558D01*
X49142702Y-99263609D01*
X49142701Y-99263614D01*
X49112000Y-99378191D01*
X49112000Y-99496809D01*
X49139074Y-99597851D01*
X49142702Y-99611390D01*
X49202007Y-99714108D01*
X49202009Y-99714110D01*
X49202011Y-99714113D01*
X49285887Y-99797989D01*
X49285889Y-99797990D01*
X49285891Y-99797992D01*
X49388610Y-99857297D01*
X49388611Y-99857297D01*
X49388614Y-99857299D01*
X49503191Y-99888000D01*
X49503193Y-99888000D01*
X49621807Y-99888000D01*
X49621809Y-99888000D01*
X49736386Y-99857299D01*
X49736388Y-99857297D01*
X49736390Y-99857297D01*
X49839108Y-99797992D01*
X49839108Y-99797991D01*
X49839113Y-99797989D01*
X49922989Y-99714113D01*
X49979882Y-99615572D01*
X49982297Y-99611390D01*
X49982297Y-99611388D01*
X49982299Y-99611386D01*
X50013000Y-99496809D01*
X50013000Y-99378191D01*
X49982299Y-99263614D01*
X49982297Y-99263611D01*
X49982297Y-99263609D01*
X49926264Y-99166558D01*
X49913000Y-99117058D01*
X49913000Y-98499499D01*
X49931907Y-98441308D01*
X49981407Y-98405344D01*
X50012000Y-98400499D01*
X50194861Y-98400499D01*
X50194864Y-98400499D01*
X50219991Y-98397585D01*
X50322765Y-98352206D01*
X50402206Y-98272765D01*
X50447585Y-98169991D01*
X50450500Y-98144865D01*
X50450499Y-97755136D01*
X50447585Y-97730009D01*
X50402206Y-97627235D01*
X50322765Y-97547794D01*
X50219991Y-97502415D01*
X50219990Y-97502414D01*
X50219988Y-97502414D01*
X50194868Y-97499500D01*
X48930139Y-97499500D01*
X48930136Y-97499501D01*
X48905009Y-97502414D01*
X48802235Y-97547794D01*
X48722794Y-97627235D01*
X48677414Y-97730011D01*
X48674500Y-97755130D01*
X33000000Y-97755130D01*
X33000000Y-90918478D01*
X42299500Y-90918478D01*
X42299500Y-92081521D01*
X42299501Y-92081523D01*
X42314352Y-92175299D01*
X42314354Y-92175304D01*
X42371950Y-92288342D01*
X42461658Y-92378050D01*
X42574696Y-92435646D01*
X42668481Y-92450500D01*
X43750500Y-92450499D01*
X43808691Y-92469406D01*
X43844655Y-92518906D01*
X43849500Y-92549499D01*
X43849500Y-93679558D01*
X43836236Y-93729058D01*
X43780202Y-93826109D01*
X43780201Y-93826114D01*
X43749500Y-93940691D01*
X43749500Y-94059309D01*
X43759388Y-94096211D01*
X43780202Y-94173890D01*
X43839507Y-94276608D01*
X43839509Y-94276610D01*
X43839511Y-94276613D01*
X43923387Y-94360489D01*
X43923389Y-94360490D01*
X43923391Y-94360492D01*
X44026110Y-94419797D01*
X44026111Y-94419797D01*
X44026114Y-94419799D01*
X44140691Y-94450500D01*
X44140693Y-94450500D01*
X44259307Y-94450500D01*
X44259309Y-94450500D01*
X44373886Y-94419799D01*
X44373888Y-94419797D01*
X44373890Y-94419797D01*
X44476608Y-94360492D01*
X44476608Y-94360491D01*
X44476613Y-94360489D01*
X44560489Y-94276613D01*
X44574862Y-94251719D01*
X44619797Y-94173890D01*
X44619797Y-94173888D01*
X44619799Y-94173886D01*
X44650500Y-94059309D01*
X44650500Y-93940691D01*
X44619799Y-93826114D01*
X44619797Y-93826111D01*
X44619797Y-93826109D01*
X44563764Y-93729058D01*
X44550500Y-93679558D01*
X44550500Y-93191740D01*
X47274500Y-93191740D01*
X47274500Y-93808260D01*
X47281118Y-93853682D01*
X47284427Y-93876395D01*
X47317081Y-93943189D01*
X47335802Y-93981483D01*
X47418517Y-94064198D01*
X47472285Y-94090483D01*
X47523604Y-94115572D01*
X47523605Y-94115572D01*
X47523607Y-94115573D01*
X47591740Y-94125500D01*
X47591743Y-94125500D01*
X48058257Y-94125500D01*
X48058260Y-94125500D01*
X48126393Y-94115573D01*
X48231483Y-94064198D01*
X48314198Y-93981483D01*
X48365573Y-93876393D01*
X48367928Y-93860224D01*
X48395028Y-93805370D01*
X48449196Y-93776918D01*
X48465894Y-93775500D01*
X49444878Y-93775500D01*
X49503069Y-93794407D01*
X49514882Y-93804497D01*
X49590381Y-93879997D01*
X49618158Y-93934514D01*
X49608586Y-93994946D01*
X49590382Y-94020002D01*
X49566446Y-94043938D01*
X49566444Y-94043940D01*
X49566443Y-94043942D01*
X49536772Y-94115573D01*
X49524500Y-94145200D01*
X49524500Y-95500500D01*
X49505593Y-95558691D01*
X49456093Y-95594655D01*
X49425500Y-95599500D01*
X48930139Y-95599500D01*
X48930136Y-95599501D01*
X48905009Y-95602414D01*
X48802235Y-95647794D01*
X48722794Y-95727235D01*
X48677414Y-95830011D01*
X48674500Y-95855130D01*
X48674500Y-96244860D01*
X48674501Y-96244863D01*
X48677414Y-96269990D01*
X48694312Y-96308260D01*
X48722794Y-96372765D01*
X48802235Y-96452206D01*
X48905009Y-96497585D01*
X48930135Y-96500500D01*
X50194864Y-96500499D01*
X50219991Y-96497585D01*
X50322765Y-96452206D01*
X50402206Y-96372765D01*
X50447585Y-96269991D01*
X50450500Y-96244865D01*
X50450499Y-95855136D01*
X50447585Y-95830009D01*
X50402206Y-95727235D01*
X50322765Y-95647794D01*
X50219991Y-95602415D01*
X50219990Y-95602414D01*
X50219988Y-95602414D01*
X50194869Y-95599500D01*
X50194865Y-95599500D01*
X50174500Y-95599500D01*
X50116309Y-95580593D01*
X50080345Y-95531093D01*
X50075500Y-95500500D01*
X50075500Y-94355123D01*
X50094407Y-94296932D01*
X50104496Y-94285119D01*
X50110119Y-94279496D01*
X50164636Y-94251719D01*
X50180123Y-94250500D01*
X50610632Y-94250500D01*
X50610636Y-94250500D01*
X50683625Y-94239866D01*
X50796211Y-94184826D01*
X50884826Y-94096211D01*
X50939866Y-93983625D01*
X50950500Y-93910636D01*
X50950500Y-93089364D01*
X50939866Y-93016375D01*
X50884826Y-92903789D01*
X50796211Y-92815174D01*
X50683625Y-92760134D01*
X50683626Y-92760134D01*
X50665377Y-92757475D01*
X50610636Y-92749500D01*
X50089364Y-92749500D01*
X50045570Y-92755880D01*
X50016373Y-92760134D01*
X49903790Y-92815173D01*
X49815173Y-92903790D01*
X49760134Y-93016373D01*
X49749500Y-93089367D01*
X49749500Y-93125500D01*
X49730593Y-93183691D01*
X49681093Y-93219655D01*
X49650500Y-93224500D01*
X48465894Y-93224500D01*
X48407703Y-93205593D01*
X48371739Y-93156093D01*
X48367929Y-93139780D01*
X48365573Y-93123607D01*
X48314198Y-93018517D01*
X48231483Y-92935802D01*
X48231481Y-92935801D01*
X48126395Y-92884427D01*
X48099139Y-92880456D01*
X48058260Y-92874500D01*
X47591740Y-92874500D01*
X47557673Y-92879463D01*
X47523604Y-92884427D01*
X47418518Y-92935801D01*
X47335801Y-93018518D01*
X47284427Y-93123604D01*
X47284427Y-93123607D01*
X47274500Y-93191740D01*
X44550500Y-93191740D01*
X44550500Y-92549499D01*
X44569407Y-92491308D01*
X44618907Y-92455344D01*
X44649500Y-92450499D01*
X45731521Y-92450499D01*
X45731522Y-92450498D01*
X45778411Y-92443072D01*
X45825299Y-92435647D01*
X45825299Y-92435646D01*
X45825304Y-92435646D01*
X45938342Y-92378050D01*
X46028050Y-92288342D01*
X46085646Y-92175304D01*
X46100500Y-92081519D01*
X46100499Y-90918482D01*
X46100499Y-90918481D01*
X46100499Y-90918478D01*
X46100498Y-90918476D01*
X46085647Y-90824700D01*
X46085646Y-90824698D01*
X46085646Y-90824696D01*
X46028050Y-90711658D01*
X45938342Y-90621950D01*
X45825304Y-90564354D01*
X45825305Y-90564354D01*
X45731521Y-90549500D01*
X42668478Y-90549500D01*
X42668476Y-90549501D01*
X42574700Y-90564352D01*
X42574695Y-90564354D01*
X42461659Y-90621949D01*
X42371949Y-90711659D01*
X42314354Y-90824695D01*
X42299500Y-90918478D01*
X33000000Y-90918478D01*
X33000000Y-88714364D01*
X49174500Y-88714364D01*
X49174500Y-89285636D01*
X49185134Y-89358625D01*
X49240174Y-89471211D01*
X49328789Y-89559826D01*
X49368980Y-89579474D01*
X49412954Y-89622017D01*
X49424500Y-89668415D01*
X49424500Y-89904557D01*
X49411236Y-89954057D01*
X49355202Y-90051108D01*
X49355201Y-90051113D01*
X49324500Y-90165690D01*
X49324500Y-90284308D01*
X49351574Y-90385350D01*
X49355202Y-90398889D01*
X49414507Y-90501607D01*
X49414509Y-90501609D01*
X49414511Y-90501612D01*
X49498387Y-90585488D01*
X49498389Y-90585489D01*
X49498391Y-90585491D01*
X49601110Y-90644796D01*
X49601111Y-90644796D01*
X49601114Y-90644798D01*
X49715691Y-90675499D01*
X49715693Y-90675499D01*
X49834307Y-90675499D01*
X49834309Y-90675499D01*
X49948886Y-90644798D01*
X49948888Y-90644796D01*
X49948890Y-90644796D01*
X50051608Y-90585491D01*
X50051608Y-90585490D01*
X50051613Y-90585488D01*
X50135489Y-90501612D01*
X50194799Y-90398885D01*
X50225500Y-90284308D01*
X50225500Y-90165690D01*
X50194799Y-90051113D01*
X50194797Y-90051110D01*
X50194797Y-90051108D01*
X50138764Y-89954057D01*
X50125500Y-89904557D01*
X50125500Y-89668415D01*
X50144407Y-89610224D01*
X50181020Y-89579474D01*
X50221211Y-89559826D01*
X50309826Y-89471211D01*
X50364866Y-89358625D01*
X50375500Y-89285636D01*
X50375500Y-88714364D01*
X50364866Y-88641375D01*
X50309826Y-88528789D01*
X50221211Y-88440174D01*
X50108625Y-88385134D01*
X50108626Y-88385134D01*
X50090377Y-88382475D01*
X50035636Y-88374500D01*
X49514364Y-88374500D01*
X49470570Y-88380880D01*
X49441373Y-88385134D01*
X49328790Y-88440173D01*
X49240173Y-88528790D01*
X49185134Y-88641373D01*
X49180880Y-88670570D01*
X49174500Y-88714364D01*
X33000000Y-88714364D01*
X33000000Y-87599000D01*
X33018907Y-87540809D01*
X33068407Y-87504845D01*
X33099000Y-87500000D01*
X50369377Y-87500000D01*
X50427568Y-87518907D01*
G37*
%TD.AperFunction*%
%TD*%
M02*
