%TF.GenerationSoftware,KiCad,Pcbnew,10.0.5-10.0.5~ubuntu24.04.1*%
%TF.CreationDate,2026-09-02T19:48:10-06:00*%
%TF.ProjectId,can_fd_node,63616e5f-6664-45f6-9e6f-64652e6b6963,rev?*%
%TF.SameCoordinates,Original*%
%TF.FileFunction,Copper,L2,Bot*%
%TF.FilePolarity,Positive*%
%FSLAX46Y46*%
G04 Gerber Fmt 4.6, Leading zero omitted, Abs format (unit mm)*
G04 Created by KiCad (PCBNEW 10.0.5-10.0.5~ubuntu24.04.1) date 2026-09-02 19:48:10*
%MOMM*%
%LPD*%
G01*
G04 APERTURE LIST*
%TA.AperFunction,ComponentPad*%
%ADD10R,2.600000X2.600000*%
%TD*%
%TA.AperFunction,ComponentPad*%
%ADD11C,2.600000*%
%TD*%
%TA.AperFunction,ComponentPad*%
%ADD12R,1.700000X1.700000*%
%TD*%
%TA.AperFunction,ComponentPad*%
%ADD13C,1.700000*%
%TD*%
%TA.AperFunction,ViaPad*%
%ADD14C,0.600000*%
%TD*%
%TA.AperFunction,Conductor*%
%ADD15C,0.250000*%
%TD*%
%TA.AperFunction,Conductor*%
%ADD16C,1.000000*%
%TD*%
G04 APERTURE END LIST*
D10*
%TO.P,J2,1*%
%TO.N,GND*%
X84920000Y-104500000D03*
D11*
%TO.P,J2,2*%
%TO.N,CANL*%
X90000000Y-104500000D03*
%TO.P,J2,3*%
%TO.N,CANH*%
X95080000Y-104500000D03*
%TD*%
D10*
%TO.P,J4,1*%
%TO.N,GND*%
X96160000Y-49500000D03*
D11*
%TO.P,J4,2*%
%TO.N,DI1*%
X91080000Y-49500000D03*
%TO.P,J4,3*%
%TO.N,DI2*%
X86000000Y-49500000D03*
%TO.P,J4,4*%
%TO.N,DI3*%
X80920000Y-49500000D03*
%TO.P,J4,5*%
%TO.N,DI4*%
X75840000Y-49500000D03*
%TD*%
D10*
%TO.P,J1,1*%
%TO.N,V24*%
X40460000Y-104500000D03*
D11*
%TO.P,J1,2*%
%TO.N,RTN*%
X45540000Y-104500000D03*
%TD*%
D12*
%TO.P,J5,1*%
%TO.N,+3V3*%
X108000000Y-70000000D03*
D13*
%TO.P,J5,2*%
%TO.N,SWD_DIO*%
X108000000Y-72540000D03*
%TO.P,J5,3*%
%TO.N,SWD_CLK*%
X108000000Y-75080000D03*
%TO.P,J5,4*%
%TO.N,NRST*%
X108000000Y-77620000D03*
%TO.P,J5,5*%
%TO.N,GND*%
X108000000Y-80160000D03*
%TD*%
D10*
%TO.P,J3,1*%
%TO.N,VFIELD*%
X60160000Y-49500000D03*
D11*
%TO.P,J3,2*%
%TO.N,DO1*%
X55080000Y-49500000D03*
%TO.P,J3,3*%
%TO.N,DO2*%
X50000000Y-49500000D03*
%TO.P,J3,4*%
%TO.N,DO3*%
X44920000Y-49500000D03*
%TO.P,J3,5*%
%TO.N,DO4*%
X39840000Y-49500000D03*
%TD*%
D12*
%TO.P,J7,1*%
%TO.N,TERM_L*%
X81039999Y-91000000D03*
D13*
%TO.P,J7,2*%
%TO.N,TERM_SPLIT*%
X78499999Y-91000000D03*
%TD*%
D12*
%TO.P,J6,1*%
%TO.N,TERM_H*%
X104039999Y-91000000D03*
D13*
%TO.P,J6,2*%
%TO.N,TERM_SPLIT*%
X106579999Y-91000000D03*
%TD*%
D14*
%TO.N,DI4_DIV*%
X74700000Y-66400000D03*
X73800000Y-69500000D03*
X74800000Y-64500000D03*
X74700000Y-72800000D03*
%TO.N,GND*%
X74275000Y-94224999D03*
X67775000Y-83724999D03*
X65775000Y-68775001D03*
X66975000Y-106850000D03*
X73950000Y-103274999D03*
X74615001Y-62075000D03*
X74825000Y-85224999D03*
X96814999Y-77224999D03*
X84775001Y-62075000D03*
X47357500Y-64937500D03*
X58280000Y-60849999D03*
X89814999Y-77224999D03*
X79275000Y-85724999D03*
X57517500Y-64937500D03*
X66775000Y-68724999D03*
X61475000Y-103550000D03*
X49562500Y-99437500D03*
X76275000Y-80224999D03*
X59275000Y-82224999D03*
X79450000Y-88974999D03*
X38615001Y-67175000D03*
X71775000Y-83724999D03*
X43695001Y-67175000D03*
X53712500Y-86724999D03*
X79695001Y-62075000D03*
X79695001Y-68925000D03*
X68775001Y-66675000D03*
X55825000Y-97224999D03*
X54325000Y-102624999D03*
X42277500Y-64937500D03*
X89855001Y-68925000D03*
X92539999Y-98100000D03*
X72050000Y-84600000D03*
X65700000Y-73325000D03*
X48775001Y-67175000D03*
X89855001Y-62075000D03*
X99364999Y-82224999D03*
X74615001Y-68925000D03*
X57450001Y-98600000D03*
X48119999Y-60849999D03*
X93174999Y-76800001D03*
X73950000Y-106274999D03*
X43040000Y-60849999D03*
X68000000Y-103000000D03*
X105355001Y-85725000D03*
X54000000Y-82250000D03*
X52437500Y-64937500D03*
X60350000Y-79850000D03*
X84775001Y-68925000D03*
X59275000Y-74224999D03*
X56650000Y-74150000D03*
X53650000Y-94849999D03*
X53855001Y-67175000D03*
X49775000Y-90224999D03*
X69700000Y-78675000D03*
X71300000Y-78675000D03*
X44200000Y-94000000D03*
X53200000Y-60849999D03*
%TO.N,SWCLK*%
X77700000Y-78800000D03*
X74100000Y-74000000D03*
%TO.N,SWD_CLK*%
X89700000Y-79700000D03*
X84800000Y-78200000D03*
%TO.N,VFIELD*%
X62400000Y-80000000D03*
X62400000Y-68500000D03*
%TO.N,+5V*%
X89200000Y-78000000D03*
X92000000Y-76900000D03*
X76100000Y-85800000D03*
%TO.N,DI2_DIV*%
X84900000Y-66600000D03*
X84100000Y-68200000D03*
X87200000Y-72200000D03*
X87200000Y-70600000D03*
%TO.N,DI2_IN*%
X83500000Y-71500000D03*
X84900000Y-73000000D03*
%TO.N,DI3_DIV*%
X79900000Y-64500000D03*
X82100000Y-69100000D03*
X79800000Y-66400000D03*
X77000000Y-72200000D03*
%TO.N,EN*%
X56700000Y-99900000D03*
X60000000Y-100300000D03*
%TO.N,+3V3*%
X64800000Y-72300000D03*
X68700000Y-81600000D03*
X64800000Y-68800000D03*
X86800000Y-65200000D03*
X92600000Y-81900000D03*
X95500000Y-79200000D03*
X56200000Y-82300000D03*
X64100000Y-86900000D03*
X63600000Y-66700000D03*
X85200000Y-65200000D03*
%TO.N,XIN*%
X61300000Y-66400000D03*
X68800000Y-73900000D03*
%TO.N,XOUT*%
X58600000Y-76200000D03*
X58600000Y-77900000D03*
X65800000Y-75900000D03*
%TO.N,DO4_DRV*%
X61200000Y-82800000D03*
X63500000Y-82100000D03*
%TO.N,CAN_STB*%
X98400000Y-82100000D03*
X65800000Y-77800000D03*
X67900000Y-77800000D03*
X95400000Y-83700000D03*
X64800000Y-80100000D03*
X73700000Y-81800000D03*
X89300000Y-83700000D03*
%TO.N,STATUS*%
X61300000Y-85200000D03*
X65900000Y-78700000D03*
%TO.N,DI1_IN*%
X82100000Y-73700000D03*
X80100000Y-76400000D03*
%TO.N,CAN_TXD*%
X89900000Y-74200000D03*
X83900000Y-76400000D03*
X83900000Y-74800000D03*
X91600000Y-75700000D03*
%TO.N,SWDIO*%
X71300000Y-76500000D03*
X80900000Y-78500000D03*
%TO.N,DI3_IN*%
X79700000Y-72200000D03*
X79200000Y-70600000D03*
%TO.N,DI4_IN*%
X72200000Y-72200000D03*
X71200000Y-73200000D03*
%TO.N,DO1_GATE*%
X56300000Y-69300000D03*
X56300000Y-71000000D03*
%TO.N,DO2_GATE*%
X51200000Y-71300000D03*
X51200000Y-69300000D03*
%TO.N,DI1_DIV*%
X92200000Y-68200000D03*
X92200000Y-66600000D03*
%TO.N,SWD_DIO*%
X104800000Y-79400000D03*
X84100000Y-81300000D03*
X104800000Y-77200000D03*
X83000000Y-78800000D03*
%TD*%
%TO.N,DI4_DIV*%
D15*
X74200000Y-69900000D02*
X74200000Y-71400000D01*
X73800000Y-69500000D02*
X74200000Y-69900000D01*
X74300000Y-71700000D02*
X74800000Y-72200000D01*
X73700000Y-67400000D02*
X73800000Y-69500000D01*
X74800000Y-64500000D02*
X74700000Y-66400000D01*
X74200000Y-71400000D02*
X74300000Y-71500000D01*
X74300000Y-71500000D02*
X74300000Y-71700000D01*
X74800000Y-72200000D02*
X74700000Y-72800000D01*
X74700000Y-66400000D02*
X73700000Y-67400000D01*
%TO.N,SWCLK*%
X77700000Y-78800000D02*
X77700000Y-77600000D01*
X77700000Y-77600000D02*
X74100000Y-74000000D01*
%TO.N,SWD_CLK*%
X86300000Y-79700000D02*
X89700000Y-79700000D01*
X84800000Y-78200000D02*
X86300000Y-79700000D01*
%TO.N,VFIELD*%
D16*
X62400000Y-80000000D02*
X62400000Y-68500000D01*
%TO.N,+5V*%
D15*
X92000000Y-78100000D02*
X92000000Y-76900000D01*
X90700000Y-78000000D02*
X89200000Y-78000000D01*
X78300000Y-84000000D02*
X87500000Y-84000000D01*
X91500000Y-78600000D02*
X92000000Y-78100000D01*
X91500000Y-78600000D02*
X90800000Y-77900000D01*
X90800000Y-77900000D02*
X90700000Y-78000000D01*
X87500000Y-84000000D02*
X92200000Y-79300000D01*
X92200000Y-79300000D02*
X91500000Y-78600000D01*
X76500000Y-85800000D02*
X78300000Y-84000000D01*
X76100000Y-85800000D02*
X76500000Y-85800000D01*
%TO.N,DI2_DIV*%
X84900000Y-66600000D02*
X84100000Y-67400000D01*
X84100000Y-67400000D02*
X84100000Y-68200000D01*
X87200000Y-70600000D02*
X87200000Y-72200000D01*
%TO.N,DI2_IN*%
X84900000Y-73000000D02*
X83500000Y-71500000D01*
%TO.N,DI3_DIV*%
X79900000Y-64500000D02*
X79800000Y-66400000D01*
X79800000Y-66800000D02*
X82100000Y-69100000D01*
X79800000Y-66400000D02*
X79800000Y-66800000D01*
X79800000Y-66800000D02*
X77000000Y-69600000D01*
X77000000Y-69600000D02*
X77000000Y-72200000D01*
%TO.N,EN*%
X56700000Y-99900000D02*
X57100000Y-100300000D01*
X57100000Y-100300000D02*
X60000000Y-100300000D01*
%TO.N,+3V3*%
X64900000Y-69100000D02*
X64800000Y-68800000D01*
X65300000Y-72300000D02*
X64800000Y-72300000D01*
X60800000Y-86900000D02*
X56200000Y-82300000D01*
X65000000Y-69300000D02*
X65000000Y-69200000D01*
X68700000Y-81600000D02*
X68700000Y-75000000D01*
X68700000Y-75000000D02*
X66000000Y-72300000D01*
X85200000Y-65200000D02*
X86800000Y-65200000D01*
X65100000Y-69900000D02*
X65100000Y-69400000D01*
X65300000Y-70100000D02*
X65100000Y-69900000D01*
X65000000Y-69200000D02*
X64900000Y-69100000D01*
X63600000Y-67400000D02*
X63600000Y-66700000D01*
X95500000Y-79200000D02*
X92600000Y-81900000D01*
X65100000Y-69400000D02*
X65000000Y-69300000D01*
X64800000Y-68800000D02*
X63600000Y-67400000D01*
X66000000Y-72300000D02*
X65300000Y-72300000D01*
X65300000Y-72300000D02*
X65300000Y-70100000D01*
X64100000Y-86900000D02*
X60800000Y-86900000D01*
%TO.N,XIN*%
X65600000Y-64800000D02*
X62900000Y-64800000D01*
X68800000Y-68000000D02*
X65600000Y-64800000D01*
X68800000Y-73900000D02*
X68800000Y-68000000D01*
X62900000Y-64800000D02*
X61300000Y-66400000D01*
%TO.N,XOUT*%
X58600000Y-79400000D02*
X60200000Y-81000000D01*
X60200000Y-81000000D02*
X62800000Y-81000000D01*
X65200000Y-76700000D02*
X65200000Y-76500000D01*
X64300000Y-79500000D02*
X64300000Y-78400000D01*
X62800000Y-81000000D02*
X64300000Y-79500000D01*
X64800000Y-77300000D02*
X65000000Y-77100000D01*
X64400000Y-78300000D02*
X64400000Y-78100000D01*
X65000000Y-77100000D02*
X65000000Y-76900000D01*
X58600000Y-77900000D02*
X58600000Y-79400000D01*
X64400000Y-78100000D02*
X64600000Y-77900000D01*
X64600000Y-77900000D02*
X64600000Y-77700000D01*
X65200000Y-76500000D02*
X65800000Y-75900000D01*
X64300000Y-78400000D02*
X64400000Y-78300000D01*
X65000000Y-76900000D02*
X65200000Y-76700000D01*
X64800000Y-77500000D02*
X64800000Y-77300000D01*
X64600000Y-77700000D02*
X64800000Y-77500000D01*
X58600000Y-77900000D02*
X58600000Y-76200000D01*
%TO.N,DO4_DRV*%
X62800000Y-82800000D02*
X61200000Y-82800000D01*
X63500000Y-82100000D02*
X62800000Y-82800000D01*
%TO.N,CAN_STB*%
X68400000Y-82500000D02*
X70400000Y-82500000D01*
X89300000Y-83700000D02*
X95400000Y-83700000D01*
X97000000Y-82100000D02*
X98400000Y-82100000D01*
X71100000Y-81800000D02*
X73700000Y-81800000D01*
X67900000Y-82000000D02*
X68400000Y-82500000D01*
X64800000Y-80100000D02*
X65000000Y-78400000D01*
X65000000Y-78400000D02*
X65800000Y-77800000D01*
X70400000Y-82500000D02*
X71100000Y-81800000D01*
X67900000Y-77800000D02*
X67900000Y-82000000D01*
X95400000Y-83700000D02*
X97000000Y-82100000D01*
%TO.N,STATUS*%
X65900000Y-82600000D02*
X63300000Y-85200000D01*
X63300000Y-85200000D02*
X61300000Y-85200000D01*
X65900000Y-78700000D02*
X65900000Y-82600000D01*
%TO.N,DI1_IN*%
X81500000Y-75000000D02*
X81500000Y-74300000D01*
X81500000Y-74300000D02*
X82100000Y-73700000D01*
X80100000Y-76400000D02*
X81500000Y-75000000D01*
%TO.N,CAN_TXD*%
X89900000Y-74200000D02*
X91600000Y-75700000D01*
X83900000Y-74800000D02*
X83900000Y-76400000D01*
%TO.N,SWDIO*%
X78200000Y-81200000D02*
X80900000Y-78500000D01*
X71300000Y-76500000D02*
X76000000Y-81200000D01*
X76000000Y-81200000D02*
X78200000Y-81200000D01*
%TO.N,DI3_IN*%
X79200000Y-71700000D02*
X79700000Y-72200000D01*
X79200000Y-70600000D02*
X79200000Y-71700000D01*
%TO.N,DI4_IN*%
X72200000Y-72200000D02*
X71200000Y-73200000D01*
%TO.N,DO1_GATE*%
X56300000Y-69300000D02*
X56300000Y-71000000D01*
%TO.N,DO2_GATE*%
X51200000Y-69300000D02*
X51200000Y-71300000D01*
%TO.N,DI1_DIV*%
X92200000Y-66600000D02*
X92200000Y-68200000D01*
%TO.N,SWD_DIO*%
X104800000Y-79400000D02*
X104800000Y-77200000D01*
X83000000Y-78800000D02*
X83000000Y-80200000D01*
X83000000Y-80200000D02*
X84100000Y-81300000D01*
%TD*%
%TA.AperFunction,Conductor*%
%TO.N,GND*%
G36*
X113459191Y-44518907D02*
G01*
X113495155Y-44568407D01*
X113500000Y-44599000D01*
X113500000Y-109401000D01*
X113481093Y-109459191D01*
X113431593Y-109495155D01*
X113401000Y-109500000D01*
X30599000Y-109500000D01*
X30540809Y-109481093D01*
X30504845Y-109431593D01*
X30500000Y-109401000D01*
X30500000Y-106378710D01*
X31649500Y-106378710D01*
X31649500Y-106621289D01*
X31681161Y-106861781D01*
X31681161Y-106861786D01*
X31743944Y-107096092D01*
X31743948Y-107096105D01*
X31836772Y-107320204D01*
X31836774Y-107320208D01*
X31836776Y-107320212D01*
X31958064Y-107530289D01*
X31958066Y-107530292D01*
X32105729Y-107722731D01*
X32105731Y-107722733D01*
X32105735Y-107722738D01*
X32277262Y-107894265D01*
X32277266Y-107894268D01*
X32277268Y-107894270D01*
X32469707Y-108041933D01*
X32469711Y-108041936D01*
X32679788Y-108163224D01*
X32903900Y-108256054D01*
X33138211Y-108318838D01*
X33378712Y-108350500D01*
X33378713Y-108350500D01*
X33621287Y-108350500D01*
X33621288Y-108350500D01*
X33861789Y-108318838D01*
X34096100Y-108256054D01*
X34320212Y-108163224D01*
X34530289Y-108041936D01*
X34722738Y-107894265D01*
X34894265Y-107722738D01*
X35041936Y-107530289D01*
X35163224Y-107320212D01*
X35256054Y-107096100D01*
X35318838Y-106861789D01*
X35350500Y-106621288D01*
X35350500Y-106378712D01*
X35350500Y-106378710D01*
X108649500Y-106378710D01*
X108649500Y-106621289D01*
X108681161Y-106861781D01*
X108681161Y-106861786D01*
X108743944Y-107096092D01*
X108743948Y-107096105D01*
X108836772Y-107320204D01*
X108836774Y-107320208D01*
X108836776Y-107320212D01*
X108958064Y-107530289D01*
X108958066Y-107530292D01*
X109105729Y-107722731D01*
X109105731Y-107722733D01*
X109105735Y-107722738D01*
X109277262Y-107894265D01*
X109277266Y-107894268D01*
X109277268Y-107894270D01*
X109469707Y-108041933D01*
X109469711Y-108041936D01*
X109679788Y-108163224D01*
X109903900Y-108256054D01*
X110138211Y-108318838D01*
X110378712Y-108350500D01*
X110378713Y-108350500D01*
X110621287Y-108350500D01*
X110621288Y-108350500D01*
X110861789Y-108318838D01*
X111096100Y-108256054D01*
X111320212Y-108163224D01*
X111530289Y-108041936D01*
X111722738Y-107894265D01*
X111894265Y-107722738D01*
X112041936Y-107530289D01*
X112163224Y-107320212D01*
X112256054Y-107096100D01*
X112318838Y-106861789D01*
X112350500Y-106621288D01*
X112350500Y-106378712D01*
X112318838Y-106138211D01*
X112256054Y-105903900D01*
X112163224Y-105679788D01*
X112041936Y-105469711D01*
X111894265Y-105277262D01*
X111722738Y-105105735D01*
X111722733Y-105105731D01*
X111722731Y-105105729D01*
X111530292Y-104958066D01*
X111530289Y-104958064D01*
X111320212Y-104836776D01*
X111320208Y-104836774D01*
X111320204Y-104836772D01*
X111096105Y-104743948D01*
X111096104Y-104743947D01*
X111096100Y-104743946D01*
X110861789Y-104681162D01*
X110861786Y-104681161D01*
X110861784Y-104681161D01*
X110621289Y-104649500D01*
X110621288Y-104649500D01*
X110378712Y-104649500D01*
X110378710Y-104649500D01*
X110138218Y-104681161D01*
X110138213Y-104681161D01*
X109903907Y-104743944D01*
X109903894Y-104743948D01*
X109679795Y-104836772D01*
X109469707Y-104958066D01*
X109277268Y-105105729D01*
X109105729Y-105277268D01*
X108958066Y-105469707D01*
X108836772Y-105679795D01*
X108743948Y-105903894D01*
X108743944Y-105903907D01*
X108681161Y-106138213D01*
X108681161Y-106138218D01*
X108649500Y-106378710D01*
X35350500Y-106378710D01*
X35318838Y-106138211D01*
X35256054Y-105903900D01*
X35163224Y-105679788D01*
X35041936Y-105469711D01*
X34894265Y-105277262D01*
X34722738Y-105105735D01*
X34722733Y-105105731D01*
X34722731Y-105105729D01*
X34530292Y-104958066D01*
X34530289Y-104958064D01*
X34320212Y-104836776D01*
X34320208Y-104836774D01*
X34320204Y-104836772D01*
X34096105Y-104743948D01*
X34096104Y-104743947D01*
X34096100Y-104743946D01*
X33861789Y-104681162D01*
X33861786Y-104681161D01*
X33861784Y-104681161D01*
X33621289Y-104649500D01*
X33621288Y-104649500D01*
X33378712Y-104649500D01*
X33378710Y-104649500D01*
X33138218Y-104681161D01*
X33138213Y-104681161D01*
X32903907Y-104743944D01*
X32903894Y-104743948D01*
X32679795Y-104836772D01*
X32469707Y-104958066D01*
X32277268Y-105105729D01*
X32105729Y-105277268D01*
X31958066Y-105469707D01*
X31836772Y-105679795D01*
X31743948Y-105903894D01*
X31743944Y-105903907D01*
X31681161Y-106138213D01*
X31681161Y-106138218D01*
X31649500Y-106378710D01*
X30500000Y-106378710D01*
X30500000Y-103185172D01*
X39009500Y-103185172D01*
X39009500Y-105814827D01*
X39018232Y-105858720D01*
X39018233Y-105858722D01*
X39051496Y-105908504D01*
X39101278Y-105941767D01*
X39112327Y-105943964D01*
X39145172Y-105950499D01*
X39145178Y-105950499D01*
X39145180Y-105950500D01*
X39145181Y-105950500D01*
X41774819Y-105950500D01*
X41774820Y-105950500D01*
X41774821Y-105950499D01*
X41774827Y-105950499D01*
X41796623Y-105946162D01*
X41818722Y-105941767D01*
X41868504Y-105908504D01*
X41901767Y-105858722D01*
X41910500Y-105814820D01*
X41910500Y-104385839D01*
X44089500Y-104385839D01*
X44089500Y-104614160D01*
X44125214Y-104839655D01*
X44195769Y-105056799D01*
X44299420Y-105260227D01*
X44299424Y-105260233D01*
X44433616Y-105444931D01*
X44433618Y-105444933D01*
X44433621Y-105444937D01*
X44595063Y-105606379D01*
X44595066Y-105606381D01*
X44595068Y-105606383D01*
X44779766Y-105740575D01*
X44779772Y-105740579D01*
X44983201Y-105844231D01*
X45200340Y-105914784D01*
X45200341Y-105914784D01*
X45200344Y-105914785D01*
X45425840Y-105950500D01*
X45425843Y-105950500D01*
X45654160Y-105950500D01*
X45879655Y-105914785D01*
X45879656Y-105914784D01*
X45879660Y-105914784D01*
X46096799Y-105844231D01*
X46300228Y-105740579D01*
X46484937Y-105606379D01*
X46646379Y-105444937D01*
X46780579Y-105260228D01*
X46884231Y-105056799D01*
X46954784Y-104839660D01*
X46955241Y-104836776D01*
X46990500Y-104614160D01*
X46990500Y-104385839D01*
X88549500Y-104385839D01*
X88549500Y-104614160D01*
X88585214Y-104839655D01*
X88655769Y-105056799D01*
X88759420Y-105260227D01*
X88759424Y-105260233D01*
X88893616Y-105444931D01*
X88893618Y-105444933D01*
X88893621Y-105444937D01*
X89055063Y-105606379D01*
X89055066Y-105606381D01*
X89055068Y-105606383D01*
X89239766Y-105740575D01*
X89239772Y-105740579D01*
X89443201Y-105844231D01*
X89660340Y-105914784D01*
X89660341Y-105914784D01*
X89660344Y-105914785D01*
X89885840Y-105950500D01*
X89885843Y-105950500D01*
X90114160Y-105950500D01*
X90339655Y-105914785D01*
X90339656Y-105914784D01*
X90339660Y-105914784D01*
X90556799Y-105844231D01*
X90760228Y-105740579D01*
X90944937Y-105606379D01*
X91106379Y-105444937D01*
X91240579Y-105260228D01*
X91344231Y-105056799D01*
X91414784Y-104839660D01*
X91415241Y-104836776D01*
X91450500Y-104614160D01*
X91450500Y-104385839D01*
X93629500Y-104385839D01*
X93629500Y-104614160D01*
X93665214Y-104839655D01*
X93735769Y-105056799D01*
X93839420Y-105260227D01*
X93839424Y-105260233D01*
X93973616Y-105444931D01*
X93973618Y-105444933D01*
X93973621Y-105444937D01*
X94135063Y-105606379D01*
X94135066Y-105606381D01*
X94135068Y-105606383D01*
X94319766Y-105740575D01*
X94319772Y-105740579D01*
X94523201Y-105844231D01*
X94740340Y-105914784D01*
X94740341Y-105914784D01*
X94740344Y-105914785D01*
X94965840Y-105950500D01*
X94965843Y-105950500D01*
X95194160Y-105950500D01*
X95419655Y-105914785D01*
X95419656Y-105914784D01*
X95419660Y-105914784D01*
X95636799Y-105844231D01*
X95840228Y-105740579D01*
X96024937Y-105606379D01*
X96186379Y-105444937D01*
X96320579Y-105260228D01*
X96424231Y-105056799D01*
X96494784Y-104839660D01*
X96495241Y-104836776D01*
X96530500Y-104614160D01*
X96530500Y-104385839D01*
X96494785Y-104160344D01*
X96494784Y-104160340D01*
X96424231Y-103943201D01*
X96320579Y-103739772D01*
X96186379Y-103555063D01*
X96024937Y-103393621D01*
X96024933Y-103393618D01*
X96024931Y-103393616D01*
X95840233Y-103259424D01*
X95840227Y-103259420D01*
X95636799Y-103155769D01*
X95419655Y-103085214D01*
X95194160Y-103049500D01*
X95194157Y-103049500D01*
X94965843Y-103049500D01*
X94965840Y-103049500D01*
X94740344Y-103085214D01*
X94523200Y-103155769D01*
X94319772Y-103259420D01*
X94319766Y-103259424D01*
X94135068Y-103393616D01*
X93973616Y-103555068D01*
X93839424Y-103739766D01*
X93839420Y-103739772D01*
X93735769Y-103943200D01*
X93665214Y-104160344D01*
X93629500Y-104385839D01*
X91450500Y-104385839D01*
X91414785Y-104160344D01*
X91414784Y-104160340D01*
X91344231Y-103943201D01*
X91240579Y-103739772D01*
X91106379Y-103555063D01*
X90944937Y-103393621D01*
X90944933Y-103393618D01*
X90944931Y-103393616D01*
X90760233Y-103259424D01*
X90760227Y-103259420D01*
X90556799Y-103155769D01*
X90339655Y-103085214D01*
X90114160Y-103049500D01*
X90114157Y-103049500D01*
X89885843Y-103049500D01*
X89885840Y-103049500D01*
X89660344Y-103085214D01*
X89443200Y-103155769D01*
X89239772Y-103259420D01*
X89239766Y-103259424D01*
X89055068Y-103393616D01*
X88893616Y-103555068D01*
X88759424Y-103739766D01*
X88759420Y-103739772D01*
X88655769Y-103943200D01*
X88585214Y-104160344D01*
X88549500Y-104385839D01*
X46990500Y-104385839D01*
X46954785Y-104160344D01*
X46954784Y-104160340D01*
X46884231Y-103943201D01*
X46780579Y-103739772D01*
X46646379Y-103555063D01*
X46484937Y-103393621D01*
X46484933Y-103393618D01*
X46484931Y-103393616D01*
X46300233Y-103259424D01*
X46300227Y-103259420D01*
X46096799Y-103155769D01*
X45879655Y-103085214D01*
X45654160Y-103049500D01*
X45654157Y-103049500D01*
X45425843Y-103049500D01*
X45425840Y-103049500D01*
X45200344Y-103085214D01*
X44983200Y-103155769D01*
X44779772Y-103259420D01*
X44779766Y-103259424D01*
X44595068Y-103393616D01*
X44433616Y-103555068D01*
X44299424Y-103739766D01*
X44299420Y-103739772D01*
X44195769Y-103943200D01*
X44125214Y-104160344D01*
X44089500Y-104385839D01*
X41910500Y-104385839D01*
X41910500Y-103185180D01*
X41910499Y-103185178D01*
X41910499Y-103185172D01*
X41901767Y-103141279D01*
X41901765Y-103141275D01*
X41868505Y-103091498D01*
X41868504Y-103091496D01*
X41859102Y-103085214D01*
X41818724Y-103058234D01*
X41818720Y-103058232D01*
X41774827Y-103049500D01*
X41774820Y-103049500D01*
X39145180Y-103049500D01*
X39145172Y-103049500D01*
X39101279Y-103058232D01*
X39101275Y-103058234D01*
X39051498Y-103091494D01*
X39051494Y-103091498D01*
X39018234Y-103141275D01*
X39018232Y-103141279D01*
X39009500Y-103185172D01*
X30500000Y-103185172D01*
X30500000Y-99840691D01*
X56249500Y-99840691D01*
X56249500Y-99959309D01*
X56266670Y-100023387D01*
X56280202Y-100073890D01*
X56339507Y-100176608D01*
X56339509Y-100176610D01*
X56339511Y-100176613D01*
X56423387Y-100260489D01*
X56423389Y-100260490D01*
X56423391Y-100260492D01*
X56526110Y-100319797D01*
X56526111Y-100319797D01*
X56526114Y-100319799D01*
X56640691Y-100350500D01*
X56640693Y-100350500D01*
X56719876Y-100350500D01*
X56778067Y-100369407D01*
X56789879Y-100379496D01*
X56884270Y-100473886D01*
X56943941Y-100533557D01*
X56973595Y-100545839D01*
X56973597Y-100545841D01*
X56973598Y-100545841D01*
X57009399Y-100560670D01*
X57045200Y-100575500D01*
X59597391Y-100575500D01*
X59655582Y-100594407D01*
X59667388Y-100604490D01*
X59723387Y-100660489D01*
X59723389Y-100660490D01*
X59723391Y-100660492D01*
X59826110Y-100719797D01*
X59826111Y-100719797D01*
X59826114Y-100719799D01*
X59940691Y-100750500D01*
X59940693Y-100750500D01*
X60059307Y-100750500D01*
X60059309Y-100750500D01*
X60173886Y-100719799D01*
X60173888Y-100719797D01*
X60173890Y-100719797D01*
X60276608Y-100660492D01*
X60276608Y-100660491D01*
X60276613Y-100660489D01*
X60360489Y-100576613D01*
X60361132Y-100575500D01*
X60419797Y-100473890D01*
X60419797Y-100473888D01*
X60419799Y-100473886D01*
X60450500Y-100359309D01*
X60450500Y-100240691D01*
X60419799Y-100126114D01*
X60419797Y-100126111D01*
X60419797Y-100126109D01*
X60360492Y-100023391D01*
X60360490Y-100023389D01*
X60360489Y-100023387D01*
X60276613Y-99939511D01*
X60276610Y-99939509D01*
X60276608Y-99939507D01*
X60173889Y-99880202D01*
X60173890Y-99880202D01*
X60160351Y-99876574D01*
X60059309Y-99849500D01*
X59940691Y-99849500D01*
X59870567Y-99868289D01*
X59826109Y-99880202D01*
X59723391Y-99939507D01*
X59723390Y-99939508D01*
X59723387Y-99939510D01*
X59723387Y-99939511D01*
X59667392Y-99995505D01*
X59612878Y-100023281D01*
X59597391Y-100024500D01*
X57255124Y-100024500D01*
X57196933Y-100005593D01*
X57185120Y-99995504D01*
X57179496Y-99989880D01*
X57151719Y-99935363D01*
X57150500Y-99919876D01*
X57150500Y-99840692D01*
X57150500Y-99840691D01*
X57119799Y-99726114D01*
X57119797Y-99726111D01*
X57119797Y-99726109D01*
X57060492Y-99623391D01*
X57060490Y-99623389D01*
X57060489Y-99623387D01*
X56976613Y-99539511D01*
X56976610Y-99539509D01*
X56976608Y-99539507D01*
X56873889Y-99480202D01*
X56873890Y-99480202D01*
X56860351Y-99476574D01*
X56759309Y-99449500D01*
X56640691Y-99449500D01*
X56570567Y-99468289D01*
X56526109Y-99480202D01*
X56423391Y-99539507D01*
X56339507Y-99623391D01*
X56280202Y-99726109D01*
X56280201Y-99726114D01*
X56249500Y-99840691D01*
X30500000Y-99840691D01*
X30500000Y-90901456D01*
X77499499Y-90901456D01*
X77499499Y-91098543D01*
X77537948Y-91291834D01*
X77537948Y-91291836D01*
X77613366Y-91473913D01*
X77613367Y-91473914D01*
X77722860Y-91637782D01*
X77862217Y-91777139D01*
X78026085Y-91886632D01*
X78208164Y-91962051D01*
X78401458Y-92000500D01*
X78401459Y-92000500D01*
X78598539Y-92000500D01*
X78598540Y-92000500D01*
X78791834Y-91962051D01*
X78973913Y-91886632D01*
X79137781Y-91777139D01*
X79277138Y-91637782D01*
X79386631Y-91473914D01*
X79462050Y-91291835D01*
X79500499Y-91098541D01*
X79500499Y-90901459D01*
X79462050Y-90708165D01*
X79386631Y-90526086D01*
X79277138Y-90362218D01*
X79137781Y-90222861D01*
X79035080Y-90154239D01*
X79006545Y-90135172D01*
X80039499Y-90135172D01*
X80039499Y-91864827D01*
X80048231Y-91908720D01*
X80048232Y-91908722D01*
X80081495Y-91958504D01*
X80131277Y-91991767D01*
X80142326Y-91993964D01*
X80175171Y-92000499D01*
X80175177Y-92000499D01*
X80175179Y-92000500D01*
X80175180Y-92000500D01*
X81904818Y-92000500D01*
X81904819Y-92000500D01*
X81904820Y-92000499D01*
X81904826Y-92000499D01*
X81926622Y-91996162D01*
X81948721Y-91991767D01*
X81998503Y-91958504D01*
X82031766Y-91908722D01*
X82040499Y-91864820D01*
X82040499Y-90135180D01*
X82040498Y-90135178D01*
X82040498Y-90135172D01*
X103039499Y-90135172D01*
X103039499Y-91864827D01*
X103048231Y-91908720D01*
X103048232Y-91908722D01*
X103081495Y-91958504D01*
X103131277Y-91991767D01*
X103142326Y-91993964D01*
X103175171Y-92000499D01*
X103175177Y-92000499D01*
X103175179Y-92000500D01*
X103175180Y-92000500D01*
X104904818Y-92000500D01*
X104904819Y-92000500D01*
X104904820Y-92000499D01*
X104904826Y-92000499D01*
X104926622Y-91996162D01*
X104948721Y-91991767D01*
X104998503Y-91958504D01*
X105031766Y-91908722D01*
X105040499Y-91864820D01*
X105040499Y-90901456D01*
X105579499Y-90901456D01*
X105579499Y-91098543D01*
X105617948Y-91291834D01*
X105617948Y-91291836D01*
X105693366Y-91473913D01*
X105693367Y-91473914D01*
X105802860Y-91637782D01*
X105942217Y-91777139D01*
X106106085Y-91886632D01*
X106288164Y-91962051D01*
X106481458Y-92000500D01*
X106481459Y-92000500D01*
X106678539Y-92000500D01*
X106678540Y-92000500D01*
X106871834Y-91962051D01*
X107053913Y-91886632D01*
X107217781Y-91777139D01*
X107357138Y-91637782D01*
X107466631Y-91473914D01*
X107542050Y-91291835D01*
X107580499Y-91098541D01*
X107580499Y-90901459D01*
X107542050Y-90708165D01*
X107466631Y-90526086D01*
X107357138Y-90362218D01*
X107217781Y-90222861D01*
X107108287Y-90149699D01*
X107053912Y-90113367D01*
X106871834Y-90037949D01*
X106678542Y-89999500D01*
X106678540Y-89999500D01*
X106481458Y-89999500D01*
X106481455Y-89999500D01*
X106288164Y-90037949D01*
X106288162Y-90037949D01*
X106106085Y-90113367D01*
X105942217Y-90222861D01*
X105942213Y-90222864D01*
X105802863Y-90362214D01*
X105802860Y-90362218D01*
X105693366Y-90526086D01*
X105617948Y-90708163D01*
X105617948Y-90708165D01*
X105579499Y-90901456D01*
X105040499Y-90901456D01*
X105040499Y-90135180D01*
X105040498Y-90135178D01*
X105040498Y-90135172D01*
X105031766Y-90091279D01*
X105031764Y-90091275D01*
X104998504Y-90041498D01*
X104998503Y-90041496D01*
X104997839Y-90041052D01*
X104948723Y-90008234D01*
X104948719Y-90008232D01*
X104904826Y-89999500D01*
X104904819Y-89999500D01*
X103175179Y-89999500D01*
X103175171Y-89999500D01*
X103131278Y-90008232D01*
X103131274Y-90008234D01*
X103081497Y-90041494D01*
X103081493Y-90041498D01*
X103048233Y-90091275D01*
X103048231Y-90091279D01*
X103039499Y-90135172D01*
X82040498Y-90135172D01*
X82031766Y-90091279D01*
X82031764Y-90091275D01*
X81998504Y-90041498D01*
X81998503Y-90041496D01*
X81997839Y-90041052D01*
X81948723Y-90008234D01*
X81948719Y-90008232D01*
X81904826Y-89999500D01*
X81904819Y-89999500D01*
X80175179Y-89999500D01*
X80175171Y-89999500D01*
X80131278Y-90008232D01*
X80131274Y-90008234D01*
X80081497Y-90041494D01*
X80081493Y-90041498D01*
X80048233Y-90091275D01*
X80048231Y-90091279D01*
X80039499Y-90135172D01*
X79006545Y-90135172D01*
X78973912Y-90113367D01*
X78791834Y-90037949D01*
X78598542Y-89999500D01*
X78598540Y-89999500D01*
X78401458Y-89999500D01*
X78401455Y-89999500D01*
X78208164Y-90037949D01*
X78208162Y-90037949D01*
X78026085Y-90113367D01*
X77862217Y-90222861D01*
X77862213Y-90222864D01*
X77722863Y-90362214D01*
X77722860Y-90362218D01*
X77613366Y-90526086D01*
X77537948Y-90708163D01*
X77537948Y-90708165D01*
X77499499Y-90901456D01*
X30500000Y-90901456D01*
X30500000Y-82240691D01*
X55749500Y-82240691D01*
X55749500Y-82359309D01*
X55757692Y-82389880D01*
X55780202Y-82473890D01*
X55839507Y-82576608D01*
X55839509Y-82576610D01*
X55839511Y-82576613D01*
X55923387Y-82660489D01*
X55923389Y-82660490D01*
X55923391Y-82660492D01*
X56026110Y-82719797D01*
X56026111Y-82719797D01*
X56026114Y-82719799D01*
X56140691Y-82750500D01*
X56140693Y-82750500D01*
X56219877Y-82750500D01*
X56278068Y-82769407D01*
X56289880Y-82779495D01*
X60643941Y-87133557D01*
X60673595Y-87145839D01*
X60673597Y-87145841D01*
X60673598Y-87145841D01*
X60709399Y-87160670D01*
X60745200Y-87175500D01*
X63697391Y-87175500D01*
X63755582Y-87194407D01*
X63767388Y-87204490D01*
X63823387Y-87260489D01*
X63823389Y-87260490D01*
X63823391Y-87260492D01*
X63926110Y-87319797D01*
X63926111Y-87319797D01*
X63926114Y-87319799D01*
X64040691Y-87350500D01*
X64040693Y-87350500D01*
X64159307Y-87350500D01*
X64159309Y-87350500D01*
X64273886Y-87319799D01*
X64273888Y-87319797D01*
X64273890Y-87319797D01*
X64376608Y-87260492D01*
X64376608Y-87260491D01*
X64376613Y-87260489D01*
X64460489Y-87176613D01*
X64461132Y-87175500D01*
X64519797Y-87073890D01*
X64519797Y-87073888D01*
X64519799Y-87073886D01*
X64550500Y-86959309D01*
X64550500Y-86840691D01*
X64519799Y-86726114D01*
X64519797Y-86726111D01*
X64519797Y-86726109D01*
X64460492Y-86623391D01*
X64460490Y-86623389D01*
X64460489Y-86623387D01*
X64376613Y-86539511D01*
X64376610Y-86539509D01*
X64376608Y-86539507D01*
X64273889Y-86480202D01*
X64273890Y-86480202D01*
X64260351Y-86476574D01*
X64159309Y-86449500D01*
X64040691Y-86449500D01*
X63970567Y-86468289D01*
X63926109Y-86480202D01*
X63823391Y-86539507D01*
X63823390Y-86539508D01*
X63823387Y-86539510D01*
X63823387Y-86539511D01*
X63767392Y-86595505D01*
X63712878Y-86623281D01*
X63697391Y-86624500D01*
X60955124Y-86624500D01*
X60896933Y-86605593D01*
X60885120Y-86595504D01*
X60030307Y-85740691D01*
X75649500Y-85740691D01*
X75649500Y-85859309D01*
X75675424Y-85956058D01*
X75680202Y-85973890D01*
X75739507Y-86076608D01*
X75739509Y-86076610D01*
X75739511Y-86076613D01*
X75823387Y-86160489D01*
X75823389Y-86160490D01*
X75823391Y-86160492D01*
X75926110Y-86219797D01*
X75926111Y-86219797D01*
X75926114Y-86219799D01*
X76040691Y-86250500D01*
X76040693Y-86250500D01*
X76159307Y-86250500D01*
X76159309Y-86250500D01*
X76273886Y-86219799D01*
X76273888Y-86219797D01*
X76273890Y-86219797D01*
X76376608Y-86160492D01*
X76376608Y-86160491D01*
X76376613Y-86160489D01*
X76432607Y-86104494D01*
X76487122Y-86076719D01*
X76502609Y-86075500D01*
X76554799Y-86075500D01*
X76554800Y-86075500D01*
X76656058Y-86033557D01*
X76733557Y-85956058D01*
X76733556Y-85956058D01*
X78385120Y-84304496D01*
X78439637Y-84276719D01*
X78455124Y-84275500D01*
X87554799Y-84275500D01*
X87554800Y-84275500D01*
X87656058Y-84233557D01*
X87733557Y-84156058D01*
X87733556Y-84156058D01*
X88248923Y-83640691D01*
X88849500Y-83640691D01*
X88849500Y-83759309D01*
X88851412Y-83766443D01*
X88880202Y-83873890D01*
X88939507Y-83976608D01*
X88939509Y-83976610D01*
X88939511Y-83976613D01*
X89023387Y-84060489D01*
X89023389Y-84060490D01*
X89023391Y-84060492D01*
X89126110Y-84119797D01*
X89126111Y-84119797D01*
X89126114Y-84119799D01*
X89240691Y-84150500D01*
X89240693Y-84150500D01*
X89359307Y-84150500D01*
X89359309Y-84150500D01*
X89473886Y-84119799D01*
X89473888Y-84119797D01*
X89473890Y-84119797D01*
X89576608Y-84060492D01*
X89576608Y-84060491D01*
X89576613Y-84060489D01*
X89632607Y-84004494D01*
X89687122Y-83976719D01*
X89702609Y-83975500D01*
X94997391Y-83975500D01*
X95055582Y-83994407D01*
X95067388Y-84004490D01*
X95123387Y-84060489D01*
X95123389Y-84060490D01*
X95123391Y-84060492D01*
X95226110Y-84119797D01*
X95226111Y-84119797D01*
X95226114Y-84119799D01*
X95340691Y-84150500D01*
X95340693Y-84150500D01*
X95459307Y-84150500D01*
X95459309Y-84150500D01*
X95573886Y-84119799D01*
X95573888Y-84119797D01*
X95573890Y-84119797D01*
X95676608Y-84060492D01*
X95676608Y-84060491D01*
X95676613Y-84060489D01*
X95760489Y-83976613D01*
X95819799Y-83873886D01*
X95850500Y-83759309D01*
X95850500Y-83680122D01*
X95869407Y-83621931D01*
X95879496Y-83610118D01*
X97085120Y-82404496D01*
X97139637Y-82376719D01*
X97155124Y-82375500D01*
X97997391Y-82375500D01*
X98055582Y-82394407D01*
X98067388Y-82404490D01*
X98123387Y-82460489D01*
X98123389Y-82460490D01*
X98123391Y-82460492D01*
X98226110Y-82519797D01*
X98226111Y-82519797D01*
X98226114Y-82519799D01*
X98340691Y-82550500D01*
X98340693Y-82550500D01*
X98459307Y-82550500D01*
X98459309Y-82550500D01*
X98573886Y-82519799D01*
X98573888Y-82519797D01*
X98573890Y-82519797D01*
X98676608Y-82460492D01*
X98676608Y-82460491D01*
X98676613Y-82460489D01*
X98760489Y-82376613D01*
X98761132Y-82375500D01*
X98819797Y-82273890D01*
X98819797Y-82273888D01*
X98819799Y-82273886D01*
X98850500Y-82159309D01*
X98850500Y-82040691D01*
X98819799Y-81926114D01*
X98819797Y-81926111D01*
X98819797Y-81926109D01*
X98760492Y-81823391D01*
X98760490Y-81823389D01*
X98760489Y-81823387D01*
X98676613Y-81739511D01*
X98676610Y-81739509D01*
X98676608Y-81739507D01*
X98573889Y-81680202D01*
X98573890Y-81680202D01*
X98560351Y-81676574D01*
X98459309Y-81649500D01*
X98340691Y-81649500D01*
X98299669Y-81660492D01*
X98226109Y-81680202D01*
X98123391Y-81739507D01*
X98123390Y-81739508D01*
X98123387Y-81739510D01*
X98123387Y-81739511D01*
X98067392Y-81795505D01*
X98012878Y-81823281D01*
X97997391Y-81824500D01*
X96945198Y-81824500D01*
X96843944Y-81866440D01*
X95489880Y-83220504D01*
X95435363Y-83248281D01*
X95419876Y-83249500D01*
X95340691Y-83249500D01*
X95270567Y-83268289D01*
X95226109Y-83280202D01*
X95123391Y-83339507D01*
X95123390Y-83339508D01*
X95123387Y-83339510D01*
X95123387Y-83339511D01*
X95067392Y-83395505D01*
X95012878Y-83423281D01*
X94997391Y-83424500D01*
X89702609Y-83424500D01*
X89644418Y-83405593D01*
X89632611Y-83395509D01*
X89576613Y-83339511D01*
X89576610Y-83339509D01*
X89576608Y-83339507D01*
X89473889Y-83280202D01*
X89473890Y-83280202D01*
X89460351Y-83276574D01*
X89359309Y-83249500D01*
X89240691Y-83249500D01*
X89170567Y-83268289D01*
X89126109Y-83280202D01*
X89023391Y-83339507D01*
X88939507Y-83423391D01*
X88880202Y-83526109D01*
X88880201Y-83526114D01*
X88849500Y-83640691D01*
X88248923Y-83640691D01*
X90048924Y-81840691D01*
X92149500Y-81840691D01*
X92149500Y-81959309D01*
X92166670Y-82023387D01*
X92180202Y-82073890D01*
X92239507Y-82176608D01*
X92239509Y-82176610D01*
X92239511Y-82176613D01*
X92323387Y-82260489D01*
X92323389Y-82260490D01*
X92323391Y-82260492D01*
X92426110Y-82319797D01*
X92426111Y-82319797D01*
X92426114Y-82319799D01*
X92540691Y-82350500D01*
X92540693Y-82350500D01*
X92659307Y-82350500D01*
X92659309Y-82350500D01*
X92773886Y-82319799D01*
X92773888Y-82319797D01*
X92773890Y-82319797D01*
X92876608Y-82260492D01*
X92876608Y-82260491D01*
X92876613Y-82260489D01*
X92960489Y-82176613D01*
X92960492Y-82176608D01*
X93019797Y-82073890D01*
X93019797Y-82073888D01*
X93019799Y-82073886D01*
X93050500Y-81959309D01*
X93050500Y-81900082D01*
X93069407Y-81841891D01*
X93082040Y-81827625D01*
X93085397Y-81824500D01*
X94053372Y-80923281D01*
X95391924Y-79677043D01*
X95447397Y-79651228D01*
X95459384Y-79650500D01*
X95559307Y-79650500D01*
X95559309Y-79650500D01*
X95673886Y-79619799D01*
X95673888Y-79619797D01*
X95673890Y-79619797D01*
X95776608Y-79560492D01*
X95776608Y-79560491D01*
X95776613Y-79560489D01*
X95860489Y-79476613D01*
X95873083Y-79454800D01*
X95919797Y-79373890D01*
X95919797Y-79373888D01*
X95919799Y-79373886D01*
X95950500Y-79259309D01*
X95950500Y-79140691D01*
X95919799Y-79026114D01*
X95919797Y-79026111D01*
X95919797Y-79026109D01*
X95860492Y-78923391D01*
X95860490Y-78923389D01*
X95860489Y-78923387D01*
X95776613Y-78839511D01*
X95776610Y-78839509D01*
X95776608Y-78839507D01*
X95673889Y-78780202D01*
X95673890Y-78780202D01*
X95660351Y-78776574D01*
X95559309Y-78749500D01*
X95440691Y-78749500D01*
X95404084Y-78759309D01*
X95326109Y-78780202D01*
X95223391Y-78839507D01*
X95139507Y-78923391D01*
X95080202Y-79026109D01*
X95049500Y-79140692D01*
X95049500Y-79199915D01*
X95030593Y-79258106D01*
X95017960Y-79272372D01*
X92708073Y-81422957D01*
X92652600Y-81448772D01*
X92640613Y-81449500D01*
X92540691Y-81449500D01*
X92470567Y-81468289D01*
X92426109Y-81480202D01*
X92323391Y-81539507D01*
X92239507Y-81623391D01*
X92180202Y-81726109D01*
X92180201Y-81726114D01*
X92149500Y-81840691D01*
X90048924Y-81840691D01*
X92433558Y-79456058D01*
X92467593Y-79373890D01*
X92475500Y-79354801D01*
X92475500Y-79245198D01*
X92433559Y-79143943D01*
X92433558Y-79143942D01*
X92433558Y-79143941D01*
X92356059Y-79066442D01*
X92356057Y-79066441D01*
X92350415Y-79060799D01*
X92350415Y-79060798D01*
X92350412Y-79060796D01*
X92163502Y-78873886D01*
X91959618Y-78670003D01*
X91931841Y-78615487D01*
X91941412Y-78555055D01*
X91959619Y-78529996D01*
X92050747Y-78438868D01*
X92233558Y-78256058D01*
X92235860Y-78250500D01*
X92275500Y-78154801D01*
X92275500Y-77302609D01*
X92294407Y-77244418D01*
X92304490Y-77232611D01*
X92360489Y-77176613D01*
X92360492Y-77176608D01*
X92381229Y-77140691D01*
X104349500Y-77140691D01*
X104349500Y-77259309D01*
X104367950Y-77328165D01*
X104380202Y-77373890D01*
X104439507Y-77476608D01*
X104439509Y-77476610D01*
X104439511Y-77476613D01*
X104495505Y-77532607D01*
X104523281Y-77587122D01*
X104524500Y-77602609D01*
X104524500Y-78997391D01*
X104505593Y-79055582D01*
X104495509Y-79067388D01*
X104460289Y-79102609D01*
X104439508Y-79123390D01*
X104439507Y-79123391D01*
X104380202Y-79226109D01*
X104373667Y-79250500D01*
X104349500Y-79340691D01*
X104349500Y-79459309D01*
X104375087Y-79554800D01*
X104380202Y-79573890D01*
X104439507Y-79676608D01*
X104439509Y-79676610D01*
X104439511Y-79676613D01*
X104523387Y-79760489D01*
X104523389Y-79760490D01*
X104523391Y-79760492D01*
X104626110Y-79819797D01*
X104626111Y-79819797D01*
X104626114Y-79819799D01*
X104740691Y-79850500D01*
X104740693Y-79850500D01*
X104859307Y-79850500D01*
X104859309Y-79850500D01*
X104973886Y-79819799D01*
X104973888Y-79819797D01*
X104973890Y-79819797D01*
X105076608Y-79760492D01*
X105076608Y-79760491D01*
X105076613Y-79760489D01*
X105160489Y-79676613D01*
X105175145Y-79651228D01*
X105219797Y-79573890D01*
X105219797Y-79573888D01*
X105219799Y-79573886D01*
X105250500Y-79459309D01*
X105250500Y-79340691D01*
X105219799Y-79226114D01*
X105219797Y-79226111D01*
X105219797Y-79226109D01*
X105160492Y-79123391D01*
X105160490Y-79123389D01*
X105160489Y-79123387D01*
X105104494Y-79067392D01*
X105076719Y-79012878D01*
X105075500Y-78997391D01*
X105075500Y-77602609D01*
X105077134Y-77597577D01*
X105076027Y-77592404D01*
X105084809Y-77573955D01*
X105094407Y-77544418D01*
X105100832Y-77536472D01*
X105102605Y-77534496D01*
X105115645Y-77521456D01*
X106999500Y-77521456D01*
X106999500Y-77718543D01*
X107037949Y-77911834D01*
X107037949Y-77911836D01*
X107113367Y-78093913D01*
X107113368Y-78093914D01*
X107222861Y-78257782D01*
X107362218Y-78397139D01*
X107526086Y-78506632D01*
X107708165Y-78582051D01*
X107901459Y-78620500D01*
X107901460Y-78620500D01*
X108098540Y-78620500D01*
X108098541Y-78620500D01*
X108291835Y-78582051D01*
X108473914Y-78506632D01*
X108637782Y-78397139D01*
X108777139Y-78257782D01*
X108886632Y-78093914D01*
X108962051Y-77911835D01*
X109000500Y-77718541D01*
X109000500Y-77521459D01*
X108962051Y-77328165D01*
X108886632Y-77146086D01*
X108777139Y-76982218D01*
X108637782Y-76842861D01*
X108514508Y-76760492D01*
X108473913Y-76733367D01*
X108291835Y-76657949D01*
X108098543Y-76619500D01*
X108098541Y-76619500D01*
X107901459Y-76619500D01*
X107901456Y-76619500D01*
X107708165Y-76657949D01*
X107708163Y-76657949D01*
X107526086Y-76733367D01*
X107362218Y-76842861D01*
X107362214Y-76842864D01*
X107222864Y-76982214D01*
X107222861Y-76982218D01*
X107113367Y-77146086D01*
X107037949Y-77328163D01*
X107037949Y-77328165D01*
X106999500Y-77521456D01*
X105115645Y-77521456D01*
X105160489Y-77476613D01*
X105176783Y-77448391D01*
X105219797Y-77373890D01*
X105219797Y-77373888D01*
X105219799Y-77373886D01*
X105250500Y-77259309D01*
X105250500Y-77140691D01*
X105219799Y-77026114D01*
X105219797Y-77026111D01*
X105219797Y-77026109D01*
X105160492Y-76923391D01*
X105160490Y-76923389D01*
X105160489Y-76923387D01*
X105076613Y-76839511D01*
X105076610Y-76839509D01*
X105076608Y-76839507D01*
X104973889Y-76780202D01*
X104973890Y-76780202D01*
X104960351Y-76776574D01*
X104859309Y-76749500D01*
X104740691Y-76749500D01*
X104699669Y-76760492D01*
X104626109Y-76780202D01*
X104523391Y-76839507D01*
X104439507Y-76923391D01*
X104380202Y-77026109D01*
X104380201Y-77026114D01*
X104349500Y-77140691D01*
X92381229Y-77140691D01*
X92413555Y-77084702D01*
X92413555Y-77084701D01*
X92414214Y-77083558D01*
X92419799Y-77073886D01*
X92450500Y-76959309D01*
X92450500Y-76840691D01*
X92419799Y-76726114D01*
X92419797Y-76726111D01*
X92419797Y-76726109D01*
X92360492Y-76623391D01*
X92360490Y-76623389D01*
X92360489Y-76623387D01*
X92276613Y-76539511D01*
X92276610Y-76539509D01*
X92276608Y-76539507D01*
X92173889Y-76480202D01*
X92173890Y-76480202D01*
X92160351Y-76476574D01*
X92059309Y-76449500D01*
X91940691Y-76449500D01*
X91904084Y-76459309D01*
X91826109Y-76480202D01*
X91723391Y-76539507D01*
X91639507Y-76623391D01*
X91580202Y-76726109D01*
X91572514Y-76754801D01*
X91549500Y-76840691D01*
X91549500Y-76959309D01*
X91572515Y-77045200D01*
X91580202Y-77073890D01*
X91639507Y-77176608D01*
X91639509Y-77176610D01*
X91639511Y-77176613D01*
X91695505Y-77232607D01*
X91723281Y-77287122D01*
X91724500Y-77302609D01*
X91724500Y-77944876D01*
X91705593Y-78003067D01*
X91695503Y-78014880D01*
X91570002Y-78140380D01*
X91515486Y-78168157D01*
X91455054Y-78158585D01*
X91429996Y-78140380D01*
X90956056Y-77666441D01*
X90854802Y-77624501D01*
X90854800Y-77624501D01*
X90745200Y-77624501D01*
X90745198Y-77624501D01*
X90643943Y-77666441D01*
X90614879Y-77695505D01*
X90560362Y-77723281D01*
X90544876Y-77724500D01*
X89602609Y-77724500D01*
X89544418Y-77705593D01*
X89532611Y-77695509D01*
X89476613Y-77639511D01*
X89476610Y-77639509D01*
X89476608Y-77639507D01*
X89373889Y-77580202D01*
X89373890Y-77580202D01*
X89350576Y-77573955D01*
X89259309Y-77549500D01*
X89140691Y-77549500D01*
X89073906Y-77567395D01*
X89026109Y-77580202D01*
X88923391Y-77639507D01*
X88839507Y-77723391D01*
X88780202Y-77826109D01*
X88780201Y-77826114D01*
X88749500Y-77940691D01*
X88749500Y-78059309D01*
X88762189Y-78106664D01*
X88780202Y-78173890D01*
X88839507Y-78276608D01*
X88839509Y-78276610D01*
X88839511Y-78276613D01*
X88923387Y-78360489D01*
X88923389Y-78360490D01*
X88923391Y-78360492D01*
X89026110Y-78419797D01*
X89026111Y-78419797D01*
X89026114Y-78419799D01*
X89140691Y-78450500D01*
X89140693Y-78450500D01*
X89259307Y-78450500D01*
X89259309Y-78450500D01*
X89373886Y-78419799D01*
X89373888Y-78419797D01*
X89373890Y-78419797D01*
X89476608Y-78360492D01*
X89476608Y-78360491D01*
X89476613Y-78360489D01*
X89532607Y-78304494D01*
X89587122Y-78276719D01*
X89602609Y-78275500D01*
X90744877Y-78275500D01*
X90803068Y-78294407D01*
X90814880Y-78304495D01*
X91343941Y-78833557D01*
X91343942Y-78833557D01*
X91740380Y-79229995D01*
X91768157Y-79284512D01*
X91758586Y-79344944D01*
X91740380Y-79370003D01*
X87414881Y-83695504D01*
X87360364Y-83723281D01*
X87344877Y-83724500D01*
X78245200Y-83724500D01*
X78177055Y-83752727D01*
X78177054Y-83752727D01*
X78143943Y-83766441D01*
X76490087Y-85420296D01*
X76435570Y-85448073D01*
X76375138Y-85438502D01*
X76370583Y-85436029D01*
X76273887Y-85380201D01*
X76235693Y-85369967D01*
X76159309Y-85349500D01*
X76040691Y-85349500D01*
X75970567Y-85368289D01*
X75926109Y-85380202D01*
X75823391Y-85439507D01*
X75739507Y-85523391D01*
X75680202Y-85626109D01*
X75680201Y-85626114D01*
X75649500Y-85740691D01*
X60030307Y-85740691D01*
X57030307Y-82740691D01*
X60749500Y-82740691D01*
X60749500Y-82859309D01*
X60775424Y-82956058D01*
X60780202Y-82973890D01*
X60839507Y-83076608D01*
X60839509Y-83076610D01*
X60839511Y-83076613D01*
X60923387Y-83160489D01*
X60923389Y-83160490D01*
X60923391Y-83160492D01*
X61026110Y-83219797D01*
X61026111Y-83219797D01*
X61026114Y-83219799D01*
X61140691Y-83250500D01*
X61140693Y-83250500D01*
X61259307Y-83250500D01*
X61259309Y-83250500D01*
X61373886Y-83219799D01*
X61373888Y-83219797D01*
X61373890Y-83219797D01*
X61476608Y-83160492D01*
X61476608Y-83160491D01*
X61476613Y-83160489D01*
X61532607Y-83104494D01*
X61587122Y-83076719D01*
X61602609Y-83075500D01*
X62854799Y-83075500D01*
X62854800Y-83075500D01*
X62956058Y-83033557D01*
X63033557Y-82956058D01*
X63033556Y-82956058D01*
X63410119Y-82579496D01*
X63464635Y-82551719D01*
X63480122Y-82550500D01*
X63559307Y-82550500D01*
X63559309Y-82550500D01*
X63673886Y-82519799D01*
X63673888Y-82519797D01*
X63673890Y-82519797D01*
X63776608Y-82460492D01*
X63776608Y-82460491D01*
X63776613Y-82460489D01*
X63860489Y-82376613D01*
X63861132Y-82375500D01*
X63919797Y-82273890D01*
X63919797Y-82273888D01*
X63919799Y-82273886D01*
X63950500Y-82159309D01*
X63950500Y-82040691D01*
X63919799Y-81926114D01*
X63919797Y-81926111D01*
X63919797Y-81926109D01*
X63860492Y-81823391D01*
X63860490Y-81823389D01*
X63860489Y-81823387D01*
X63776613Y-81739511D01*
X63776610Y-81739509D01*
X63776608Y-81739507D01*
X63673889Y-81680202D01*
X63673890Y-81680202D01*
X63660351Y-81676574D01*
X63559309Y-81649500D01*
X63440691Y-81649500D01*
X63399669Y-81660492D01*
X63326109Y-81680202D01*
X63223391Y-81739507D01*
X63139507Y-81823391D01*
X63080202Y-81926109D01*
X63049500Y-82040692D01*
X63049500Y-82119876D01*
X63030593Y-82178067D01*
X63020504Y-82189879D01*
X62714882Y-82495503D01*
X62660365Y-82523281D01*
X62644878Y-82524500D01*
X61602609Y-82524500D01*
X61544418Y-82505593D01*
X61532611Y-82495509D01*
X61476613Y-82439511D01*
X61476610Y-82439509D01*
X61476608Y-82439507D01*
X61373889Y-82380202D01*
X61373890Y-82380202D01*
X61356342Y-82375500D01*
X61259309Y-82349500D01*
X61140691Y-82349500D01*
X61070567Y-82368289D01*
X61026109Y-82380202D01*
X60923391Y-82439507D01*
X60839507Y-82523391D01*
X60780202Y-82626109D01*
X60763037Y-82690169D01*
X60749500Y-82740691D01*
X57030307Y-82740691D01*
X56679496Y-82389880D01*
X56651719Y-82335363D01*
X56650500Y-82319876D01*
X56650500Y-82240692D01*
X56650500Y-82240691D01*
X56619799Y-82126114D01*
X56619797Y-82126111D01*
X56619797Y-82126109D01*
X56560492Y-82023391D01*
X56560490Y-82023389D01*
X56560489Y-82023387D01*
X56476613Y-81939511D01*
X56476610Y-81939509D01*
X56476608Y-81939507D01*
X56373889Y-81880202D01*
X56373890Y-81880202D01*
X56360351Y-81876574D01*
X56259309Y-81849500D01*
X56140691Y-81849500D01*
X56077463Y-81866442D01*
X56026109Y-81880202D01*
X55923391Y-81939507D01*
X55839507Y-82023391D01*
X55780202Y-82126109D01*
X55766671Y-82176608D01*
X55749500Y-82240691D01*
X30500000Y-82240691D01*
X30500000Y-76140691D01*
X58149500Y-76140691D01*
X58149500Y-76259309D01*
X58173935Y-76350500D01*
X58180202Y-76373890D01*
X58239507Y-76476608D01*
X58239509Y-76476610D01*
X58239511Y-76476613D01*
X58295505Y-76532607D01*
X58323281Y-76587122D01*
X58324500Y-76602609D01*
X58324500Y-77497391D01*
X58305593Y-77555582D01*
X58295509Y-77567388D01*
X58265321Y-77597577D01*
X58239508Y-77623390D01*
X58239507Y-77623391D01*
X58180202Y-77726109D01*
X58172428Y-77755123D01*
X58149500Y-77840691D01*
X58149500Y-77959309D01*
X58168495Y-78030199D01*
X58180202Y-78073890D01*
X58239507Y-78176608D01*
X58239509Y-78176610D01*
X58239511Y-78176613D01*
X58295505Y-78232607D01*
X58323281Y-78287122D01*
X58324500Y-78302609D01*
X58324500Y-79454800D01*
X58351706Y-79520480D01*
X58351706Y-79520481D01*
X58366441Y-79556055D01*
X58366442Y-79556056D01*
X58366443Y-79556058D01*
X60043942Y-81233558D01*
X60043943Y-81233558D01*
X60043944Y-81233559D01*
X60145198Y-81275500D01*
X60145200Y-81275500D01*
X62854799Y-81275500D01*
X62854800Y-81275500D01*
X62956058Y-81233557D01*
X63033557Y-81156058D01*
X63033556Y-81156058D01*
X64180499Y-80009116D01*
X64235013Y-79981341D01*
X64295445Y-79990912D01*
X64338710Y-80034177D01*
X64349500Y-80079122D01*
X64349500Y-80159309D01*
X64365969Y-80220770D01*
X64380202Y-80273890D01*
X64439507Y-80376608D01*
X64439509Y-80376610D01*
X64439511Y-80376613D01*
X64523387Y-80460489D01*
X64523389Y-80460490D01*
X64523391Y-80460492D01*
X64626110Y-80519797D01*
X64626111Y-80519797D01*
X64626114Y-80519799D01*
X64740691Y-80550500D01*
X64740693Y-80550500D01*
X64859307Y-80550500D01*
X64859309Y-80550500D01*
X64973886Y-80519799D01*
X64973888Y-80519797D01*
X64973890Y-80519797D01*
X65076608Y-80460492D01*
X65076608Y-80460491D01*
X65076613Y-80460489D01*
X65160489Y-80376613D01*
X65196799Y-80313723D01*
X65219797Y-80273890D01*
X65219797Y-80273888D01*
X65219799Y-80273886D01*
X65250500Y-80159309D01*
X65250500Y-80040691D01*
X65219799Y-79926114D01*
X65219797Y-79926111D01*
X65219797Y-79926109D01*
X65160492Y-79823391D01*
X65160490Y-79823389D01*
X65160489Y-79823387D01*
X65149184Y-79812082D01*
X65121409Y-79757568D01*
X65120868Y-79730517D01*
X65254849Y-78591675D01*
X65280425Y-78536095D01*
X65293761Y-78524052D01*
X65298617Y-78520410D01*
X65356511Y-78500623D01*
X65414982Y-78518645D01*
X65451693Y-78567593D01*
X65453642Y-78625231D01*
X65449500Y-78640691D01*
X65449500Y-78759309D01*
X65469395Y-78833557D01*
X65480202Y-78873890D01*
X65539507Y-78976608D01*
X65539509Y-78976610D01*
X65539511Y-78976613D01*
X65595505Y-79032607D01*
X65623281Y-79087122D01*
X65624500Y-79102609D01*
X65624500Y-82444876D01*
X65605593Y-82503067D01*
X65595504Y-82514880D01*
X63214881Y-84895504D01*
X63160364Y-84923281D01*
X63144877Y-84924500D01*
X61702609Y-84924500D01*
X61644418Y-84905593D01*
X61632611Y-84895509D01*
X61576613Y-84839511D01*
X61576610Y-84839509D01*
X61576608Y-84839507D01*
X61473889Y-84780202D01*
X61473890Y-84780202D01*
X61460351Y-84776574D01*
X61359309Y-84749500D01*
X61240691Y-84749500D01*
X61170567Y-84768289D01*
X61126109Y-84780202D01*
X61023391Y-84839507D01*
X60939507Y-84923391D01*
X60880202Y-85026109D01*
X60880201Y-85026114D01*
X60849500Y-85140691D01*
X60849500Y-85259309D01*
X60873667Y-85349500D01*
X60880202Y-85373890D01*
X60939507Y-85476608D01*
X60939509Y-85476610D01*
X60939511Y-85476613D01*
X61023387Y-85560489D01*
X61023389Y-85560490D01*
X61023391Y-85560492D01*
X61126110Y-85619797D01*
X61126111Y-85619797D01*
X61126114Y-85619799D01*
X61240691Y-85650500D01*
X61240693Y-85650500D01*
X61359307Y-85650500D01*
X61359309Y-85650500D01*
X61473886Y-85619799D01*
X61473888Y-85619797D01*
X61473890Y-85619797D01*
X61576608Y-85560492D01*
X61576608Y-85560491D01*
X61576613Y-85560489D01*
X61632607Y-85504494D01*
X61687122Y-85476719D01*
X61702609Y-85475500D01*
X63354799Y-85475500D01*
X63354800Y-85475500D01*
X63456058Y-85433557D01*
X63533557Y-85356058D01*
X63533556Y-85356058D01*
X66133557Y-82756059D01*
X66167875Y-82673207D01*
X66175500Y-82654800D01*
X66175500Y-79102609D01*
X66194407Y-79044418D01*
X66204490Y-79032611D01*
X66260489Y-78976613D01*
X66262061Y-78973890D01*
X66319797Y-78873890D01*
X66319797Y-78873888D01*
X66319799Y-78873886D01*
X66350500Y-78759309D01*
X66350500Y-78640691D01*
X66319799Y-78526114D01*
X66319797Y-78526111D01*
X66319797Y-78526109D01*
X66260492Y-78423391D01*
X66260490Y-78423389D01*
X66260489Y-78423387D01*
X66176613Y-78339511D01*
X66176610Y-78339509D01*
X66111453Y-78301890D01*
X66070513Y-78256420D01*
X66064118Y-78195570D01*
X66090949Y-78146152D01*
X66160489Y-78076613D01*
X66162061Y-78073890D01*
X66219797Y-77973890D01*
X66219797Y-77973888D01*
X66219799Y-77973886D01*
X66250500Y-77859309D01*
X66250500Y-77740691D01*
X66219799Y-77626114D01*
X66219797Y-77626111D01*
X66219797Y-77626109D01*
X66160492Y-77523391D01*
X66160490Y-77523389D01*
X66160489Y-77523387D01*
X66076613Y-77439511D01*
X66076610Y-77439509D01*
X66076608Y-77439507D01*
X65973889Y-77380202D01*
X65973890Y-77380202D01*
X65950318Y-77373886D01*
X65859309Y-77349500D01*
X65740691Y-77349500D01*
X65677463Y-77366442D01*
X65626109Y-77380202D01*
X65523391Y-77439507D01*
X65439507Y-77523391D01*
X65380202Y-77626109D01*
X65380201Y-77626114D01*
X65353839Y-77724500D01*
X65349500Y-77740692D01*
X65349500Y-77743999D01*
X65348767Y-77746252D01*
X65348653Y-77747125D01*
X65348491Y-77747103D01*
X65330593Y-77802190D01*
X65309900Y-77823199D01*
X65033900Y-78030199D01*
X64976003Y-78049988D01*
X64917532Y-78031966D01*
X64880821Y-77983018D01*
X64875500Y-77950999D01*
X64875500Y-77855122D01*
X64894407Y-77796931D01*
X64904497Y-77785118D01*
X64949979Y-77739636D01*
X65033558Y-77656058D01*
X65033559Y-77656056D01*
X65075500Y-77554801D01*
X65075500Y-77455122D01*
X65094407Y-77396931D01*
X65104497Y-77385118D01*
X65144738Y-77344877D01*
X65233558Y-77256058D01*
X65233559Y-77256056D01*
X65275500Y-77154801D01*
X65275500Y-77055122D01*
X65294407Y-76996931D01*
X65304497Y-76985118D01*
X65344738Y-76944877D01*
X65433558Y-76856058D01*
X65435860Y-76850500D01*
X65475500Y-76754801D01*
X65475500Y-76655123D01*
X65494407Y-76596932D01*
X65504496Y-76585119D01*
X65710119Y-76379496D01*
X65764636Y-76351719D01*
X65780123Y-76350500D01*
X65859307Y-76350500D01*
X65859309Y-76350500D01*
X65973886Y-76319799D01*
X65973888Y-76319797D01*
X65973890Y-76319797D01*
X66076608Y-76260492D01*
X66076608Y-76260491D01*
X66076613Y-76260489D01*
X66160489Y-76176613D01*
X66160492Y-76176608D01*
X66219797Y-76073890D01*
X66219797Y-76073888D01*
X66219799Y-76073886D01*
X66250500Y-75959309D01*
X66250500Y-75840691D01*
X66219799Y-75726114D01*
X66219797Y-75726111D01*
X66219797Y-75726109D01*
X66160492Y-75623391D01*
X66160490Y-75623389D01*
X66160489Y-75623387D01*
X66076613Y-75539511D01*
X66076610Y-75539509D01*
X66076608Y-75539507D01*
X65973889Y-75480202D01*
X65973890Y-75480202D01*
X65960351Y-75476574D01*
X65859309Y-75449500D01*
X65740691Y-75449500D01*
X65670567Y-75468289D01*
X65626109Y-75480202D01*
X65523391Y-75539507D01*
X65439507Y-75623391D01*
X65380202Y-75726109D01*
X65371307Y-75759307D01*
X65349818Y-75839507D01*
X65349500Y-75840692D01*
X65349500Y-75919876D01*
X65330593Y-75978067D01*
X65320504Y-75989879D01*
X65043942Y-76266442D01*
X64966446Y-76343938D01*
X64966444Y-76343940D01*
X64966443Y-76343942D01*
X64963727Y-76350500D01*
X64924500Y-76445200D01*
X64924500Y-76544877D01*
X64905593Y-76603068D01*
X64895507Y-76614876D01*
X64843942Y-76666443D01*
X64843941Y-76666442D01*
X64766446Y-76743938D01*
X64766444Y-76743940D01*
X64766443Y-76743942D01*
X64726368Y-76840691D01*
X64724500Y-76845200D01*
X64724500Y-76944877D01*
X64705593Y-77003068D01*
X64695507Y-77014876D01*
X64643942Y-77066443D01*
X64643941Y-77066442D01*
X64566446Y-77143938D01*
X64566444Y-77143940D01*
X64566443Y-77143942D01*
X64561945Y-77154801D01*
X64524500Y-77245200D01*
X64524500Y-77344877D01*
X64505593Y-77403068D01*
X64495507Y-77414876D01*
X64443942Y-77466443D01*
X64443941Y-77466442D01*
X64366446Y-77543938D01*
X64366444Y-77543940D01*
X64366443Y-77543942D01*
X64324500Y-77645200D01*
X64324500Y-77744877D01*
X64305593Y-77803068D01*
X64295507Y-77814876D01*
X64243942Y-77866443D01*
X64243941Y-77866442D01*
X64166446Y-77943938D01*
X64166444Y-77943940D01*
X64166443Y-77943942D01*
X64160079Y-77959307D01*
X64124500Y-78045200D01*
X64124500Y-78144877D01*
X64105593Y-78203068D01*
X64095505Y-78214880D01*
X64066443Y-78243942D01*
X64024500Y-78345200D01*
X64024500Y-79344876D01*
X64005593Y-79403067D01*
X63995504Y-79414880D01*
X63207819Y-80202564D01*
X63153302Y-80230341D01*
X63092870Y-80220770D01*
X63049605Y-80177505D01*
X63040034Y-80117073D01*
X63040718Y-80113244D01*
X63050499Y-80064076D01*
X63050500Y-80064067D01*
X63050500Y-68435932D01*
X63050500Y-68435931D01*
X63025501Y-68310256D01*
X62976465Y-68191873D01*
X62976463Y-68191870D01*
X62976461Y-68191866D01*
X62941561Y-68139636D01*
X62905276Y-68085331D01*
X62814669Y-67994724D01*
X62772226Y-67966365D01*
X62708133Y-67923538D01*
X62708125Y-67923534D01*
X62589747Y-67874500D01*
X62589745Y-67874499D01*
X62589744Y-67874499D01*
X62464069Y-67849500D01*
X62335931Y-67849500D01*
X62335930Y-67849500D01*
X62273093Y-67861999D01*
X62210256Y-67874499D01*
X62210255Y-67874499D01*
X62210252Y-67874500D01*
X62091874Y-67923534D01*
X62091866Y-67923538D01*
X61985331Y-67994724D01*
X61985327Y-67994727D01*
X61894727Y-68085327D01*
X61894724Y-68085331D01*
X61823538Y-68191866D01*
X61823534Y-68191874D01*
X61774500Y-68310252D01*
X61774499Y-68310255D01*
X61774499Y-68310256D01*
X61749500Y-68435931D01*
X61749500Y-80064069D01*
X61772064Y-80177505D01*
X61774499Y-80189742D01*
X61774500Y-80189747D01*
X61823534Y-80308125D01*
X61823538Y-80308133D01*
X61855559Y-80356054D01*
X61894724Y-80414669D01*
X61985331Y-80505276D01*
X62042066Y-80543185D01*
X62079945Y-80591235D01*
X62082347Y-80652373D01*
X62048354Y-80703247D01*
X61990950Y-80724424D01*
X61987064Y-80724500D01*
X60355124Y-80724500D01*
X60296933Y-80705593D01*
X60285120Y-80695504D01*
X58904496Y-79314880D01*
X58876719Y-79260363D01*
X58875500Y-79244876D01*
X58875500Y-78302609D01*
X58894407Y-78244418D01*
X58904490Y-78232611D01*
X58960489Y-78176613D01*
X58962061Y-78173890D01*
X59019797Y-78073890D01*
X59019797Y-78073888D01*
X59019799Y-78073886D01*
X59050500Y-77959309D01*
X59050500Y-77840691D01*
X59019799Y-77726114D01*
X59019797Y-77726111D01*
X59019797Y-77726109D01*
X58960492Y-77623391D01*
X58960490Y-77623389D01*
X58960489Y-77623387D01*
X58904494Y-77567392D01*
X58876719Y-77512878D01*
X58875500Y-77497391D01*
X58875500Y-76602609D01*
X58894407Y-76544418D01*
X58904490Y-76532611D01*
X58960489Y-76476613D01*
X58976143Y-76449500D01*
X59019797Y-76373890D01*
X59019797Y-76373888D01*
X59019799Y-76373886D01*
X59050500Y-76259309D01*
X59050500Y-76140691D01*
X59019799Y-76026114D01*
X59019797Y-76026111D01*
X59019797Y-76026109D01*
X58960492Y-75923391D01*
X58960490Y-75923389D01*
X58960489Y-75923387D01*
X58876613Y-75839511D01*
X58876610Y-75839509D01*
X58876608Y-75839507D01*
X58773889Y-75780202D01*
X58773890Y-75780202D01*
X58760351Y-75776574D01*
X58659309Y-75749500D01*
X58540691Y-75749500D01*
X58504084Y-75759309D01*
X58426109Y-75780202D01*
X58323391Y-75839507D01*
X58239507Y-75923391D01*
X58180202Y-76026109D01*
X58172305Y-76055582D01*
X58149500Y-76140691D01*
X30500000Y-76140691D01*
X30500000Y-69240691D01*
X50749500Y-69240691D01*
X50749500Y-69359309D01*
X50773070Y-69447273D01*
X50780202Y-69473890D01*
X50839507Y-69576608D01*
X50839509Y-69576610D01*
X50839511Y-69576613D01*
X50895505Y-69632607D01*
X50923281Y-69687122D01*
X50924500Y-69702609D01*
X50924500Y-70897391D01*
X50905593Y-70955582D01*
X50895509Y-70967388D01*
X50862399Y-71000499D01*
X50839508Y-71023390D01*
X50839507Y-71023391D01*
X50780202Y-71126109D01*
X50780201Y-71126114D01*
X50749500Y-71240691D01*
X50749500Y-71359309D01*
X50771306Y-71440691D01*
X50780202Y-71473890D01*
X50839507Y-71576608D01*
X50839509Y-71576610D01*
X50839511Y-71576613D01*
X50923387Y-71660489D01*
X50923389Y-71660490D01*
X50923391Y-71660492D01*
X51026110Y-71719797D01*
X51026111Y-71719797D01*
X51026114Y-71719799D01*
X51140691Y-71750500D01*
X51140693Y-71750500D01*
X51259307Y-71750500D01*
X51259309Y-71750500D01*
X51373886Y-71719799D01*
X51373888Y-71719797D01*
X51373890Y-71719797D01*
X51476608Y-71660492D01*
X51476608Y-71660491D01*
X51476613Y-71660489D01*
X51560489Y-71576613D01*
X51572358Y-71556055D01*
X51619797Y-71473890D01*
X51619797Y-71473888D01*
X51619799Y-71473886D01*
X51650500Y-71359309D01*
X51650500Y-71240691D01*
X51619799Y-71126114D01*
X51619797Y-71126111D01*
X51619797Y-71126109D01*
X51560492Y-71023391D01*
X51560490Y-71023389D01*
X51560489Y-71023387D01*
X51504494Y-70967392D01*
X51476719Y-70912878D01*
X51475500Y-70897391D01*
X51475500Y-69702609D01*
X51494407Y-69644418D01*
X51504490Y-69632611D01*
X51560489Y-69576613D01*
X51560492Y-69576608D01*
X51619797Y-69473890D01*
X51619797Y-69473888D01*
X51619799Y-69473886D01*
X51650500Y-69359309D01*
X51650500Y-69240691D01*
X55849500Y-69240691D01*
X55849500Y-69359309D01*
X55873070Y-69447273D01*
X55880202Y-69473890D01*
X55939507Y-69576608D01*
X55939509Y-69576610D01*
X55939511Y-69576613D01*
X55995505Y-69632607D01*
X56023281Y-69687122D01*
X56024500Y-69702609D01*
X56024500Y-70597391D01*
X56005593Y-70655582D01*
X55995509Y-70667388D01*
X55939511Y-70723387D01*
X55939508Y-70723390D01*
X55939507Y-70723391D01*
X55880202Y-70826109D01*
X55880201Y-70826114D01*
X55849500Y-70940691D01*
X55849500Y-71059309D01*
X55870989Y-71139507D01*
X55880202Y-71173890D01*
X55939507Y-71276608D01*
X55939509Y-71276610D01*
X55939511Y-71276613D01*
X56023387Y-71360489D01*
X56023389Y-71360490D01*
X56023391Y-71360492D01*
X56126110Y-71419797D01*
X56126111Y-71419797D01*
X56126114Y-71419799D01*
X56240691Y-71450500D01*
X56240693Y-71450500D01*
X56359307Y-71450500D01*
X56359309Y-71450500D01*
X56473886Y-71419799D01*
X56473888Y-71419797D01*
X56473890Y-71419797D01*
X56576608Y-71360492D01*
X56576608Y-71360491D01*
X56576613Y-71360489D01*
X56660489Y-71276613D01*
X56691217Y-71223391D01*
X56719797Y-71173890D01*
X56719797Y-71173888D01*
X56719799Y-71173886D01*
X56750500Y-71059309D01*
X56750500Y-70940691D01*
X56719799Y-70826114D01*
X56719797Y-70826111D01*
X56719797Y-70826109D01*
X56660492Y-70723391D01*
X56660490Y-70723389D01*
X56660489Y-70723387D01*
X56604494Y-70667392D01*
X56576719Y-70612878D01*
X56575500Y-70597391D01*
X56575500Y-69702609D01*
X56594407Y-69644418D01*
X56604490Y-69632611D01*
X56660489Y-69576613D01*
X56660492Y-69576608D01*
X56719797Y-69473890D01*
X56719797Y-69473888D01*
X56719799Y-69473886D01*
X56750500Y-69359309D01*
X56750500Y-69240691D01*
X56719799Y-69126114D01*
X56719797Y-69126111D01*
X56719797Y-69126109D01*
X56660492Y-69023391D01*
X56660490Y-69023389D01*
X56660489Y-69023387D01*
X56576613Y-68939511D01*
X56576610Y-68939509D01*
X56576608Y-68939507D01*
X56473889Y-68880202D01*
X56473890Y-68880202D01*
X56460351Y-68876574D01*
X56359309Y-68849500D01*
X56240691Y-68849500D01*
X56204084Y-68859309D01*
X56126109Y-68880202D01*
X56023391Y-68939507D01*
X55939507Y-69023391D01*
X55880202Y-69126109D01*
X55864186Y-69185884D01*
X55849500Y-69240691D01*
X51650500Y-69240691D01*
X51619799Y-69126114D01*
X51619797Y-69126111D01*
X51619797Y-69126109D01*
X51560492Y-69023391D01*
X51560490Y-69023389D01*
X51560489Y-69023387D01*
X51476613Y-68939511D01*
X51476610Y-68939509D01*
X51476608Y-68939507D01*
X51373889Y-68880202D01*
X51373890Y-68880202D01*
X51360351Y-68876574D01*
X51259309Y-68849500D01*
X51140691Y-68849500D01*
X51104084Y-68859309D01*
X51026109Y-68880202D01*
X50923391Y-68939507D01*
X50839507Y-69023391D01*
X50780202Y-69126109D01*
X50764186Y-69185884D01*
X50749500Y-69240691D01*
X30500000Y-69240691D01*
X30500000Y-66340691D01*
X60849500Y-66340691D01*
X60849500Y-66459309D01*
X60871306Y-66540691D01*
X60880202Y-66573890D01*
X60939507Y-66676608D01*
X60939509Y-66676610D01*
X60939511Y-66676613D01*
X61023387Y-66760489D01*
X61023389Y-66760490D01*
X61023391Y-66760492D01*
X61126110Y-66819797D01*
X61126111Y-66819797D01*
X61126114Y-66819799D01*
X61240691Y-66850500D01*
X61240693Y-66850500D01*
X61359307Y-66850500D01*
X61359309Y-66850500D01*
X61473886Y-66819799D01*
X61473888Y-66819797D01*
X61473890Y-66819797D01*
X61576608Y-66760492D01*
X61576608Y-66760491D01*
X61576613Y-66760489D01*
X61660489Y-66676613D01*
X61661341Y-66675138D01*
X61719797Y-66573890D01*
X61719798Y-66573887D01*
X61719799Y-66573886D01*
X61750500Y-66459309D01*
X61750500Y-66380122D01*
X61769407Y-66321931D01*
X61779496Y-66310118D01*
X62076806Y-66012809D01*
X62985120Y-65104496D01*
X63039637Y-65076719D01*
X63055124Y-65075500D01*
X65444877Y-65075500D01*
X65503068Y-65094407D01*
X65514881Y-65104496D01*
X68495504Y-68085119D01*
X68523281Y-68139636D01*
X68524500Y-68155123D01*
X68524500Y-73497391D01*
X68505593Y-73555582D01*
X68495509Y-73567388D01*
X68443101Y-73619797D01*
X68439508Y-73623390D01*
X68439507Y-73623391D01*
X68380202Y-73726109D01*
X68366280Y-73778067D01*
X68349500Y-73840691D01*
X68349500Y-73959309D01*
X68354137Y-73976613D01*
X68363892Y-74013019D01*
X68360689Y-74074121D01*
X68322184Y-74121670D01*
X68263084Y-74137506D01*
X68205962Y-74115579D01*
X68198268Y-74108652D01*
X66156058Y-72066443D01*
X66156056Y-72066442D01*
X66156055Y-72066441D01*
X66126229Y-72054087D01*
X66126228Y-72054087D01*
X66054800Y-72024500D01*
X66054799Y-72024500D01*
X65674500Y-72024500D01*
X65616309Y-72005593D01*
X65580345Y-71956093D01*
X65575500Y-71925500D01*
X65575500Y-70045200D01*
X65538055Y-69954799D01*
X65538054Y-69954798D01*
X65536136Y-69950167D01*
X65533558Y-69943942D01*
X65509413Y-69919797D01*
X65404496Y-69814879D01*
X65376719Y-69760363D01*
X65375500Y-69744876D01*
X65375500Y-69345200D01*
X65338055Y-69254799D01*
X65333558Y-69243943D01*
X65333557Y-69243942D01*
X65333557Y-69243941D01*
X65304495Y-69214879D01*
X65276719Y-69160362D01*
X65275542Y-69145412D01*
X65275500Y-69145204D01*
X65275500Y-69145200D01*
X65242225Y-69064867D01*
X65233557Y-69043941D01*
X65233555Y-69043939D01*
X65229825Y-69034933D01*
X65231772Y-69034126D01*
X65218652Y-68987595D01*
X65221947Y-68965868D01*
X65250500Y-68859309D01*
X65250500Y-68740691D01*
X65219799Y-68626114D01*
X65219797Y-68626111D01*
X65219797Y-68626109D01*
X65160492Y-68523391D01*
X65160490Y-68523389D01*
X65160489Y-68523387D01*
X65076613Y-68439511D01*
X65076610Y-68439509D01*
X65076608Y-68439507D01*
X64973889Y-68380202D01*
X64973890Y-68380202D01*
X64950318Y-68373886D01*
X64859309Y-68349500D01*
X64859307Y-68349500D01*
X64822246Y-68349500D01*
X64764055Y-68330593D01*
X64747080Y-68314928D01*
X63899334Y-67325891D01*
X63875819Y-67269405D01*
X63875500Y-67261463D01*
X63875500Y-67102609D01*
X63894407Y-67044418D01*
X63904490Y-67032611D01*
X63960489Y-66976613D01*
X64018227Y-66876609D01*
X64019797Y-66873890D01*
X64019797Y-66873888D01*
X64019799Y-66873886D01*
X64050500Y-66759309D01*
X64050500Y-66640691D01*
X64019799Y-66526114D01*
X64019797Y-66526111D01*
X64019797Y-66526109D01*
X63960492Y-66423391D01*
X63960490Y-66423389D01*
X63960489Y-66423387D01*
X63876613Y-66339511D01*
X63876610Y-66339509D01*
X63876608Y-66339507D01*
X63773889Y-66280202D01*
X63773890Y-66280202D01*
X63760351Y-66276574D01*
X63659309Y-66249500D01*
X63540691Y-66249500D01*
X63470567Y-66268289D01*
X63426109Y-66280202D01*
X63323391Y-66339507D01*
X63239507Y-66423391D01*
X63180202Y-66526109D01*
X63180201Y-66526114D01*
X63149500Y-66640691D01*
X63149500Y-66759309D01*
X63173935Y-66850500D01*
X63180202Y-66873890D01*
X63239507Y-66976608D01*
X63239509Y-66976610D01*
X63239511Y-66976613D01*
X63295505Y-67032607D01*
X63323281Y-67087122D01*
X63324500Y-67102609D01*
X63324500Y-67385628D01*
X63324208Y-67393221D01*
X63321108Y-67433509D01*
X63322272Y-67443192D01*
X63321884Y-67443238D01*
X63322215Y-67445315D01*
X63322598Y-67445239D01*
X63324499Y-67454799D01*
X63339965Y-67492136D01*
X63342601Y-67499262D01*
X63355161Y-67537686D01*
X63359940Y-67546185D01*
X63359601Y-67546375D01*
X63360702Y-67548167D01*
X63361026Y-67547951D01*
X63366442Y-67556057D01*
X63395023Y-67584638D01*
X63400184Y-67590213D01*
X64325666Y-68669941D01*
X64349181Y-68726426D01*
X64349500Y-68734368D01*
X64349500Y-68740691D01*
X64349500Y-68859309D01*
X64370989Y-68939507D01*
X64380202Y-68973890D01*
X64439507Y-69076608D01*
X64439509Y-69076610D01*
X64439511Y-69076613D01*
X64523387Y-69160489D01*
X64523389Y-69160490D01*
X64523391Y-69160492D01*
X64631734Y-69223044D01*
X64630332Y-69225472D01*
X64659385Y-69249326D01*
X64659549Y-69249163D01*
X64661216Y-69250830D01*
X64665056Y-69253983D01*
X64666440Y-69256054D01*
X64666442Y-69256056D01*
X64666443Y-69256058D01*
X64695505Y-69285120D01*
X64723281Y-69339635D01*
X64724458Y-69354590D01*
X64724499Y-69354797D01*
X64724500Y-69354799D01*
X64724500Y-69354800D01*
X64729323Y-69366443D01*
X64761424Y-69443943D01*
X64762804Y-69447273D01*
X64766443Y-69456058D01*
X64795505Y-69485120D01*
X64823281Y-69539635D01*
X64824500Y-69555122D01*
X64824500Y-69954800D01*
X64866443Y-70056058D01*
X64995505Y-70185120D01*
X65023281Y-70239635D01*
X65024500Y-70255122D01*
X65024500Y-71764743D01*
X65005593Y-71822934D01*
X64956093Y-71858898D01*
X64899878Y-71860370D01*
X64873529Y-71853310D01*
X64859309Y-71849500D01*
X64740691Y-71849500D01*
X64699669Y-71860492D01*
X64626109Y-71880202D01*
X64523391Y-71939507D01*
X64439507Y-72023391D01*
X64380202Y-72126109D01*
X64363037Y-72190169D01*
X64349500Y-72240691D01*
X64349500Y-72359309D01*
X64372031Y-72443396D01*
X64380202Y-72473890D01*
X64439507Y-72576608D01*
X64439509Y-72576610D01*
X64439511Y-72576613D01*
X64523387Y-72660489D01*
X64523389Y-72660490D01*
X64523391Y-72660492D01*
X64626110Y-72719797D01*
X64626111Y-72719797D01*
X64626114Y-72719799D01*
X64740691Y-72750500D01*
X64740693Y-72750500D01*
X64859307Y-72750500D01*
X64859309Y-72750500D01*
X64973886Y-72719799D01*
X64973888Y-72719797D01*
X64973890Y-72719797D01*
X65076608Y-72660492D01*
X65076608Y-72660491D01*
X65076613Y-72660489D01*
X65132607Y-72604494D01*
X65187122Y-72576719D01*
X65202609Y-72575500D01*
X65245200Y-72575500D01*
X65354800Y-72575500D01*
X65844877Y-72575500D01*
X65903068Y-72594407D01*
X65914881Y-72604496D01*
X68395504Y-75085119D01*
X68423281Y-75139636D01*
X68424500Y-75155123D01*
X68424500Y-77448391D01*
X68405593Y-77506582D01*
X68356093Y-77542546D01*
X68294907Y-77542546D01*
X68255498Y-77518396D01*
X68176613Y-77439511D01*
X68176610Y-77439509D01*
X68176608Y-77439507D01*
X68073889Y-77380202D01*
X68073890Y-77380202D01*
X68050318Y-77373886D01*
X67959309Y-77349500D01*
X67840691Y-77349500D01*
X67777463Y-77366442D01*
X67726109Y-77380202D01*
X67623391Y-77439507D01*
X67539507Y-77523391D01*
X67480202Y-77626109D01*
X67480201Y-77626114D01*
X67449500Y-77740691D01*
X67449500Y-77859309D01*
X67472178Y-77943943D01*
X67480202Y-77973890D01*
X67539507Y-78076608D01*
X67539509Y-78076610D01*
X67539511Y-78076613D01*
X67595505Y-78132607D01*
X67623281Y-78187122D01*
X67624500Y-78202609D01*
X67624500Y-82054800D01*
X67640906Y-82094407D01*
X67651706Y-82120480D01*
X67651706Y-82120481D01*
X67666441Y-82156055D01*
X67666442Y-82156056D01*
X67666443Y-82156058D01*
X68243942Y-82733558D01*
X68243943Y-82733558D01*
X68243944Y-82733559D01*
X68345198Y-82775500D01*
X68345200Y-82775500D01*
X70454799Y-82775500D01*
X70454800Y-82775500D01*
X70556058Y-82733557D01*
X70633557Y-82656058D01*
X70633556Y-82656058D01*
X71185120Y-82104496D01*
X71239636Y-82076719D01*
X71255123Y-82075500D01*
X73297391Y-82075500D01*
X73355582Y-82094407D01*
X73367388Y-82104490D01*
X73423387Y-82160489D01*
X73423389Y-82160490D01*
X73423391Y-82160492D01*
X73526110Y-82219797D01*
X73526111Y-82219797D01*
X73526114Y-82219799D01*
X73640691Y-82250500D01*
X73640693Y-82250500D01*
X73759307Y-82250500D01*
X73759309Y-82250500D01*
X73873886Y-82219799D01*
X73873888Y-82219797D01*
X73873890Y-82219797D01*
X73976608Y-82160492D01*
X73976608Y-82160491D01*
X73976613Y-82160489D01*
X74060489Y-82076613D01*
X74062061Y-82073890D01*
X74119797Y-81973890D01*
X74119797Y-81973888D01*
X74119799Y-81973886D01*
X74150500Y-81859309D01*
X74150500Y-81740691D01*
X74119799Y-81626114D01*
X74119797Y-81626111D01*
X74119797Y-81626109D01*
X74060492Y-81523391D01*
X74060490Y-81523389D01*
X74060489Y-81523387D01*
X73976613Y-81439511D01*
X73976610Y-81439509D01*
X73976608Y-81439507D01*
X73873889Y-81380202D01*
X73873890Y-81380202D01*
X73860351Y-81376574D01*
X73759309Y-81349500D01*
X73640691Y-81349500D01*
X73604084Y-81359309D01*
X73526109Y-81380202D01*
X73423391Y-81439507D01*
X73423390Y-81439508D01*
X73423387Y-81439510D01*
X73423387Y-81439511D01*
X73367392Y-81495505D01*
X73312878Y-81523281D01*
X73297391Y-81524500D01*
X71045200Y-81524500D01*
X70990222Y-81547273D01*
X70990221Y-81547273D01*
X70943943Y-81566441D01*
X70943941Y-81566442D01*
X70943941Y-81566443D01*
X70624501Y-81885884D01*
X70314881Y-82195504D01*
X70260364Y-82223281D01*
X70244877Y-82224500D01*
X68861911Y-82224500D01*
X68803720Y-82205593D01*
X68767756Y-82156093D01*
X68767756Y-82094907D01*
X68803720Y-82045407D01*
X68836286Y-82029873D01*
X68873886Y-82019799D01*
X68873888Y-82019797D01*
X68873890Y-82019797D01*
X68976608Y-81960492D01*
X68976608Y-81960491D01*
X68976613Y-81960489D01*
X69060489Y-81876613D01*
X69066361Y-81866442D01*
X69119797Y-81773890D01*
X69119797Y-81773888D01*
X69119799Y-81773886D01*
X69150500Y-81659309D01*
X69150500Y-81540691D01*
X69119799Y-81426114D01*
X69119797Y-81426111D01*
X69119797Y-81426109D01*
X69060492Y-81323391D01*
X69060490Y-81323389D01*
X69060489Y-81323387D01*
X69004494Y-81267392D01*
X68976719Y-81212878D01*
X68975500Y-81197391D01*
X68975500Y-76440691D01*
X70849500Y-76440691D01*
X70849500Y-76559309D01*
X70864391Y-76614881D01*
X70880202Y-76673890D01*
X70939507Y-76776608D01*
X70939509Y-76776610D01*
X70939511Y-76776613D01*
X71023387Y-76860489D01*
X71023389Y-76860490D01*
X71023391Y-76860492D01*
X71126110Y-76919797D01*
X71126111Y-76919797D01*
X71126114Y-76919799D01*
X71240691Y-76950500D01*
X71240693Y-76950500D01*
X71319877Y-76950500D01*
X71378068Y-76969407D01*
X71389880Y-76979495D01*
X75843942Y-81433558D01*
X75843943Y-81433558D01*
X75843944Y-81433559D01*
X75945198Y-81475500D01*
X75945200Y-81475500D01*
X78254799Y-81475500D01*
X78254800Y-81475500D01*
X78356058Y-81433557D01*
X78433557Y-81356058D01*
X78433556Y-81356058D01*
X79612109Y-80177505D01*
X80810119Y-78979496D01*
X80864636Y-78951719D01*
X80880123Y-78950500D01*
X80959307Y-78950500D01*
X80959309Y-78950500D01*
X81073886Y-78919799D01*
X81073888Y-78919797D01*
X81073890Y-78919797D01*
X81176608Y-78860492D01*
X81176608Y-78860491D01*
X81176613Y-78860489D01*
X81260489Y-78776613D01*
X81276143Y-78749500D01*
X81281229Y-78740691D01*
X82549500Y-78740691D01*
X82549500Y-78859309D01*
X82573935Y-78950500D01*
X82580202Y-78973890D01*
X82639507Y-79076608D01*
X82639509Y-79076610D01*
X82639511Y-79076613D01*
X82695505Y-79132607D01*
X82723281Y-79187122D01*
X82724500Y-79202609D01*
X82724500Y-80254800D01*
X82746588Y-80308125D01*
X82748907Y-80313723D01*
X82748906Y-80313723D01*
X82766441Y-80356054D01*
X82766443Y-80356058D01*
X83620505Y-81210120D01*
X83648281Y-81264635D01*
X83649500Y-81280122D01*
X83649500Y-81359309D01*
X83669395Y-81433556D01*
X83680202Y-81473890D01*
X83739507Y-81576608D01*
X83739509Y-81576610D01*
X83739511Y-81576613D01*
X83823387Y-81660489D01*
X83823389Y-81660490D01*
X83823391Y-81660492D01*
X83926110Y-81719797D01*
X83926111Y-81719797D01*
X83926114Y-81719799D01*
X84040691Y-81750500D01*
X84040693Y-81750500D01*
X84159307Y-81750500D01*
X84159309Y-81750500D01*
X84273886Y-81719799D01*
X84273888Y-81719797D01*
X84273890Y-81719797D01*
X84376608Y-81660492D01*
X84376608Y-81660491D01*
X84376613Y-81660489D01*
X84460489Y-81576613D01*
X84481910Y-81539511D01*
X84519797Y-81473890D01*
X84519797Y-81473888D01*
X84519799Y-81473886D01*
X84550500Y-81359309D01*
X84550500Y-81240691D01*
X84519799Y-81126114D01*
X84519797Y-81126111D01*
X84519797Y-81126109D01*
X84460492Y-81023391D01*
X84460490Y-81023389D01*
X84460489Y-81023387D01*
X84376613Y-80939511D01*
X84376610Y-80939509D01*
X84376608Y-80939507D01*
X84273889Y-80880202D01*
X84273890Y-80880202D01*
X84260351Y-80876574D01*
X84159309Y-80849500D01*
X84080123Y-80849500D01*
X84021932Y-80830593D01*
X84010119Y-80820504D01*
X83304496Y-80114881D01*
X83276719Y-80060364D01*
X83275500Y-80044877D01*
X83275500Y-79202609D01*
X83294407Y-79144418D01*
X83304490Y-79132611D01*
X83360489Y-79076613D01*
X83369798Y-79060489D01*
X83419797Y-78973890D01*
X83419797Y-78973888D01*
X83419799Y-78973886D01*
X83450500Y-78859309D01*
X83450500Y-78740691D01*
X83419799Y-78626114D01*
X83419797Y-78626111D01*
X83419797Y-78626109D01*
X83360492Y-78523391D01*
X83360490Y-78523389D01*
X83360489Y-78523387D01*
X83276613Y-78439511D01*
X83276610Y-78439509D01*
X83276608Y-78439507D01*
X83173889Y-78380202D01*
X83173890Y-78380202D01*
X83150318Y-78373886D01*
X83059309Y-78349500D01*
X82940691Y-78349500D01*
X82899669Y-78360492D01*
X82826109Y-78380202D01*
X82723391Y-78439507D01*
X82639507Y-78523391D01*
X82580202Y-78626109D01*
X82568441Y-78670004D01*
X82549500Y-78740691D01*
X81281229Y-78740691D01*
X81313555Y-78684702D01*
X81313555Y-78684701D01*
X81316560Y-78679496D01*
X81319799Y-78673886D01*
X81350500Y-78559309D01*
X81350500Y-78440691D01*
X81319799Y-78326114D01*
X81319797Y-78326111D01*
X81319797Y-78326109D01*
X81260492Y-78223391D01*
X81260490Y-78223389D01*
X81260489Y-78223387D01*
X81177793Y-78140691D01*
X84349500Y-78140691D01*
X84349500Y-78259309D01*
X84370990Y-78339509D01*
X84380202Y-78373890D01*
X84439507Y-78476608D01*
X84439509Y-78476610D01*
X84439511Y-78476613D01*
X84523387Y-78560489D01*
X84523389Y-78560490D01*
X84523391Y-78560492D01*
X84626110Y-78619797D01*
X84626111Y-78619797D01*
X84626114Y-78619799D01*
X84740691Y-78650500D01*
X84740693Y-78650500D01*
X84819877Y-78650500D01*
X84878068Y-78669407D01*
X84889880Y-78679495D01*
X86143941Y-79933557D01*
X86173595Y-79945839D01*
X86173597Y-79945841D01*
X86173598Y-79945841D01*
X86209399Y-79960670D01*
X86245200Y-79975500D01*
X89297391Y-79975500D01*
X89355582Y-79994407D01*
X89367388Y-80004490D01*
X89423387Y-80060489D01*
X89423389Y-80060490D01*
X89423391Y-80060492D01*
X89526110Y-80119797D01*
X89526111Y-80119797D01*
X89526114Y-80119799D01*
X89640691Y-80150500D01*
X89640693Y-80150500D01*
X89759307Y-80150500D01*
X89759309Y-80150500D01*
X89873886Y-80119799D01*
X89873888Y-80119797D01*
X89873890Y-80119797D01*
X89976608Y-80060492D01*
X89976608Y-80060491D01*
X89976613Y-80060489D01*
X90060489Y-79976613D01*
X90061132Y-79975500D01*
X90119797Y-79873890D01*
X90119797Y-79873888D01*
X90119799Y-79873886D01*
X90150500Y-79759309D01*
X90150500Y-79640691D01*
X90119799Y-79526114D01*
X90119797Y-79526111D01*
X90119797Y-79526109D01*
X90060492Y-79423391D01*
X90060490Y-79423389D01*
X90060489Y-79423387D01*
X89976613Y-79339511D01*
X89976610Y-79339509D01*
X89976608Y-79339507D01*
X89873889Y-79280202D01*
X89873890Y-79280202D01*
X89844668Y-79272372D01*
X89759309Y-79249500D01*
X89640691Y-79249500D01*
X89570567Y-79268289D01*
X89526109Y-79280202D01*
X89423391Y-79339507D01*
X89423390Y-79339508D01*
X89423387Y-79339510D01*
X89423387Y-79339511D01*
X89367392Y-79395505D01*
X89312878Y-79423281D01*
X89297391Y-79424500D01*
X86455124Y-79424500D01*
X86396933Y-79405593D01*
X86385120Y-79395504D01*
X85279496Y-78289880D01*
X85251719Y-78235363D01*
X85250500Y-78219876D01*
X85250500Y-78140692D01*
X85250500Y-78140691D01*
X85219799Y-78026114D01*
X85219797Y-78026111D01*
X85219797Y-78026109D01*
X85160492Y-77923391D01*
X85160490Y-77923389D01*
X85160489Y-77923387D01*
X85076613Y-77839511D01*
X85076610Y-77839509D01*
X85076608Y-77839507D01*
X84973889Y-77780202D01*
X84973890Y-77780202D01*
X84960351Y-77776574D01*
X84859309Y-77749500D01*
X84740691Y-77749500D01*
X84670567Y-77768289D01*
X84626109Y-77780202D01*
X84523391Y-77839507D01*
X84439507Y-77923391D01*
X84380202Y-78026109D01*
X84373804Y-78049988D01*
X84349500Y-78140691D01*
X81177793Y-78140691D01*
X81176613Y-78139511D01*
X81176610Y-78139509D01*
X81176608Y-78139507D01*
X81073889Y-78080202D01*
X81073890Y-78080202D01*
X81050318Y-78073886D01*
X80959309Y-78049500D01*
X80840691Y-78049500D01*
X80804084Y-78059309D01*
X80726109Y-78080202D01*
X80623391Y-78139507D01*
X80539507Y-78223391D01*
X80480202Y-78326109D01*
X80470989Y-78360492D01*
X80449818Y-78439507D01*
X80449500Y-78440692D01*
X80449500Y-78519875D01*
X80430593Y-78578066D01*
X80420504Y-78589879D01*
X78114881Y-80895504D01*
X78060364Y-80923281D01*
X78044877Y-80924500D01*
X76155124Y-80924500D01*
X76096933Y-80905593D01*
X76085120Y-80895504D01*
X71779496Y-76589880D01*
X71751719Y-76535363D01*
X71750500Y-76519876D01*
X71750500Y-76440692D01*
X71734270Y-76380122D01*
X71719799Y-76326114D01*
X71719797Y-76326111D01*
X71719797Y-76326109D01*
X71660492Y-76223391D01*
X71660490Y-76223389D01*
X71660489Y-76223387D01*
X71576613Y-76139511D01*
X71576610Y-76139509D01*
X71576608Y-76139507D01*
X71473889Y-76080202D01*
X71473890Y-76080202D01*
X71450318Y-76073886D01*
X71359309Y-76049500D01*
X71240691Y-76049500D01*
X71199669Y-76060492D01*
X71126109Y-76080202D01*
X71023391Y-76139507D01*
X70939507Y-76223391D01*
X70880202Y-76326109D01*
X70863037Y-76390169D01*
X70849500Y-76440691D01*
X68975500Y-76440691D01*
X68975500Y-74945198D01*
X68933559Y-74843944D01*
X68933558Y-74843943D01*
X68933558Y-74843942D01*
X68591352Y-74501736D01*
X68563576Y-74447221D01*
X68573147Y-74386789D01*
X68616412Y-74343524D01*
X68676844Y-74333953D01*
X68686974Y-74336106D01*
X68740691Y-74350500D01*
X68740692Y-74350500D01*
X68859307Y-74350500D01*
X68859309Y-74350500D01*
X68973886Y-74319799D01*
X68973888Y-74319797D01*
X68973890Y-74319797D01*
X69076608Y-74260492D01*
X69076608Y-74260491D01*
X69076613Y-74260489D01*
X69160489Y-74176613D01*
X69162061Y-74173890D01*
X69219797Y-74073890D01*
X69219797Y-74073888D01*
X69219799Y-74073886D01*
X69250500Y-73959309D01*
X69250500Y-73940691D01*
X73649500Y-73940691D01*
X73649500Y-74059309D01*
X73673935Y-74150500D01*
X73680202Y-74173890D01*
X73739507Y-74276608D01*
X73739509Y-74276610D01*
X73739511Y-74276613D01*
X73823387Y-74360489D01*
X73823389Y-74360490D01*
X73823391Y-74360492D01*
X73926110Y-74419797D01*
X73926111Y-74419797D01*
X73926114Y-74419799D01*
X74040691Y-74450500D01*
X74040693Y-74450500D01*
X74119877Y-74450500D01*
X74178068Y-74469407D01*
X74189881Y-74479496D01*
X77395504Y-77685119D01*
X77423281Y-77739636D01*
X77424500Y-77755123D01*
X77424500Y-78397391D01*
X77405593Y-78455582D01*
X77395509Y-78467388D01*
X77362275Y-78500623D01*
X77339508Y-78523390D01*
X77339507Y-78523391D01*
X77280202Y-78626109D01*
X77268441Y-78670004D01*
X77249500Y-78740691D01*
X77249500Y-78859309D01*
X77273935Y-78950500D01*
X77280202Y-78973890D01*
X77339507Y-79076608D01*
X77339509Y-79076610D01*
X77339511Y-79076613D01*
X77423387Y-79160489D01*
X77423389Y-79160490D01*
X77423391Y-79160492D01*
X77526110Y-79219797D01*
X77526111Y-79219797D01*
X77526114Y-79219799D01*
X77640691Y-79250500D01*
X77640693Y-79250500D01*
X77759307Y-79250500D01*
X77759309Y-79250500D01*
X77873886Y-79219799D01*
X77873888Y-79219797D01*
X77873890Y-79219797D01*
X77976608Y-79160492D01*
X77976608Y-79160491D01*
X77976613Y-79160489D01*
X78060489Y-79076613D01*
X78069798Y-79060489D01*
X78119797Y-78973890D01*
X78119797Y-78973888D01*
X78119799Y-78973886D01*
X78150500Y-78859309D01*
X78150500Y-78740691D01*
X78119799Y-78626114D01*
X78119797Y-78626111D01*
X78119797Y-78626109D01*
X78060492Y-78523391D01*
X78060490Y-78523389D01*
X78060489Y-78523387D01*
X78004494Y-78467392D01*
X77976719Y-78412878D01*
X77975500Y-78397391D01*
X77975500Y-77545200D01*
X77974401Y-77542546D01*
X77933557Y-77443942D01*
X77903730Y-77414115D01*
X77856058Y-77366442D01*
X77856058Y-77366443D01*
X76830306Y-76340691D01*
X79649500Y-76340691D01*
X79649500Y-76459309D01*
X79665729Y-76519876D01*
X79680202Y-76573890D01*
X79739507Y-76676608D01*
X79739509Y-76676610D01*
X79739511Y-76676613D01*
X79823387Y-76760489D01*
X79823389Y-76760490D01*
X79823391Y-76760492D01*
X79926110Y-76819797D01*
X79926111Y-76819797D01*
X79926114Y-76819799D01*
X80040691Y-76850500D01*
X80040693Y-76850500D01*
X80159307Y-76850500D01*
X80159309Y-76850500D01*
X80273886Y-76819799D01*
X80273888Y-76819797D01*
X80273890Y-76819797D01*
X80376608Y-76760492D01*
X80376608Y-76760491D01*
X80376613Y-76760489D01*
X80460489Y-76676613D01*
X80462061Y-76673890D01*
X80519797Y-76573890D01*
X80519797Y-76573888D01*
X80519799Y-76573886D01*
X80550500Y-76459309D01*
X80550500Y-76380122D01*
X80569407Y-76321931D01*
X80579496Y-76310118D01*
X81140114Y-75749500D01*
X81733557Y-75156058D01*
X81748294Y-75120480D01*
X81775500Y-75054800D01*
X81775500Y-74740691D01*
X83449500Y-74740691D01*
X83449500Y-74859309D01*
X83472514Y-74945198D01*
X83480202Y-74973890D01*
X83539507Y-75076608D01*
X83539509Y-75076610D01*
X83539511Y-75076613D01*
X83595505Y-75132607D01*
X83623281Y-75187122D01*
X83624500Y-75202609D01*
X83624500Y-75997391D01*
X83605593Y-76055582D01*
X83595509Y-76067388D01*
X83543101Y-76119797D01*
X83539508Y-76123390D01*
X83539507Y-76123391D01*
X83480202Y-76226109D01*
X83480201Y-76226114D01*
X83449500Y-76340691D01*
X83449500Y-76459309D01*
X83465729Y-76519876D01*
X83480202Y-76573890D01*
X83539507Y-76676608D01*
X83539509Y-76676610D01*
X83539511Y-76676613D01*
X83623387Y-76760489D01*
X83623389Y-76760490D01*
X83623391Y-76760492D01*
X83726110Y-76819797D01*
X83726111Y-76819797D01*
X83726114Y-76819799D01*
X83840691Y-76850500D01*
X83840693Y-76850500D01*
X83959307Y-76850500D01*
X83959309Y-76850500D01*
X84073886Y-76819799D01*
X84073888Y-76819797D01*
X84073890Y-76819797D01*
X84176608Y-76760492D01*
X84176608Y-76760491D01*
X84176613Y-76760489D01*
X84260489Y-76676613D01*
X84262061Y-76673890D01*
X84319797Y-76573890D01*
X84319797Y-76573888D01*
X84319799Y-76573886D01*
X84350500Y-76459309D01*
X84350500Y-76340691D01*
X84319799Y-76226114D01*
X84319797Y-76226111D01*
X84319797Y-76226109D01*
X84260492Y-76123391D01*
X84260490Y-76123389D01*
X84260489Y-76123387D01*
X84204494Y-76067392D01*
X84176719Y-76012878D01*
X84175500Y-75997391D01*
X84175500Y-75202609D01*
X84194407Y-75144418D01*
X84204490Y-75132611D01*
X84260489Y-75076613D01*
X84273083Y-75054800D01*
X84319797Y-74973890D01*
X84319797Y-74973888D01*
X84319799Y-74973886D01*
X84350500Y-74859309D01*
X84350500Y-74740691D01*
X84319799Y-74626114D01*
X84319797Y-74626111D01*
X84319797Y-74626109D01*
X84260492Y-74523391D01*
X84260490Y-74523389D01*
X84260489Y-74523387D01*
X84176613Y-74439511D01*
X84176610Y-74439509D01*
X84176608Y-74439507D01*
X84073889Y-74380202D01*
X84073890Y-74380202D01*
X84050318Y-74373886D01*
X83959309Y-74349500D01*
X83840691Y-74349500D01*
X83799669Y-74360492D01*
X83726109Y-74380202D01*
X83623391Y-74439507D01*
X83539507Y-74523391D01*
X83480202Y-74626109D01*
X83467031Y-74675266D01*
X83449500Y-74740691D01*
X81775500Y-74740691D01*
X81775500Y-74455123D01*
X81794407Y-74396932D01*
X81804496Y-74385119D01*
X82010119Y-74179496D01*
X82064636Y-74151719D01*
X82080123Y-74150500D01*
X82159307Y-74150500D01*
X82159309Y-74150500D01*
X82195916Y-74140691D01*
X89449500Y-74140691D01*
X89449500Y-74259309D01*
X89473667Y-74349500D01*
X89480202Y-74373890D01*
X89539507Y-74476608D01*
X89539509Y-74476610D01*
X89539511Y-74476613D01*
X89623387Y-74560489D01*
X89623389Y-74560490D01*
X89623391Y-74560492D01*
X89726110Y-74619797D01*
X89726111Y-74619797D01*
X89726114Y-74619799D01*
X89840691Y-74650500D01*
X89840693Y-74650500D01*
X89956733Y-74650500D01*
X90014924Y-74669407D01*
X90022234Y-74675266D01*
X91116001Y-75640354D01*
X91147125Y-75693032D01*
X91149500Y-75714588D01*
X91149500Y-75759309D01*
X91170989Y-75839507D01*
X91180202Y-75873890D01*
X91239507Y-75976608D01*
X91239509Y-75976610D01*
X91239511Y-75976613D01*
X91323387Y-76060489D01*
X91323389Y-76060490D01*
X91323391Y-76060492D01*
X91426110Y-76119797D01*
X91426111Y-76119797D01*
X91426114Y-76119799D01*
X91540691Y-76150500D01*
X91540693Y-76150500D01*
X91659307Y-76150500D01*
X91659309Y-76150500D01*
X91773886Y-76119799D01*
X91773888Y-76119797D01*
X91773890Y-76119797D01*
X91876608Y-76060492D01*
X91876608Y-76060491D01*
X91876613Y-76060489D01*
X91960489Y-75976613D01*
X91966252Y-75966632D01*
X92019797Y-75873890D01*
X92019797Y-75873888D01*
X92019799Y-75873886D01*
X92050500Y-75759309D01*
X92050500Y-75640691D01*
X92019799Y-75526114D01*
X92019797Y-75526111D01*
X92019797Y-75526109D01*
X91960492Y-75423391D01*
X91960490Y-75423389D01*
X91960489Y-75423387D01*
X91876613Y-75339511D01*
X91876610Y-75339509D01*
X91876608Y-75339507D01*
X91773889Y-75280202D01*
X91773890Y-75280202D01*
X91760351Y-75276574D01*
X91659309Y-75249500D01*
X91543267Y-75249500D01*
X91485076Y-75230593D01*
X91477766Y-75224734D01*
X91280674Y-75050829D01*
X91202051Y-74981456D01*
X106999500Y-74981456D01*
X106999500Y-74981459D01*
X106999500Y-75178541D01*
X107031518Y-75339507D01*
X107037949Y-75371834D01*
X107037949Y-75371836D01*
X107113367Y-75553913D01*
X107113368Y-75553914D01*
X107222861Y-75717782D01*
X107362218Y-75857139D01*
X107526086Y-75966632D01*
X107708165Y-76042051D01*
X107901459Y-76080500D01*
X107901460Y-76080500D01*
X108098540Y-76080500D01*
X108098541Y-76080500D01*
X108291835Y-76042051D01*
X108473914Y-75966632D01*
X108637782Y-75857139D01*
X108777139Y-75717782D01*
X108886632Y-75553914D01*
X108962051Y-75371835D01*
X109000500Y-75178541D01*
X109000500Y-74981459D01*
X108962051Y-74788165D01*
X108886632Y-74606086D01*
X108777139Y-74442218D01*
X108637782Y-74302861D01*
X108473914Y-74193368D01*
X108473915Y-74193368D01*
X108473913Y-74193367D01*
X108291835Y-74117949D01*
X108098543Y-74079500D01*
X108098541Y-74079500D01*
X107901459Y-74079500D01*
X107901456Y-74079500D01*
X107708165Y-74117949D01*
X107708163Y-74117949D01*
X107526086Y-74193367D01*
X107362218Y-74302861D01*
X107362214Y-74302864D01*
X107222864Y-74442214D01*
X107222861Y-74442218D01*
X107113367Y-74606086D01*
X107037949Y-74788163D01*
X107037949Y-74788165D01*
X106999500Y-74981456D01*
X91202051Y-74981456D01*
X90383999Y-74259644D01*
X90352875Y-74206966D01*
X90350500Y-74185410D01*
X90350500Y-74140692D01*
X90350500Y-74140691D01*
X90319799Y-74026114D01*
X90319797Y-74026111D01*
X90319797Y-74026109D01*
X90260492Y-73923391D01*
X90260490Y-73923389D01*
X90260489Y-73923387D01*
X90176613Y-73839511D01*
X90176610Y-73839509D01*
X90176608Y-73839507D01*
X90073889Y-73780202D01*
X90073890Y-73780202D01*
X90060351Y-73776574D01*
X89959309Y-73749500D01*
X89840691Y-73749500D01*
X89770567Y-73768289D01*
X89726109Y-73780202D01*
X89623391Y-73839507D01*
X89539507Y-73923391D01*
X89480202Y-74026109D01*
X89469395Y-74066442D01*
X89449500Y-74140691D01*
X82195916Y-74140691D01*
X82273886Y-74119799D01*
X82273888Y-74119797D01*
X82273890Y-74119797D01*
X82376608Y-74060492D01*
X82376608Y-74060491D01*
X82376613Y-74060489D01*
X82460489Y-73976613D01*
X82491217Y-73923391D01*
X82519797Y-73873890D01*
X82519797Y-73873888D01*
X82519799Y-73873886D01*
X82550500Y-73759309D01*
X82550500Y-73640691D01*
X82519799Y-73526114D01*
X82519797Y-73526111D01*
X82519797Y-73526109D01*
X82460492Y-73423391D01*
X82460490Y-73423389D01*
X82460489Y-73423387D01*
X82376613Y-73339511D01*
X82376610Y-73339509D01*
X82376608Y-73339507D01*
X82273889Y-73280202D01*
X82273890Y-73280202D01*
X82260351Y-73276574D01*
X82159309Y-73249500D01*
X82040691Y-73249500D01*
X82004084Y-73259309D01*
X81926109Y-73280202D01*
X81823391Y-73339507D01*
X81739507Y-73423391D01*
X81680202Y-73526109D01*
X81672305Y-73555582D01*
X81649818Y-73639507D01*
X81649500Y-73640692D01*
X81649500Y-73719876D01*
X81630593Y-73778067D01*
X81620504Y-73789879D01*
X81343942Y-74066442D01*
X81266446Y-74143938D01*
X81266444Y-74143940D01*
X81266443Y-74143942D01*
X81263727Y-74150500D01*
X81224500Y-74245200D01*
X81224500Y-74844876D01*
X81205593Y-74903067D01*
X81195504Y-74914880D01*
X80189880Y-75920504D01*
X80135363Y-75948281D01*
X80119876Y-75949500D01*
X80040691Y-75949500D01*
X79976754Y-75966632D01*
X79926109Y-75980202D01*
X79823391Y-76039507D01*
X79739507Y-76123391D01*
X79680202Y-76226109D01*
X79680201Y-76226114D01*
X79649500Y-76340691D01*
X76830306Y-76340691D01*
X74579496Y-74089881D01*
X74551719Y-74035364D01*
X74550500Y-74019877D01*
X74550500Y-73940692D01*
X74545863Y-73923387D01*
X74519799Y-73826114D01*
X74519797Y-73826111D01*
X74519797Y-73826109D01*
X74460492Y-73723391D01*
X74460490Y-73723389D01*
X74460489Y-73723387D01*
X74376613Y-73639511D01*
X74376610Y-73639509D01*
X74376608Y-73639507D01*
X74273889Y-73580202D01*
X74273890Y-73580202D01*
X74260351Y-73576574D01*
X74159309Y-73549500D01*
X74040691Y-73549500D01*
X73999669Y-73560492D01*
X73926109Y-73580202D01*
X73823391Y-73639507D01*
X73739507Y-73723391D01*
X73680202Y-73826109D01*
X73680201Y-73826114D01*
X73649500Y-73940691D01*
X69250500Y-73940691D01*
X69250500Y-73840691D01*
X69219799Y-73726114D01*
X69219797Y-73726111D01*
X69219797Y-73726109D01*
X69160492Y-73623391D01*
X69160490Y-73623389D01*
X69160489Y-73623387D01*
X69104494Y-73567392D01*
X69076719Y-73512878D01*
X69075500Y-73497391D01*
X69075500Y-73140691D01*
X70749500Y-73140691D01*
X70749500Y-73259309D01*
X70764996Y-73317139D01*
X70780202Y-73373890D01*
X70839507Y-73476608D01*
X70839509Y-73476610D01*
X70839511Y-73476613D01*
X70923387Y-73560489D01*
X70923389Y-73560490D01*
X70923391Y-73560492D01*
X71026110Y-73619797D01*
X71026111Y-73619797D01*
X71026114Y-73619799D01*
X71140691Y-73650500D01*
X71140693Y-73650500D01*
X71259307Y-73650500D01*
X71259309Y-73650500D01*
X71373886Y-73619799D01*
X71373888Y-73619797D01*
X71373890Y-73619797D01*
X71476608Y-73560492D01*
X71476608Y-73560491D01*
X71476613Y-73560489D01*
X71560489Y-73476613D01*
X71560492Y-73476608D01*
X71619797Y-73373890D01*
X71619797Y-73373888D01*
X71619799Y-73373886D01*
X71650500Y-73259309D01*
X71650500Y-73180123D01*
X71669407Y-73121932D01*
X71679496Y-73110119D01*
X72110119Y-72679496D01*
X72164636Y-72651719D01*
X72180123Y-72650500D01*
X72259307Y-72650500D01*
X72259309Y-72650500D01*
X72373886Y-72619799D01*
X72373888Y-72619797D01*
X72373890Y-72619797D01*
X72476608Y-72560492D01*
X72476608Y-72560491D01*
X72476613Y-72560489D01*
X72560489Y-72476613D01*
X72562061Y-72473890D01*
X72619797Y-72373890D01*
X72619797Y-72373888D01*
X72619799Y-72373886D01*
X72650500Y-72259309D01*
X72650500Y-72140691D01*
X72619799Y-72026114D01*
X72619797Y-72026111D01*
X72619797Y-72026109D01*
X72560492Y-71923391D01*
X72560490Y-71923389D01*
X72560489Y-71923387D01*
X72476613Y-71839511D01*
X72476610Y-71839509D01*
X72476608Y-71839507D01*
X72373889Y-71780202D01*
X72373890Y-71780202D01*
X72360351Y-71776574D01*
X72259309Y-71749500D01*
X72140691Y-71749500D01*
X72083804Y-71764743D01*
X72026109Y-71780202D01*
X71923391Y-71839507D01*
X71839507Y-71923391D01*
X71780202Y-72026109D01*
X71749500Y-72140692D01*
X71749500Y-72219875D01*
X71730593Y-72278066D01*
X71720504Y-72289879D01*
X71289879Y-72720504D01*
X71235362Y-72748281D01*
X71219875Y-72749500D01*
X71140691Y-72749500D01*
X71070567Y-72768289D01*
X71026109Y-72780202D01*
X70923391Y-72839507D01*
X70839507Y-72923391D01*
X70780202Y-73026109D01*
X70780201Y-73026114D01*
X70749500Y-73140691D01*
X69075500Y-73140691D01*
X69075500Y-69440691D01*
X73349500Y-69440691D01*
X73349500Y-69559309D01*
X73369140Y-69632605D01*
X73380202Y-69673890D01*
X73439507Y-69776608D01*
X73439509Y-69776610D01*
X73439511Y-69776613D01*
X73523387Y-69860489D01*
X73523389Y-69860490D01*
X73523391Y-69860492D01*
X73626110Y-69919797D01*
X73626111Y-69919797D01*
X73626114Y-69919799D01*
X73740691Y-69950500D01*
X73740693Y-69950500D01*
X73819877Y-69950500D01*
X73878068Y-69969407D01*
X73889874Y-69979490D01*
X73895497Y-69985112D01*
X73923280Y-70039626D01*
X73924500Y-70055122D01*
X73924500Y-71454800D01*
X73939794Y-71491723D01*
X73961423Y-71543941D01*
X73966441Y-71556055D01*
X73966442Y-71556056D01*
X73966443Y-71556058D01*
X73995505Y-71585120D01*
X74023281Y-71639635D01*
X74024500Y-71655122D01*
X74024500Y-71754800D01*
X74035022Y-71780201D01*
X74051706Y-71820480D01*
X74051706Y-71820481D01*
X74066441Y-71856056D01*
X74468914Y-72258530D01*
X74496691Y-72313046D01*
X74496563Y-72344806D01*
X74494573Y-72356748D01*
X74466358Y-72411039D01*
X74446423Y-72426210D01*
X74423389Y-72439509D01*
X74339507Y-72523391D01*
X74280202Y-72626109D01*
X74270989Y-72660492D01*
X74249500Y-72740691D01*
X74249500Y-72859309D01*
X74266670Y-72923387D01*
X74280202Y-72973890D01*
X74339507Y-73076608D01*
X74339509Y-73076610D01*
X74339511Y-73076613D01*
X74423387Y-73160489D01*
X74423389Y-73160490D01*
X74423391Y-73160492D01*
X74526110Y-73219797D01*
X74526111Y-73219797D01*
X74526114Y-73219799D01*
X74640691Y-73250500D01*
X74640693Y-73250500D01*
X74759307Y-73250500D01*
X74759309Y-73250500D01*
X74873886Y-73219799D01*
X74873888Y-73219797D01*
X74873890Y-73219797D01*
X74976608Y-73160492D01*
X74976608Y-73160491D01*
X74976613Y-73160489D01*
X75060489Y-73076613D01*
X75119799Y-72973886D01*
X75150500Y-72859309D01*
X75150500Y-72740691D01*
X75119799Y-72626114D01*
X75119797Y-72626111D01*
X75119797Y-72626109D01*
X75060490Y-72523388D01*
X75057843Y-72519938D01*
X75037420Y-72462262D01*
X75038733Y-72443396D01*
X75039056Y-72441459D01*
X75066576Y-72276343D01*
X75075500Y-72254800D01*
X75075500Y-72222803D01*
X75080761Y-72191238D01*
X75075500Y-72168519D01*
X75075500Y-72145200D01*
X75073632Y-72140691D01*
X76549500Y-72140691D01*
X76549500Y-72259309D01*
X76563899Y-72313046D01*
X76580202Y-72373890D01*
X76639507Y-72476608D01*
X76639509Y-72476610D01*
X76639511Y-72476613D01*
X76723387Y-72560489D01*
X76723389Y-72560490D01*
X76723391Y-72560492D01*
X76826110Y-72619797D01*
X76826111Y-72619797D01*
X76826114Y-72619799D01*
X76940691Y-72650500D01*
X76940693Y-72650500D01*
X77059307Y-72650500D01*
X77059309Y-72650500D01*
X77173886Y-72619799D01*
X77173888Y-72619797D01*
X77173890Y-72619797D01*
X77276608Y-72560492D01*
X77276608Y-72560491D01*
X77276613Y-72560489D01*
X77360489Y-72476613D01*
X77362061Y-72473890D01*
X77419797Y-72373890D01*
X77419797Y-72373888D01*
X77419799Y-72373886D01*
X77450500Y-72259309D01*
X77450500Y-72140691D01*
X77419799Y-72026114D01*
X77419797Y-72026111D01*
X77419797Y-72026109D01*
X77360492Y-71923391D01*
X77360490Y-71923389D01*
X77360489Y-71923387D01*
X77304494Y-71867392D01*
X77276719Y-71812878D01*
X77275500Y-71797391D01*
X77275500Y-70540691D01*
X78749500Y-70540691D01*
X78749500Y-70659309D01*
X78751667Y-70667395D01*
X78780202Y-70773890D01*
X78839507Y-70876608D01*
X78839509Y-70876610D01*
X78839511Y-70876613D01*
X78895505Y-70932607D01*
X78923281Y-70987122D01*
X78924500Y-71002609D01*
X78924500Y-71754800D01*
X78935022Y-71780201D01*
X78951706Y-71820480D01*
X78951706Y-71820481D01*
X78966441Y-71856055D01*
X78966442Y-71856056D01*
X78966443Y-71856058D01*
X79220505Y-72110121D01*
X79248281Y-72164635D01*
X79249500Y-72180122D01*
X79249500Y-72259309D01*
X79263899Y-72313046D01*
X79280202Y-72373890D01*
X79339507Y-72476608D01*
X79339509Y-72476610D01*
X79339511Y-72476613D01*
X79423387Y-72560489D01*
X79423389Y-72560490D01*
X79423391Y-72560492D01*
X79526110Y-72619797D01*
X79526111Y-72619797D01*
X79526114Y-72619799D01*
X79640691Y-72650500D01*
X79640693Y-72650500D01*
X79759307Y-72650500D01*
X79759309Y-72650500D01*
X79873886Y-72619799D01*
X79873888Y-72619797D01*
X79873890Y-72619797D01*
X79976608Y-72560492D01*
X79976608Y-72560491D01*
X79976613Y-72560489D01*
X80060489Y-72476613D01*
X80062061Y-72473890D01*
X80119797Y-72373890D01*
X80119797Y-72373888D01*
X80119799Y-72373886D01*
X80150500Y-72259309D01*
X80150500Y-72140691D01*
X80119799Y-72026114D01*
X80119797Y-72026111D01*
X80119797Y-72026109D01*
X80060492Y-71923391D01*
X80060490Y-71923389D01*
X80060489Y-71923387D01*
X79976613Y-71839511D01*
X79976610Y-71839509D01*
X79976608Y-71839507D01*
X79873889Y-71780202D01*
X79873890Y-71780202D01*
X79860351Y-71776574D01*
X79759309Y-71749500D01*
X79680124Y-71749500D01*
X79621933Y-71730593D01*
X79610120Y-71720504D01*
X79504496Y-71614880D01*
X79500869Y-71607762D01*
X79494407Y-71603067D01*
X79487243Y-71581018D01*
X79476719Y-71560363D01*
X79475500Y-71544876D01*
X79475500Y-71440691D01*
X83049500Y-71440691D01*
X83049500Y-71559309D01*
X83074703Y-71653367D01*
X83080202Y-71673890D01*
X83139507Y-71776608D01*
X83139509Y-71776610D01*
X83139511Y-71776613D01*
X83223387Y-71860489D01*
X83223389Y-71860490D01*
X83223391Y-71860492D01*
X83326110Y-71919797D01*
X83326111Y-71919797D01*
X83326114Y-71919799D01*
X83440691Y-71950500D01*
X83500593Y-71950500D01*
X83558784Y-71969407D01*
X83572967Y-71981950D01*
X83757928Y-72180122D01*
X84422874Y-72892564D01*
X84448757Y-72948005D01*
X84449500Y-72960113D01*
X84449500Y-73059309D01*
X84454137Y-73076613D01*
X84480202Y-73173890D01*
X84539507Y-73276608D01*
X84539509Y-73276610D01*
X84539511Y-73276613D01*
X84623387Y-73360489D01*
X84623389Y-73360490D01*
X84623391Y-73360492D01*
X84726110Y-73419797D01*
X84726111Y-73419797D01*
X84726114Y-73419799D01*
X84840691Y-73450500D01*
X84840693Y-73450500D01*
X84959307Y-73450500D01*
X84959309Y-73450500D01*
X85073886Y-73419799D01*
X85073888Y-73419797D01*
X85073890Y-73419797D01*
X85176608Y-73360492D01*
X85176608Y-73360491D01*
X85176613Y-73360489D01*
X85260489Y-73276613D01*
X85270481Y-73259307D01*
X85319797Y-73173890D01*
X85319797Y-73173888D01*
X85319799Y-73173886D01*
X85350500Y-73059309D01*
X85350500Y-72940691D01*
X85319799Y-72826114D01*
X85319797Y-72826111D01*
X85319797Y-72826109D01*
X85260492Y-72723391D01*
X85260490Y-72723389D01*
X85260489Y-72723387D01*
X85176613Y-72639511D01*
X85176610Y-72639509D01*
X85176608Y-72639507D01*
X85073889Y-72580202D01*
X85073890Y-72580202D01*
X85056342Y-72575500D01*
X84959309Y-72549500D01*
X84959307Y-72549500D01*
X84899406Y-72549500D01*
X84841215Y-72530593D01*
X84827031Y-72518049D01*
X83977125Y-71607434D01*
X83951243Y-71551993D01*
X83950500Y-71539885D01*
X83950500Y-71440692D01*
X83944901Y-71419797D01*
X83919799Y-71326114D01*
X83919797Y-71326111D01*
X83919797Y-71326109D01*
X83860492Y-71223391D01*
X83860490Y-71223389D01*
X83860489Y-71223387D01*
X83776613Y-71139511D01*
X83776610Y-71139509D01*
X83776608Y-71139507D01*
X83673889Y-71080202D01*
X83673890Y-71080202D01*
X83660351Y-71076574D01*
X83559309Y-71049500D01*
X83440691Y-71049500D01*
X83404084Y-71059309D01*
X83326109Y-71080202D01*
X83223391Y-71139507D01*
X83139507Y-71223391D01*
X83080202Y-71326109D01*
X83080201Y-71326114D01*
X83049500Y-71440691D01*
X79475500Y-71440691D01*
X79475500Y-71002609D01*
X79494407Y-70944418D01*
X79504490Y-70932611D01*
X79560489Y-70876613D01*
X79619799Y-70773886D01*
X79650500Y-70659309D01*
X79650500Y-70540691D01*
X86749500Y-70540691D01*
X86749500Y-70659309D01*
X86751667Y-70667395D01*
X86780202Y-70773890D01*
X86839507Y-70876608D01*
X86839509Y-70876610D01*
X86839511Y-70876613D01*
X86895505Y-70932607D01*
X86923281Y-70987122D01*
X86924500Y-71002609D01*
X86924500Y-71797391D01*
X86905593Y-71855582D01*
X86895509Y-71867388D01*
X86860684Y-71902214D01*
X86839508Y-71923390D01*
X86839507Y-71923391D01*
X86780202Y-72026109D01*
X86772452Y-72055033D01*
X86749500Y-72140691D01*
X86749500Y-72259309D01*
X86763899Y-72313046D01*
X86780202Y-72373890D01*
X86839507Y-72476608D01*
X86839509Y-72476610D01*
X86839511Y-72476613D01*
X86923387Y-72560489D01*
X86923389Y-72560490D01*
X86923391Y-72560492D01*
X87026110Y-72619797D01*
X87026111Y-72619797D01*
X87026114Y-72619799D01*
X87140691Y-72650500D01*
X87140693Y-72650500D01*
X87259307Y-72650500D01*
X87259309Y-72650500D01*
X87373886Y-72619799D01*
X87373888Y-72619797D01*
X87373890Y-72619797D01*
X87476608Y-72560492D01*
X87476608Y-72560491D01*
X87476613Y-72560489D01*
X87560489Y-72476613D01*
X87580786Y-72441456D01*
X106999500Y-72441456D01*
X106999500Y-72638543D01*
X107037949Y-72831834D01*
X107037949Y-72831836D01*
X107113367Y-73013913D01*
X107113368Y-73013914D01*
X107222861Y-73177782D01*
X107362218Y-73317139D01*
X107526086Y-73426632D01*
X107708165Y-73502051D01*
X107901459Y-73540500D01*
X107901460Y-73540500D01*
X108098540Y-73540500D01*
X108098541Y-73540500D01*
X108291835Y-73502051D01*
X108473914Y-73426632D01*
X108637782Y-73317139D01*
X108777139Y-73177782D01*
X108886632Y-73013914D01*
X108962051Y-72831835D01*
X109000500Y-72638541D01*
X109000500Y-72441459D01*
X108962051Y-72248165D01*
X108886632Y-72066086D01*
X108777139Y-71902218D01*
X108637782Y-71762861D01*
X108528288Y-71689699D01*
X108473913Y-71653367D01*
X108291835Y-71577949D01*
X108098543Y-71539500D01*
X108098541Y-71539500D01*
X107901459Y-71539500D01*
X107901456Y-71539500D01*
X107708165Y-71577949D01*
X107708163Y-71577949D01*
X107526086Y-71653367D01*
X107362218Y-71762861D01*
X107362214Y-71762864D01*
X107222864Y-71902214D01*
X107222861Y-71902218D01*
X107113367Y-72066086D01*
X107037949Y-72248163D01*
X107037949Y-72248165D01*
X106999500Y-72441456D01*
X87580786Y-72441456D01*
X87586697Y-72431218D01*
X87612174Y-72387094D01*
X87612174Y-72387093D01*
X87614719Y-72382684D01*
X87619799Y-72373886D01*
X87650500Y-72259309D01*
X87650500Y-72140691D01*
X87619799Y-72026114D01*
X87619797Y-72026111D01*
X87619797Y-72026109D01*
X87560492Y-71923391D01*
X87560490Y-71923389D01*
X87560489Y-71923387D01*
X87504494Y-71867392D01*
X87476719Y-71812878D01*
X87475500Y-71797391D01*
X87475500Y-71002609D01*
X87494407Y-70944418D01*
X87504490Y-70932611D01*
X87560489Y-70876613D01*
X87619799Y-70773886D01*
X87650500Y-70659309D01*
X87650500Y-70540691D01*
X87619799Y-70426114D01*
X87619797Y-70426111D01*
X87619797Y-70426109D01*
X87560492Y-70323391D01*
X87560490Y-70323389D01*
X87560489Y-70323387D01*
X87476613Y-70239511D01*
X87476610Y-70239509D01*
X87476608Y-70239507D01*
X87373889Y-70180202D01*
X87373890Y-70180202D01*
X87360351Y-70176574D01*
X87259309Y-70149500D01*
X87140691Y-70149500D01*
X87070567Y-70168289D01*
X87026109Y-70180202D01*
X86923391Y-70239507D01*
X86839507Y-70323391D01*
X86780202Y-70426109D01*
X86780201Y-70426114D01*
X86749500Y-70540691D01*
X79650500Y-70540691D01*
X79619799Y-70426114D01*
X79619797Y-70426111D01*
X79619797Y-70426109D01*
X79560492Y-70323391D01*
X79560490Y-70323389D01*
X79560489Y-70323387D01*
X79476613Y-70239511D01*
X79476610Y-70239509D01*
X79476608Y-70239507D01*
X79373889Y-70180202D01*
X79373890Y-70180202D01*
X79360351Y-70176574D01*
X79259309Y-70149500D01*
X79140691Y-70149500D01*
X79070567Y-70168289D01*
X79026109Y-70180202D01*
X78923391Y-70239507D01*
X78839507Y-70323391D01*
X78780202Y-70426109D01*
X78780201Y-70426114D01*
X78749500Y-70540691D01*
X77275500Y-70540691D01*
X77275500Y-69755122D01*
X77294407Y-69696931D01*
X77304490Y-69685124D01*
X79729995Y-67259618D01*
X79784512Y-67231842D01*
X79844944Y-67241413D01*
X79870003Y-67259619D01*
X81620504Y-69010120D01*
X81648281Y-69064637D01*
X81649500Y-69080124D01*
X81649500Y-69159309D01*
X81673620Y-69249326D01*
X81680202Y-69273890D01*
X81739507Y-69376608D01*
X81739509Y-69376610D01*
X81739511Y-69376613D01*
X81823387Y-69460489D01*
X81823389Y-69460490D01*
X81823391Y-69460492D01*
X81926110Y-69519797D01*
X81926111Y-69519797D01*
X81926114Y-69519799D01*
X82040691Y-69550500D01*
X82040693Y-69550500D01*
X82159307Y-69550500D01*
X82159309Y-69550500D01*
X82273886Y-69519799D01*
X82273888Y-69519797D01*
X82273890Y-69519797D01*
X82376608Y-69460492D01*
X82376608Y-69460491D01*
X82376613Y-69460489D01*
X82460489Y-69376613D01*
X82473204Y-69354590D01*
X82519797Y-69273890D01*
X82519797Y-69273888D01*
X82519799Y-69273886D01*
X82550500Y-69159309D01*
X82550500Y-69135172D01*
X106999500Y-69135172D01*
X106999500Y-70864827D01*
X107008232Y-70908720D01*
X107008233Y-70908722D01*
X107041496Y-70958504D01*
X107091278Y-70991767D01*
X107102327Y-70993964D01*
X107135172Y-71000499D01*
X107135178Y-71000499D01*
X107135180Y-71000500D01*
X107135181Y-71000500D01*
X108864819Y-71000500D01*
X108864820Y-71000500D01*
X108864821Y-71000499D01*
X108864827Y-71000499D01*
X108886623Y-70996162D01*
X108908722Y-70991767D01*
X108958504Y-70958504D01*
X108991767Y-70908722D01*
X109000500Y-70864820D01*
X109000500Y-69135180D01*
X109000499Y-69135178D01*
X109000499Y-69135172D01*
X108993964Y-69102327D01*
X108991767Y-69091278D01*
X108958504Y-69041496D01*
X108931402Y-69023387D01*
X108908724Y-69008234D01*
X108908720Y-69008232D01*
X108864827Y-68999500D01*
X108864820Y-68999500D01*
X107135180Y-68999500D01*
X107135172Y-68999500D01*
X107091279Y-69008232D01*
X107091275Y-69008234D01*
X107041498Y-69041494D01*
X107041494Y-69041498D01*
X107008234Y-69091275D01*
X107008232Y-69091279D01*
X106999500Y-69135172D01*
X82550500Y-69135172D01*
X82550500Y-69040691D01*
X82519799Y-68926114D01*
X82519797Y-68926111D01*
X82519797Y-68926109D01*
X82460492Y-68823391D01*
X82460490Y-68823389D01*
X82460489Y-68823387D01*
X82376613Y-68739511D01*
X82376610Y-68739509D01*
X82376608Y-68739507D01*
X82273889Y-68680202D01*
X82273890Y-68680202D01*
X82260351Y-68676574D01*
X82159309Y-68649500D01*
X82080124Y-68649500D01*
X82021933Y-68630593D01*
X82010120Y-68620504D01*
X81593822Y-68204206D01*
X81530307Y-68140691D01*
X83649500Y-68140691D01*
X83649500Y-68259309D01*
X83663152Y-68310257D01*
X83680202Y-68373890D01*
X83739507Y-68476608D01*
X83739509Y-68476610D01*
X83739511Y-68476613D01*
X83823387Y-68560489D01*
X83823389Y-68560490D01*
X83823391Y-68560492D01*
X83926110Y-68619797D01*
X83926111Y-68619797D01*
X83926114Y-68619799D01*
X84040691Y-68650500D01*
X84040693Y-68650500D01*
X84159307Y-68650500D01*
X84159309Y-68650500D01*
X84273886Y-68619799D01*
X84273888Y-68619797D01*
X84273890Y-68619797D01*
X84376608Y-68560492D01*
X84376608Y-68560491D01*
X84376613Y-68560489D01*
X84460489Y-68476613D01*
X84481910Y-68439511D01*
X84519797Y-68373890D01*
X84519797Y-68373888D01*
X84519799Y-68373886D01*
X84550500Y-68259309D01*
X84550500Y-68140691D01*
X84519799Y-68026114D01*
X84519797Y-68026111D01*
X84519797Y-68026109D01*
X84460492Y-67923391D01*
X84460490Y-67923389D01*
X84460489Y-67923387D01*
X84404494Y-67867392D01*
X84376719Y-67812878D01*
X84375500Y-67797391D01*
X84375500Y-67555121D01*
X84394407Y-67496930D01*
X84404484Y-67485130D01*
X84810119Y-67079494D01*
X84864634Y-67051719D01*
X84880121Y-67050500D01*
X84959307Y-67050500D01*
X84959309Y-67050500D01*
X85073886Y-67019799D01*
X85073888Y-67019797D01*
X85073890Y-67019797D01*
X85176608Y-66960492D01*
X85176608Y-66960491D01*
X85176613Y-66960489D01*
X85260489Y-66876613D01*
X85262061Y-66873890D01*
X85319797Y-66773890D01*
X85319797Y-66773888D01*
X85319799Y-66773886D01*
X85350500Y-66659309D01*
X85350500Y-66540691D01*
X91749500Y-66540691D01*
X91749500Y-66659309D01*
X91766765Y-66723743D01*
X91780202Y-66773890D01*
X91839507Y-66876608D01*
X91839509Y-66876610D01*
X91839511Y-66876613D01*
X91895505Y-66932607D01*
X91923281Y-66987122D01*
X91924500Y-67002609D01*
X91924500Y-67797391D01*
X91905593Y-67855582D01*
X91895509Y-67867388D01*
X91839511Y-67923387D01*
X91839508Y-67923390D01*
X91839507Y-67923391D01*
X91780202Y-68026109D01*
X91780201Y-68026114D01*
X91749500Y-68140691D01*
X91749500Y-68259309D01*
X91763152Y-68310257D01*
X91780202Y-68373890D01*
X91839507Y-68476608D01*
X91839509Y-68476610D01*
X91839511Y-68476613D01*
X91923387Y-68560489D01*
X91923389Y-68560490D01*
X91923391Y-68560492D01*
X92026110Y-68619797D01*
X92026111Y-68619797D01*
X92026114Y-68619799D01*
X92140691Y-68650500D01*
X92140693Y-68650500D01*
X92259307Y-68650500D01*
X92259309Y-68650500D01*
X92373886Y-68619799D01*
X92373888Y-68619797D01*
X92373890Y-68619797D01*
X92476608Y-68560492D01*
X92476608Y-68560491D01*
X92476613Y-68560489D01*
X92560489Y-68476613D01*
X92581910Y-68439511D01*
X92619797Y-68373890D01*
X92619797Y-68373888D01*
X92619799Y-68373886D01*
X92650500Y-68259309D01*
X92650500Y-68140691D01*
X92619799Y-68026114D01*
X92619797Y-68026111D01*
X92619797Y-68026109D01*
X92560492Y-67923391D01*
X92560490Y-67923389D01*
X92560489Y-67923387D01*
X92504494Y-67867392D01*
X92476719Y-67812878D01*
X92475500Y-67797391D01*
X92475500Y-67002609D01*
X92494407Y-66944418D01*
X92504490Y-66932611D01*
X92560489Y-66876613D01*
X92562061Y-66873890D01*
X92619797Y-66773890D01*
X92619797Y-66773888D01*
X92619799Y-66773886D01*
X92650500Y-66659309D01*
X92650500Y-66540691D01*
X92619799Y-66426114D01*
X92619797Y-66426111D01*
X92619797Y-66426109D01*
X92560492Y-66323391D01*
X92560490Y-66323389D01*
X92560489Y-66323387D01*
X92476613Y-66239511D01*
X92476610Y-66239509D01*
X92476608Y-66239507D01*
X92373889Y-66180202D01*
X92373890Y-66180202D01*
X92360351Y-66176574D01*
X92259309Y-66149500D01*
X92140691Y-66149500D01*
X92070567Y-66168289D01*
X92026109Y-66180202D01*
X91923391Y-66239507D01*
X91839507Y-66323391D01*
X91780202Y-66426109D01*
X91766280Y-66478066D01*
X91749500Y-66540691D01*
X85350500Y-66540691D01*
X85319799Y-66426114D01*
X85319797Y-66426111D01*
X85319797Y-66426109D01*
X85260492Y-66323391D01*
X85260490Y-66323389D01*
X85260489Y-66323387D01*
X85176613Y-66239511D01*
X85176610Y-66239509D01*
X85176608Y-66239507D01*
X85073889Y-66180202D01*
X85073890Y-66180202D01*
X85060351Y-66176574D01*
X84959309Y-66149500D01*
X84840691Y-66149500D01*
X84770567Y-66168289D01*
X84726109Y-66180202D01*
X84623391Y-66239507D01*
X84539507Y-66323391D01*
X84480202Y-66426109D01*
X84449500Y-66540692D01*
X84449500Y-66619876D01*
X84430593Y-66678067D01*
X84420504Y-66689879D01*
X83943942Y-67166442D01*
X83866446Y-67243938D01*
X83866444Y-67243940D01*
X83866443Y-67243942D01*
X83842058Y-67302812D01*
X83824500Y-67345200D01*
X83824500Y-67797391D01*
X83805593Y-67855582D01*
X83795509Y-67867388D01*
X83739511Y-67923387D01*
X83739508Y-67923390D01*
X83739507Y-67923391D01*
X83680202Y-68026109D01*
X83680201Y-68026114D01*
X83649500Y-68140691D01*
X81530307Y-68140691D01*
X80179702Y-66790087D01*
X80151925Y-66735570D01*
X80161496Y-66675138D01*
X80163953Y-66670612D01*
X80219799Y-66573886D01*
X80250500Y-66459309D01*
X80250500Y-66340691D01*
X80219799Y-66226114D01*
X80219797Y-66226111D01*
X80219797Y-66226109D01*
X80160492Y-66123391D01*
X80160487Y-66123385D01*
X80125118Y-66088015D01*
X80097341Y-66033498D01*
X80096259Y-66012809D01*
X80097945Y-65980774D01*
X80142160Y-65140691D01*
X84749500Y-65140691D01*
X84749500Y-65259309D01*
X84776574Y-65360351D01*
X84780202Y-65373890D01*
X84839507Y-65476608D01*
X84839509Y-65476610D01*
X84839511Y-65476613D01*
X84923387Y-65560489D01*
X84923389Y-65560490D01*
X84923391Y-65560492D01*
X85026110Y-65619797D01*
X85026111Y-65619797D01*
X85026114Y-65619799D01*
X85140691Y-65650500D01*
X85140693Y-65650500D01*
X85259307Y-65650500D01*
X85259309Y-65650500D01*
X85373886Y-65619799D01*
X85373888Y-65619797D01*
X85373890Y-65619797D01*
X85476608Y-65560492D01*
X85476608Y-65560491D01*
X85476613Y-65560489D01*
X85532607Y-65504494D01*
X85587122Y-65476719D01*
X85602609Y-65475500D01*
X86397391Y-65475500D01*
X86455582Y-65494407D01*
X86467388Y-65504490D01*
X86523387Y-65560489D01*
X86523389Y-65560490D01*
X86523391Y-65560492D01*
X86626110Y-65619797D01*
X86626111Y-65619797D01*
X86626114Y-65619799D01*
X86740691Y-65650500D01*
X86740693Y-65650500D01*
X86859307Y-65650500D01*
X86859309Y-65650500D01*
X86973886Y-65619799D01*
X86973888Y-65619797D01*
X86973890Y-65619797D01*
X87076608Y-65560492D01*
X87076608Y-65560491D01*
X87076613Y-65560489D01*
X87160489Y-65476613D01*
X87219799Y-65373886D01*
X87250500Y-65259309D01*
X87250500Y-65140691D01*
X87219799Y-65026114D01*
X87219797Y-65026111D01*
X87219797Y-65026109D01*
X87160492Y-64923391D01*
X87160490Y-64923389D01*
X87160489Y-64923387D01*
X87076613Y-64839511D01*
X87076610Y-64839509D01*
X87076608Y-64839507D01*
X86973889Y-64780202D01*
X86973890Y-64780202D01*
X86960351Y-64776574D01*
X86859309Y-64749500D01*
X86740691Y-64749500D01*
X86670567Y-64768289D01*
X86626109Y-64780202D01*
X86523391Y-64839507D01*
X86523390Y-64839508D01*
X86523387Y-64839510D01*
X86523387Y-64839511D01*
X86467392Y-64895505D01*
X86412878Y-64923281D01*
X86397391Y-64924500D01*
X85602609Y-64924500D01*
X85544418Y-64905593D01*
X85532611Y-64895509D01*
X85476613Y-64839511D01*
X85476610Y-64839509D01*
X85476608Y-64839507D01*
X85373889Y-64780202D01*
X85373890Y-64780202D01*
X85360351Y-64776574D01*
X85259309Y-64749500D01*
X85140691Y-64749500D01*
X85070567Y-64768289D01*
X85026109Y-64780202D01*
X84923391Y-64839507D01*
X84839507Y-64923391D01*
X84780202Y-65026109D01*
X84780201Y-65026114D01*
X84749500Y-65140691D01*
X80142160Y-65140691D01*
X80153816Y-64919225D01*
X80175756Y-64862109D01*
X80182666Y-64854435D01*
X80260489Y-64776613D01*
X80319799Y-64673886D01*
X80350500Y-64559309D01*
X80350500Y-64440691D01*
X80319799Y-64326114D01*
X80319797Y-64326111D01*
X80319797Y-64326109D01*
X80260492Y-64223391D01*
X80260490Y-64223389D01*
X80260489Y-64223387D01*
X80176613Y-64139511D01*
X80176610Y-64139509D01*
X80176608Y-64139507D01*
X80073889Y-64080202D01*
X80073890Y-64080202D01*
X80060351Y-64076574D01*
X79959309Y-64049500D01*
X79840691Y-64049500D01*
X79770567Y-64068289D01*
X79726109Y-64080202D01*
X79623391Y-64139507D01*
X79539507Y-64223391D01*
X79480202Y-64326109D01*
X79480201Y-64326114D01*
X79449500Y-64440691D01*
X79449500Y-64559309D01*
X79451412Y-64566443D01*
X79480202Y-64673890D01*
X79539507Y-64776608D01*
X79539512Y-64776614D01*
X79574880Y-64811983D01*
X79602657Y-64866500D01*
X79603739Y-64887189D01*
X79546182Y-65980774D01*
X79524243Y-66037891D01*
X79517323Y-66045574D01*
X79439511Y-66123386D01*
X79439507Y-66123391D01*
X79380202Y-66226109D01*
X79365708Y-66280201D01*
X79349500Y-66340691D01*
X79349500Y-66459309D01*
X79369967Y-66535693D01*
X79380201Y-66573887D01*
X79436029Y-66670583D01*
X79448750Y-66730431D01*
X79423863Y-66786327D01*
X79420296Y-66790087D01*
X76843942Y-69366443D01*
X76843941Y-69366442D01*
X76766446Y-69443938D01*
X76766444Y-69443940D01*
X76766443Y-69443942D01*
X76735022Y-69519799D01*
X76724500Y-69545200D01*
X76724500Y-71797391D01*
X76705593Y-71855582D01*
X76695509Y-71867388D01*
X76660684Y-71902214D01*
X76639508Y-71923390D01*
X76639507Y-71923391D01*
X76580202Y-72026109D01*
X76572452Y-72055033D01*
X76549500Y-72140691D01*
X75073632Y-72140691D01*
X75066386Y-72123196D01*
X75061404Y-72107649D01*
X75056035Y-72084463D01*
X75056035Y-72084462D01*
X75049053Y-72074688D01*
X75038154Y-72055040D01*
X75033558Y-72043942D01*
X75033556Y-72043940D01*
X75016718Y-72027101D01*
X75006164Y-72014643D01*
X74992330Y-71995276D01*
X74982151Y-71988925D01*
X74964554Y-71974938D01*
X74604496Y-71614880D01*
X74576719Y-71560363D01*
X74575500Y-71544876D01*
X74575500Y-71445200D01*
X74540411Y-71360489D01*
X74540411Y-71360488D01*
X74533558Y-71343944D01*
X74533557Y-71343941D01*
X74504495Y-71314879D01*
X74476719Y-71260362D01*
X74475500Y-71244876D01*
X74475500Y-69845200D01*
X74438576Y-69756057D01*
X74433557Y-69743941D01*
X74279496Y-69589879D01*
X74251719Y-69535363D01*
X74250500Y-69519876D01*
X74250500Y-69440692D01*
X74233330Y-69376613D01*
X74219799Y-69326114D01*
X74219797Y-69326111D01*
X74219797Y-69326109D01*
X74160492Y-69223391D01*
X74160488Y-69223386D01*
X74084811Y-69147708D01*
X74057034Y-69093191D01*
X74055927Y-69082414D01*
X74055651Y-69076608D01*
X73983068Y-67552373D01*
X73999186Y-67493350D01*
X74011953Y-67477661D01*
X74610120Y-66879496D01*
X74664636Y-66851719D01*
X74680123Y-66850500D01*
X74759307Y-66850500D01*
X74759309Y-66850500D01*
X74873886Y-66819799D01*
X74873888Y-66819797D01*
X74873890Y-66819797D01*
X74976608Y-66760492D01*
X74976608Y-66760491D01*
X74976613Y-66760489D01*
X75060489Y-66676613D01*
X75061341Y-66675138D01*
X75119797Y-66573890D01*
X75119798Y-66573887D01*
X75119799Y-66573886D01*
X75150500Y-66459309D01*
X75150500Y-66340691D01*
X75119799Y-66226114D01*
X75119797Y-66226111D01*
X75119797Y-66226109D01*
X75060492Y-66123391D01*
X75060487Y-66123385D01*
X75025118Y-66088015D01*
X74997341Y-66033498D01*
X74996259Y-66012809D01*
X74997976Y-65980202D01*
X75053816Y-64919225D01*
X75075755Y-64862109D01*
X75082666Y-64854435D01*
X75160489Y-64776613D01*
X75219799Y-64673886D01*
X75250500Y-64559309D01*
X75250500Y-64440691D01*
X75219799Y-64326114D01*
X75219797Y-64326111D01*
X75219797Y-64326109D01*
X75160492Y-64223391D01*
X75160490Y-64223389D01*
X75160489Y-64223387D01*
X75076613Y-64139511D01*
X75076610Y-64139509D01*
X75076608Y-64139507D01*
X74973889Y-64080202D01*
X74973890Y-64080202D01*
X74960351Y-64076574D01*
X74859309Y-64049500D01*
X74740691Y-64049500D01*
X74670567Y-64068289D01*
X74626109Y-64080202D01*
X74523391Y-64139507D01*
X74439507Y-64223391D01*
X74380202Y-64326109D01*
X74380201Y-64326114D01*
X74349500Y-64440691D01*
X74349500Y-64559309D01*
X74351412Y-64566443D01*
X74380202Y-64673890D01*
X74439507Y-64776608D01*
X74439512Y-64776614D01*
X74474880Y-64811983D01*
X74502657Y-64866500D01*
X74503739Y-64887189D01*
X74446182Y-65980774D01*
X74424243Y-66037891D01*
X74417323Y-66045574D01*
X74339511Y-66123386D01*
X74339507Y-66123391D01*
X74280202Y-66226109D01*
X74265708Y-66280201D01*
X74249818Y-66339507D01*
X74249500Y-66340692D01*
X74249500Y-66419875D01*
X74230593Y-66478066D01*
X74220504Y-66489879D01*
X73550672Y-67159711D01*
X73539530Y-67169308D01*
X73533010Y-67174129D01*
X73502150Y-67208074D01*
X73498903Y-67211479D01*
X73466441Y-67243943D01*
X73462716Y-67249516D01*
X73459286Y-67255221D01*
X73443753Y-67298425D01*
X73442056Y-67302812D01*
X73424501Y-67345196D01*
X73423190Y-67351790D01*
X73422204Y-67358365D01*
X73424389Y-67404230D01*
X73424501Y-67408939D01*
X73424501Y-67454801D01*
X73426080Y-67462740D01*
X73427870Y-67477343D01*
X73505681Y-69111387D01*
X73489563Y-69170411D01*
X73476798Y-69186098D01*
X73439512Y-69223385D01*
X73439507Y-69223391D01*
X73380202Y-69326109D01*
X73371307Y-69359307D01*
X73349500Y-69440691D01*
X69075500Y-69440691D01*
X69075500Y-67945200D01*
X69045841Y-67873598D01*
X69045841Y-67873597D01*
X69033558Y-67843944D01*
X69033557Y-67843942D01*
X69033557Y-67843941D01*
X65756058Y-64566443D01*
X65756056Y-64566442D01*
X65756055Y-64566441D01*
X65738836Y-64559309D01*
X65738835Y-64559309D01*
X65654800Y-64524500D01*
X62954800Y-64524500D01*
X62845200Y-64524500D01*
X62845198Y-64524500D01*
X62743944Y-64566440D01*
X61389880Y-65920504D01*
X61335363Y-65948281D01*
X61319876Y-65949500D01*
X61240691Y-65949500D01*
X61170567Y-65968289D01*
X61126109Y-65980202D01*
X61023391Y-66039507D01*
X60939507Y-66123391D01*
X60880202Y-66226109D01*
X60865708Y-66280201D01*
X60849500Y-66340691D01*
X30500000Y-66340691D01*
X30500000Y-49385839D01*
X38389500Y-49385839D01*
X38389500Y-49614160D01*
X38425214Y-49839655D01*
X38495769Y-50056799D01*
X38599420Y-50260227D01*
X38599424Y-50260233D01*
X38733616Y-50444931D01*
X38733618Y-50444933D01*
X38733621Y-50444937D01*
X38895063Y-50606379D01*
X38895066Y-50606381D01*
X38895068Y-50606383D01*
X39079766Y-50740575D01*
X39079772Y-50740579D01*
X39283201Y-50844231D01*
X39500340Y-50914784D01*
X39500341Y-50914784D01*
X39500344Y-50914785D01*
X39725840Y-50950500D01*
X39725843Y-50950500D01*
X39954160Y-50950500D01*
X40179655Y-50914785D01*
X40179656Y-50914784D01*
X40179660Y-50914784D01*
X40396799Y-50844231D01*
X40600228Y-50740579D01*
X40784937Y-50606379D01*
X40946379Y-50444937D01*
X41080579Y-50260228D01*
X41184231Y-50056799D01*
X41254784Y-49839660D01*
X41290500Y-49614157D01*
X41290500Y-49385843D01*
X41290500Y-49385839D01*
X43469500Y-49385839D01*
X43469500Y-49614160D01*
X43505214Y-49839655D01*
X43575769Y-50056799D01*
X43679420Y-50260227D01*
X43679424Y-50260233D01*
X43813616Y-50444931D01*
X43813618Y-50444933D01*
X43813621Y-50444937D01*
X43975063Y-50606379D01*
X43975066Y-50606381D01*
X43975068Y-50606383D01*
X44159766Y-50740575D01*
X44159772Y-50740579D01*
X44363201Y-50844231D01*
X44580340Y-50914784D01*
X44580341Y-50914784D01*
X44580344Y-50914785D01*
X44805840Y-50950500D01*
X44805843Y-50950500D01*
X45034160Y-50950500D01*
X45259655Y-50914785D01*
X45259656Y-50914784D01*
X45259660Y-50914784D01*
X45476799Y-50844231D01*
X45680228Y-50740579D01*
X45864937Y-50606379D01*
X46026379Y-50444937D01*
X46160579Y-50260228D01*
X46264231Y-50056799D01*
X46334784Y-49839660D01*
X46370500Y-49614157D01*
X46370500Y-49385843D01*
X46370500Y-49385839D01*
X48549500Y-49385839D01*
X48549500Y-49614160D01*
X48585214Y-49839655D01*
X48655769Y-50056799D01*
X48759420Y-50260227D01*
X48759424Y-50260233D01*
X48893616Y-50444931D01*
X48893618Y-50444933D01*
X48893621Y-50444937D01*
X49055063Y-50606379D01*
X49055066Y-50606381D01*
X49055068Y-50606383D01*
X49239766Y-50740575D01*
X49239772Y-50740579D01*
X49443201Y-50844231D01*
X49660340Y-50914784D01*
X49660341Y-50914784D01*
X49660344Y-50914785D01*
X49885840Y-50950500D01*
X49885843Y-50950500D01*
X50114160Y-50950500D01*
X50339655Y-50914785D01*
X50339656Y-50914784D01*
X50339660Y-50914784D01*
X50556799Y-50844231D01*
X50760228Y-50740579D01*
X50944937Y-50606379D01*
X51106379Y-50444937D01*
X51240579Y-50260228D01*
X51344231Y-50056799D01*
X51414784Y-49839660D01*
X51450500Y-49614157D01*
X51450500Y-49385843D01*
X51450500Y-49385839D01*
X53629500Y-49385839D01*
X53629500Y-49614160D01*
X53665214Y-49839655D01*
X53735769Y-50056799D01*
X53839420Y-50260227D01*
X53839424Y-50260233D01*
X53973616Y-50444931D01*
X53973618Y-50444933D01*
X53973621Y-50444937D01*
X54135063Y-50606379D01*
X54135066Y-50606381D01*
X54135068Y-50606383D01*
X54319766Y-50740575D01*
X54319772Y-50740579D01*
X54523201Y-50844231D01*
X54740340Y-50914784D01*
X54740341Y-50914784D01*
X54740344Y-50914785D01*
X54965840Y-50950500D01*
X54965843Y-50950500D01*
X55194160Y-50950500D01*
X55419655Y-50914785D01*
X55419656Y-50914784D01*
X55419660Y-50914784D01*
X55636799Y-50844231D01*
X55840228Y-50740579D01*
X56024937Y-50606379D01*
X56186379Y-50444937D01*
X56320579Y-50260228D01*
X56424231Y-50056799D01*
X56494784Y-49839660D01*
X56530500Y-49614157D01*
X56530500Y-49385843D01*
X56530500Y-49385839D01*
X56494785Y-49160344D01*
X56456311Y-49041933D01*
X56424231Y-48943201D01*
X56320579Y-48739772D01*
X56186379Y-48555063D01*
X56024937Y-48393621D01*
X56024933Y-48393618D01*
X56024931Y-48393616D01*
X55841589Y-48260409D01*
X55841588Y-48260409D01*
X55840228Y-48259421D01*
X55840227Y-48259420D01*
X55694506Y-48185172D01*
X58709500Y-48185172D01*
X58709500Y-50814827D01*
X58718232Y-50858720D01*
X58718233Y-50858722D01*
X58751496Y-50908504D01*
X58801278Y-50941767D01*
X58812327Y-50943964D01*
X58845172Y-50950499D01*
X58845178Y-50950499D01*
X58845180Y-50950500D01*
X58845181Y-50950500D01*
X61474819Y-50950500D01*
X61474820Y-50950500D01*
X61474821Y-50950499D01*
X61474827Y-50950499D01*
X61496623Y-50946162D01*
X61518722Y-50941767D01*
X61568504Y-50908504D01*
X61601767Y-50858722D01*
X61610500Y-50814820D01*
X61610500Y-49385839D01*
X74389500Y-49385839D01*
X74389500Y-49614160D01*
X74425214Y-49839655D01*
X74495769Y-50056799D01*
X74599420Y-50260227D01*
X74599424Y-50260233D01*
X74733616Y-50444931D01*
X74733618Y-50444933D01*
X74733621Y-50444937D01*
X74895063Y-50606379D01*
X74895066Y-50606381D01*
X74895068Y-50606383D01*
X75079766Y-50740575D01*
X75079772Y-50740579D01*
X75283201Y-50844231D01*
X75500340Y-50914784D01*
X75500341Y-50914784D01*
X75500344Y-50914785D01*
X75725840Y-50950500D01*
X75725843Y-50950500D01*
X75954160Y-50950500D01*
X76179655Y-50914785D01*
X76179656Y-50914784D01*
X76179660Y-50914784D01*
X76396799Y-50844231D01*
X76600228Y-50740579D01*
X76784937Y-50606379D01*
X76946379Y-50444937D01*
X77080579Y-50260228D01*
X77184231Y-50056799D01*
X77254784Y-49839660D01*
X77290500Y-49614157D01*
X77290500Y-49385843D01*
X77290500Y-49385839D01*
X79469500Y-49385839D01*
X79469500Y-49614160D01*
X79505214Y-49839655D01*
X79575769Y-50056799D01*
X79679420Y-50260227D01*
X79679424Y-50260233D01*
X79813616Y-50444931D01*
X79813618Y-50444933D01*
X79813621Y-50444937D01*
X79975063Y-50606379D01*
X79975066Y-50606381D01*
X79975068Y-50606383D01*
X80159766Y-50740575D01*
X80159772Y-50740579D01*
X80363201Y-50844231D01*
X80580340Y-50914784D01*
X80580341Y-50914784D01*
X80580344Y-50914785D01*
X80805840Y-50950500D01*
X80805843Y-50950500D01*
X81034160Y-50950500D01*
X81259655Y-50914785D01*
X81259656Y-50914784D01*
X81259660Y-50914784D01*
X81476799Y-50844231D01*
X81680228Y-50740579D01*
X81864937Y-50606379D01*
X82026379Y-50444937D01*
X82160579Y-50260228D01*
X82264231Y-50056799D01*
X82334784Y-49839660D01*
X82370500Y-49614157D01*
X82370500Y-49385843D01*
X82370500Y-49385839D01*
X84549500Y-49385839D01*
X84549500Y-49614160D01*
X84585214Y-49839655D01*
X84655769Y-50056799D01*
X84759420Y-50260227D01*
X84759424Y-50260233D01*
X84893616Y-50444931D01*
X84893618Y-50444933D01*
X84893621Y-50444937D01*
X85055063Y-50606379D01*
X85055066Y-50606381D01*
X85055068Y-50606383D01*
X85239766Y-50740575D01*
X85239772Y-50740579D01*
X85443201Y-50844231D01*
X85660340Y-50914784D01*
X85660341Y-50914784D01*
X85660344Y-50914785D01*
X85885840Y-50950500D01*
X85885843Y-50950500D01*
X86114160Y-50950500D01*
X86339655Y-50914785D01*
X86339656Y-50914784D01*
X86339660Y-50914784D01*
X86556799Y-50844231D01*
X86760228Y-50740579D01*
X86944937Y-50606379D01*
X87106379Y-50444937D01*
X87240579Y-50260228D01*
X87344231Y-50056799D01*
X87414784Y-49839660D01*
X87450500Y-49614157D01*
X87450500Y-49385843D01*
X87450500Y-49385839D01*
X89629500Y-49385839D01*
X89629500Y-49614160D01*
X89665214Y-49839655D01*
X89735769Y-50056799D01*
X89839420Y-50260227D01*
X89839424Y-50260233D01*
X89973616Y-50444931D01*
X89973618Y-50444933D01*
X89973621Y-50444937D01*
X90135063Y-50606379D01*
X90135066Y-50606381D01*
X90135068Y-50606383D01*
X90319766Y-50740575D01*
X90319772Y-50740579D01*
X90523201Y-50844231D01*
X90740340Y-50914784D01*
X90740341Y-50914784D01*
X90740344Y-50914785D01*
X90965840Y-50950500D01*
X90965843Y-50950500D01*
X91194160Y-50950500D01*
X91419655Y-50914785D01*
X91419656Y-50914784D01*
X91419660Y-50914784D01*
X91636799Y-50844231D01*
X91840228Y-50740579D01*
X92024937Y-50606379D01*
X92186379Y-50444937D01*
X92320579Y-50260228D01*
X92424231Y-50056799D01*
X92494784Y-49839660D01*
X92530500Y-49614157D01*
X92530500Y-49385843D01*
X92530500Y-49385839D01*
X92494785Y-49160344D01*
X92456311Y-49041933D01*
X92424231Y-48943201D01*
X92320579Y-48739772D01*
X92186379Y-48555063D01*
X92024937Y-48393621D01*
X92024933Y-48393618D01*
X92024931Y-48393616D01*
X91840233Y-48259424D01*
X91840227Y-48259420D01*
X91636799Y-48155769D01*
X91419655Y-48085214D01*
X91194160Y-48049500D01*
X91194157Y-48049500D01*
X90965843Y-48049500D01*
X90965840Y-48049500D01*
X90740344Y-48085214D01*
X90523200Y-48155769D01*
X90319772Y-48259420D01*
X90319766Y-48259424D01*
X90135068Y-48393616D01*
X89973616Y-48555068D01*
X89839424Y-48739766D01*
X89839420Y-48739772D01*
X89735769Y-48943200D01*
X89665214Y-49160344D01*
X89629500Y-49385839D01*
X87450500Y-49385839D01*
X87414785Y-49160344D01*
X87376311Y-49041933D01*
X87344231Y-48943201D01*
X87240579Y-48739772D01*
X87106379Y-48555063D01*
X86944937Y-48393621D01*
X86944933Y-48393618D01*
X86944931Y-48393616D01*
X86760233Y-48259424D01*
X86760227Y-48259420D01*
X86556799Y-48155769D01*
X86339655Y-48085214D01*
X86114160Y-48049500D01*
X86114157Y-48049500D01*
X85885843Y-48049500D01*
X85885840Y-48049500D01*
X85660344Y-48085214D01*
X85443200Y-48155769D01*
X85239772Y-48259420D01*
X85239766Y-48259424D01*
X85055068Y-48393616D01*
X84893616Y-48555068D01*
X84759424Y-48739766D01*
X84759420Y-48739772D01*
X84655769Y-48943200D01*
X84585214Y-49160344D01*
X84549500Y-49385839D01*
X82370500Y-49385839D01*
X82334785Y-49160344D01*
X82296311Y-49041933D01*
X82264231Y-48943201D01*
X82160579Y-48739772D01*
X82026379Y-48555063D01*
X81864937Y-48393621D01*
X81864933Y-48393618D01*
X81864931Y-48393616D01*
X81680233Y-48259424D01*
X81680227Y-48259420D01*
X81476799Y-48155769D01*
X81259655Y-48085214D01*
X81034160Y-48049500D01*
X81034157Y-48049500D01*
X80805843Y-48049500D01*
X80805840Y-48049500D01*
X80580344Y-48085214D01*
X80363200Y-48155769D01*
X80159772Y-48259420D01*
X80159766Y-48259424D01*
X79975068Y-48393616D01*
X79813616Y-48555068D01*
X79679424Y-48739766D01*
X79679420Y-48739772D01*
X79575769Y-48943200D01*
X79505214Y-49160344D01*
X79469500Y-49385839D01*
X77290500Y-49385839D01*
X77254785Y-49160344D01*
X77216311Y-49041933D01*
X77184231Y-48943201D01*
X77080579Y-48739772D01*
X76946379Y-48555063D01*
X76784937Y-48393621D01*
X76784933Y-48393618D01*
X76784931Y-48393616D01*
X76600233Y-48259424D01*
X76600227Y-48259420D01*
X76396799Y-48155769D01*
X76179655Y-48085214D01*
X75954160Y-48049500D01*
X75954157Y-48049500D01*
X75725843Y-48049500D01*
X75725840Y-48049500D01*
X75500344Y-48085214D01*
X75283200Y-48155769D01*
X75079772Y-48259420D01*
X75079766Y-48259424D01*
X74895068Y-48393616D01*
X74733616Y-48555068D01*
X74599424Y-48739766D01*
X74599420Y-48739772D01*
X74495769Y-48943200D01*
X74425214Y-49160344D01*
X74389500Y-49385839D01*
X61610500Y-49385839D01*
X61610500Y-48185180D01*
X61610499Y-48185178D01*
X61610499Y-48185172D01*
X61601767Y-48141279D01*
X61601765Y-48141275D01*
X61601323Y-48140614D01*
X61568504Y-48091496D01*
X61559102Y-48085214D01*
X61518724Y-48058234D01*
X61518720Y-48058232D01*
X61474827Y-48049500D01*
X61474820Y-48049500D01*
X58845180Y-48049500D01*
X58845172Y-48049500D01*
X58801279Y-48058232D01*
X58801275Y-48058234D01*
X58751498Y-48091494D01*
X58751494Y-48091498D01*
X58718234Y-48141275D01*
X58718232Y-48141279D01*
X58709500Y-48185172D01*
X55694506Y-48185172D01*
X55636799Y-48155769D01*
X55419655Y-48085214D01*
X55194160Y-48049500D01*
X55194157Y-48049500D01*
X54965843Y-48049500D01*
X54965840Y-48049500D01*
X54740344Y-48085214D01*
X54523200Y-48155769D01*
X54319772Y-48259420D01*
X54319766Y-48259424D01*
X54135068Y-48393616D01*
X53973616Y-48555068D01*
X53839424Y-48739766D01*
X53839420Y-48739772D01*
X53735769Y-48943200D01*
X53665214Y-49160344D01*
X53629500Y-49385839D01*
X51450500Y-49385839D01*
X51414785Y-49160344D01*
X51376311Y-49041933D01*
X51344231Y-48943201D01*
X51240579Y-48739772D01*
X51106379Y-48555063D01*
X50944937Y-48393621D01*
X50944933Y-48393618D01*
X50944931Y-48393616D01*
X50760233Y-48259424D01*
X50760227Y-48259420D01*
X50556799Y-48155769D01*
X50339655Y-48085214D01*
X50114160Y-48049500D01*
X50114157Y-48049500D01*
X49885843Y-48049500D01*
X49885840Y-48049500D01*
X49660344Y-48085214D01*
X49443200Y-48155769D01*
X49239772Y-48259420D01*
X49239766Y-48259424D01*
X49055068Y-48393616D01*
X48893616Y-48555068D01*
X48759424Y-48739766D01*
X48759420Y-48739772D01*
X48655769Y-48943200D01*
X48585214Y-49160344D01*
X48549500Y-49385839D01*
X46370500Y-49385839D01*
X46334785Y-49160344D01*
X46296311Y-49041933D01*
X46264231Y-48943201D01*
X46160579Y-48739772D01*
X46026379Y-48555063D01*
X45864937Y-48393621D01*
X45864933Y-48393618D01*
X45864931Y-48393616D01*
X45680233Y-48259424D01*
X45680227Y-48259420D01*
X45476799Y-48155769D01*
X45259655Y-48085214D01*
X45034160Y-48049500D01*
X45034157Y-48049500D01*
X44805843Y-48049500D01*
X44805840Y-48049500D01*
X44580344Y-48085214D01*
X44363200Y-48155769D01*
X44159772Y-48259420D01*
X44159766Y-48259424D01*
X43975068Y-48393616D01*
X43813616Y-48555068D01*
X43679424Y-48739766D01*
X43679420Y-48739772D01*
X43575769Y-48943200D01*
X43505214Y-49160344D01*
X43469500Y-49385839D01*
X41290500Y-49385839D01*
X41254785Y-49160344D01*
X41216311Y-49041933D01*
X41184231Y-48943201D01*
X41080579Y-48739772D01*
X40946379Y-48555063D01*
X40784937Y-48393621D01*
X40784933Y-48393618D01*
X40784931Y-48393616D01*
X40600233Y-48259424D01*
X40600227Y-48259420D01*
X40396799Y-48155769D01*
X40179655Y-48085214D01*
X39954160Y-48049500D01*
X39954157Y-48049500D01*
X39725843Y-48049500D01*
X39725840Y-48049500D01*
X39500344Y-48085214D01*
X39283200Y-48155769D01*
X39079772Y-48259420D01*
X39079766Y-48259424D01*
X38895068Y-48393616D01*
X38733616Y-48555068D01*
X38599424Y-48739766D01*
X38599420Y-48739772D01*
X38495769Y-48943200D01*
X38425214Y-49160344D01*
X38389500Y-49385839D01*
X30500000Y-49385839D01*
X30500000Y-47378710D01*
X31649500Y-47378710D01*
X31649500Y-47621289D01*
X31681161Y-47861781D01*
X31681161Y-47861786D01*
X31681162Y-47861789D01*
X31733799Y-48058233D01*
X31743944Y-48096092D01*
X31743948Y-48096105D01*
X31836772Y-48320204D01*
X31836774Y-48320208D01*
X31836776Y-48320212D01*
X31879156Y-48393616D01*
X31958066Y-48530292D01*
X32105729Y-48722731D01*
X32105731Y-48722733D01*
X32105735Y-48722738D01*
X32277262Y-48894265D01*
X32277266Y-48894268D01*
X32277268Y-48894270D01*
X32469707Y-49041933D01*
X32469711Y-49041936D01*
X32679788Y-49163224D01*
X32903900Y-49256054D01*
X33138211Y-49318838D01*
X33378712Y-49350500D01*
X33378713Y-49350500D01*
X33621287Y-49350500D01*
X33621288Y-49350500D01*
X33861789Y-49318838D01*
X34096100Y-49256054D01*
X34320212Y-49163224D01*
X34530289Y-49041936D01*
X34722738Y-48894265D01*
X34894265Y-48722738D01*
X35041936Y-48530289D01*
X35163224Y-48320212D01*
X35256054Y-48096100D01*
X35318838Y-47861789D01*
X35350500Y-47621288D01*
X35350500Y-47378712D01*
X35350500Y-47378710D01*
X108649500Y-47378710D01*
X108649500Y-47621289D01*
X108681161Y-47861781D01*
X108681161Y-47861786D01*
X108681162Y-47861789D01*
X108733799Y-48058233D01*
X108743944Y-48096092D01*
X108743948Y-48096105D01*
X108836772Y-48320204D01*
X108836774Y-48320208D01*
X108836776Y-48320212D01*
X108879156Y-48393616D01*
X108958066Y-48530292D01*
X109105729Y-48722731D01*
X109105731Y-48722733D01*
X109105735Y-48722738D01*
X109277262Y-48894265D01*
X109277266Y-48894268D01*
X109277268Y-48894270D01*
X109469707Y-49041933D01*
X109469711Y-49041936D01*
X109679788Y-49163224D01*
X109903900Y-49256054D01*
X110138211Y-49318838D01*
X110378712Y-49350500D01*
X110378713Y-49350500D01*
X110621287Y-49350500D01*
X110621288Y-49350500D01*
X110861789Y-49318838D01*
X111096100Y-49256054D01*
X111320212Y-49163224D01*
X111530289Y-49041936D01*
X111722738Y-48894265D01*
X111894265Y-48722738D01*
X112041936Y-48530289D01*
X112163224Y-48320212D01*
X112256054Y-48096100D01*
X112318838Y-47861789D01*
X112350500Y-47621288D01*
X112350500Y-47378712D01*
X112318838Y-47138211D01*
X112256054Y-46903900D01*
X112163224Y-46679788D01*
X112041936Y-46469711D01*
X111894265Y-46277262D01*
X111722738Y-46105735D01*
X111722733Y-46105731D01*
X111722731Y-46105729D01*
X111530292Y-45958066D01*
X111530289Y-45958064D01*
X111320212Y-45836776D01*
X111320208Y-45836774D01*
X111320204Y-45836772D01*
X111096105Y-45743948D01*
X111096104Y-45743947D01*
X111096100Y-45743946D01*
X110861789Y-45681162D01*
X110861786Y-45681161D01*
X110861784Y-45681161D01*
X110621289Y-45649500D01*
X110621288Y-45649500D01*
X110378712Y-45649500D01*
X110378710Y-45649500D01*
X110138218Y-45681161D01*
X110138213Y-45681161D01*
X109903907Y-45743944D01*
X109903894Y-45743948D01*
X109679795Y-45836772D01*
X109469707Y-45958066D01*
X109277268Y-46105729D01*
X109105729Y-46277268D01*
X108958066Y-46469707D01*
X108836772Y-46679795D01*
X108743948Y-46903894D01*
X108743944Y-46903907D01*
X108681161Y-47138213D01*
X108681161Y-47138218D01*
X108649500Y-47378710D01*
X35350500Y-47378710D01*
X35318838Y-47138211D01*
X35256054Y-46903900D01*
X35163224Y-46679788D01*
X35041936Y-46469711D01*
X34894265Y-46277262D01*
X34722738Y-46105735D01*
X34722733Y-46105731D01*
X34722731Y-46105729D01*
X34530292Y-45958066D01*
X34530289Y-45958064D01*
X34320212Y-45836776D01*
X34320208Y-45836774D01*
X34320204Y-45836772D01*
X34096105Y-45743948D01*
X34096104Y-45743947D01*
X34096100Y-45743946D01*
X33861789Y-45681162D01*
X33861786Y-45681161D01*
X33861784Y-45681161D01*
X33621289Y-45649500D01*
X33621288Y-45649500D01*
X33378712Y-45649500D01*
X33378710Y-45649500D01*
X33138218Y-45681161D01*
X33138213Y-45681161D01*
X32903907Y-45743944D01*
X32903894Y-45743948D01*
X32679795Y-45836772D01*
X32469707Y-45958066D01*
X32277268Y-46105729D01*
X32105729Y-46277268D01*
X31958066Y-46469707D01*
X31836772Y-46679795D01*
X31743948Y-46903894D01*
X31743944Y-46903907D01*
X31681161Y-47138213D01*
X31681161Y-47138218D01*
X31649500Y-47378710D01*
X30500000Y-47378710D01*
X30500000Y-44599000D01*
X30518907Y-44540809D01*
X30568407Y-44504845D01*
X30599000Y-44500000D01*
X113401000Y-44500000D01*
X113459191Y-44518907D01*
G37*
%TD.AperFunction*%
%TD*%
M02*
