M48
; DRILL file KiCad 10.0.5-10.0.5~ubuntu24.04.1 date 2026-09-03T01:15:30
; FORMAT={-:-/ absolute / metric / decimal}
; #@! TF.CreationDate,2026-09-03T01:15:30-06:00
; #@! TF.GenerationSoftware,Kicad,Pcbnew,10.0.5-10.0.5~ubuntu24.04.1
; #@! TF.FileFunction,Plated,1,2,PTH
FMAT,2
METRIC
; #@! TA.AperFunction,Plated,PTH,ViaDrill
T1C0.300
; #@! TA.AperFunction,Plated,PTH,ComponentDrill
T2C1.000
; #@! TA.AperFunction,Plated,PTH,ComponentDrill
T3C1.600
%
G90
G05
T1
X38.615Y-67.175
X42.277Y-64.938
X43.04Y-60.85
X43.695Y-67.175
X44.2Y-94.0
X47.357Y-64.938
X48.12Y-60.85
X48.775Y-67.175
X49.562Y-99.438
X49.775Y-90.225
X51.2Y-69.3
X51.2Y-71.3
X52.438Y-64.938
X53.2Y-60.85
X53.65Y-94.85
X53.712Y-86.725
X53.855Y-67.175
X54.0Y-82.25
X54.325Y-102.625
X55.825Y-97.225
X56.2Y-82.3
X56.3Y-69.3
X56.3Y-71.0
X56.65Y-74.15
X56.7Y-99.9
X57.45Y-98.6
X57.517Y-64.938
X58.28Y-60.85
X58.6Y-76.2
X58.6Y-77.9
X59.275Y-74.225
X59.275Y-82.225
X60.0Y-100.3
X60.35Y-79.85
X61.2Y-82.8
X61.3Y-66.4
X61.3Y-85.2
X61.475Y-103.55
X62.4Y-68.5
X62.4Y-80.0
X63.5Y-82.1
X63.6Y-66.7
X64.1Y-86.9
X64.8Y-68.8
X64.8Y-72.3
X64.8Y-80.1
X65.7Y-73.325
X65.775Y-68.775
X65.8Y-75.9
X65.8Y-77.8
X65.9Y-78.7
X66.775Y-68.725
X66.975Y-106.85
X67.775Y-83.725
X67.9Y-77.8
X68.0Y-103.0
X68.7Y-81.6
X68.775Y-66.675
X68.8Y-73.9
X69.7Y-78.675
X71.2Y-73.2
X71.3Y-76.5
X71.3Y-78.675
X71.775Y-83.725
X72.05Y-84.6
X72.2Y-72.2
X73.7Y-81.8
X73.8Y-69.5
X73.95Y-103.275
X73.95Y-106.275
X74.1Y-74.0
X74.275Y-94.225
X74.615Y-62.075
X74.615Y-68.925
X74.7Y-66.4
X74.7Y-72.8
X74.8Y-64.5
X74.825Y-85.225
X76.1Y-85.8
X76.275Y-80.225
X77.0Y-72.2
X77.7Y-78.8
X79.2Y-70.6
X79.275Y-85.725
X79.45Y-88.975
X79.695Y-62.075
X79.695Y-68.925
X79.7Y-72.2
X79.8Y-66.4
X79.9Y-64.5
X80.1Y-76.4
X80.9Y-78.5
X82.1Y-69.1
X82.1Y-73.7
X83.0Y-78.8
X83.5Y-71.5
X83.9Y-74.8
X83.9Y-76.4
X84.1Y-68.2
X84.1Y-81.3
X84.775Y-62.075
X84.775Y-68.925
X84.8Y-78.2
X84.9Y-66.6
X84.9Y-73.0
X85.2Y-65.2
X86.8Y-65.2
X87.2Y-70.6
X87.2Y-72.2
X89.2Y-78.0
X89.3Y-83.7
X89.7Y-79.7
X89.815Y-77.225
X89.855Y-62.075
X89.855Y-68.925
X89.9Y-74.2
X91.6Y-75.7
X92.0Y-76.9
X92.2Y-66.6
X92.2Y-68.2
X92.54Y-98.1
X92.6Y-81.9
X93.175Y-76.8
X95.4Y-83.7
X95.5Y-79.2
X96.815Y-77.225
X98.4Y-82.1
X99.365Y-82.225
X104.8Y-77.2
X104.8Y-79.4
X105.355Y-85.725
T2
X78.5Y-91.0
X81.04Y-91.0
X104.04Y-91.0
X106.58Y-91.0
X108.0Y-70.0
X108.0Y-72.54
X108.0Y-75.08
X108.0Y-77.62
X108.0Y-80.16
T3
X39.84Y-49.5
X40.46Y-104.5
X44.92Y-49.5
X45.54Y-104.5
X50.0Y-49.5
X55.08Y-49.5
X60.16Y-49.5
X75.84Y-49.5
X80.92Y-49.5
X84.92Y-104.5
X86.0Y-49.5
X90.0Y-104.5
X91.08Y-49.5
X95.08Y-104.5
X96.16Y-49.5
M30
